<svg width="653" height="422" viewBox="0 0 653 422" fill="none" xmlns="http://www.w3.org/2000/svg">
<path d="M202.129 25.0571H635.564C644.419 25.0571 651.597 32.2595 651.597 41.144V332.238C651.597 341.122 644.419 348.325 635.564 348.325H202.129C193.275 348.325 186.097 341.122 186.097 332.238V41.144C186.097 32.2595 193.275 25.0571 202.129 25.0571Z" fill="white" stroke="white"/>
<path d="M202.129 25.0571H635.564C644.419 25.0571 651.597 32.2595 651.597 41.144V332.238C651.597 341.122 644.419 348.325 635.564 348.325H202.129C193.275 348.325 186.097 341.122 186.097 332.238V41.144C186.097 32.2595 193.275 25.0571 202.129 25.0571Z" stroke="black"/>
<path d="M216.138 39.1138H621.555C630.41 39.1138 637.588 46.3161 637.588 55.2007V300.882C637.588 309.766 630.41 316.969 621.555 316.969H216.138C207.283 316.969 200.105 309.766 200.105 300.882V55.2007C200.105 46.3161 207.283 39.1138 216.138 39.1138Z" stroke="black"/>
<path d="M216.117 60.9414H309.747V291.84H216.117V60.9414Z" stroke="black"/>
<path d="M252.853 161.238L240.019 193.272H236.759L250.765 159.203H253.031L252.853 161.238ZM264.514 193.272L251.656 161.238L251.477 159.203H253.743L267.773 193.272H264.514ZM262.223 181.245V183.725H242.539V181.245H262.223ZM290.462 188.358V157.331H293.517V193.272H290.666L290.462 188.358ZM271.339 180.87V180.379C271.339 178.413 271.585 176.643 272.077 175.067C272.57 173.476 273.274 172.119 274.19 170.996C275.124 169.857 276.245 168.991 277.551 168.398C278.859 167.791 280.335 167.486 281.983 167.486C283.595 167.486 285.02 167.728 286.26 168.211C287.5 168.695 288.561 169.39 289.444 170.294C290.343 171.199 291.064 172.275 291.608 173.523C292.167 174.771 292.575 176.16 292.83 177.688V183.936C292.626 185.371 292.253 186.69 291.71 187.891C291.166 189.076 290.445 190.114 289.546 191.003C288.645 191.876 287.559 192.555 286.286 193.038C285.03 193.506 283.578 193.741 281.932 193.741C280.302 193.741 278.834 193.428 277.526 192.804C276.219 192.18 275.107 191.299 274.19 190.161C273.274 189.006 272.57 187.64 272.077 186.065C271.585 184.489 271.339 182.758 271.339 180.87ZM274.394 180.379V180.87C274.394 182.353 274.555 183.725 274.879 184.989C275.201 186.253 275.693 187.352 276.355 188.288C277.017 189.224 277.857 189.957 278.876 190.487C279.894 191.018 281.1 191.284 282.491 191.284C284.241 191.284 285.709 190.98 286.897 190.371C288.085 189.747 289.036 188.928 289.748 187.914C290.462 186.884 290.98 185.762 291.302 184.544V177.267C291.098 176.441 290.801 175.598 290.411 174.739C290.021 173.882 289.485 173.094 288.806 172.376C288.145 171.643 287.296 171.058 286.26 170.621C285.242 170.169 284.002 169.943 282.542 169.943C281.134 169.943 279.919 170.209 278.901 170.739C277.883 171.269 277.035 172.01 276.355 172.962C275.693 173.898 275.201 174.998 274.879 176.261C274.555 177.524 274.394 178.897 274.394 180.379Z" fill="black"/>
<path d="M478.131 192.725H621.425V292.172H478.131V192.725Z" stroke="black"/>
<path d="M572.449 259.587C569.809 255.817 565.051 255.408 561.814 258.688L554.778 265.815C551.541 269.09 546.654 268.777 543.856 265.125L515.1 227.525C512.302 223.867 508.355 224.235 506.282 228.348L477.694 285.013C475.621 289.12 477.669 292.456 482.269 292.456H533.491H587.103C591.703 292.456 593.291 289.396 590.662 285.621L572.449 259.587Z" fill="black" fill-opacity="0.06"/>
<path d="M576.35 240.936C569.85 239.401 565.825 232.888 567.36 226.388C568.895 219.889 575.408 215.864 581.907 217.399C588.407 218.934 592.432 225.447 590.897 231.947C589.362 238.446 582.849 242.471 576.35 240.936Z" fill="black" fill-opacity="0.06"/>
<path d="M619.814 175.291H327.342" stroke="black"/>
<path d="M459.29 60.9414H327.348" stroke="black"/>
<path d="M459.29 102.723H327.348" stroke="black"/>
<path d="M459.29 144.504H327.348" stroke="black"/>
<path d="M459.29 195.082H327.348" stroke="black"/>
<path d="M459.29 243.461H327.348" stroke="black"/>
<path d="M459.29 289.641H327.348" stroke="black"/>
<path d="M447.406 332.106H390.292" stroke="black"/>
<path d="M478.131 55.332H621.425V154.779H478.131V55.332Z" stroke="black"/>
<path d="M541.348 79.0246L523.117 128.713H518.487L538.382 75.867H541.601L541.348 79.0246ZM557.915 128.713L539.648 79.0246L539.395 75.867H542.614L562.545 128.713H557.915ZM554.66 110.057V113.904H526.698V110.057H554.66ZM594.776 121.091V72.9634H599.116V128.713H595.064L594.776 121.091ZM567.61 109.476V108.714C567.61 105.665 567.959 102.919 568.659 100.475C569.358 98.007 570.359 95.9018 571.661 94.1597C572.987 92.3933 574.579 91.0505 576.436 90.131C578.292 89.1873 580.391 88.7154 582.729 88.7154C585.02 88.7154 587.046 89.0905 588.807 89.8406C590.568 90.5907 592.075 91.6674 593.329 93.0709C594.607 94.4743 595.632 96.1438 596.403 98.0796C597.198 100.015 597.778 102.169 598.139 104.54V114.231C597.85 116.457 597.319 118.502 596.548 120.365C595.777 122.204 594.752 123.813 593.473 125.192C592.195 126.547 590.652 127.6 588.843 128.35C587.058 129.076 584.997 129.439 582.657 129.439C580.342 129.439 578.257 128.955 576.399 127.987C574.543 127.019 572.963 125.652 571.661 123.885C570.359 122.095 569.358 119.978 568.659 117.534C567.959 115.09 567.61 112.404 567.61 109.476ZM571.95 108.714V109.476C571.95 111.775 572.179 113.904 572.638 115.864C573.096 117.824 573.795 119.53 574.736 120.982C575.676 122.434 576.87 123.571 578.316 124.394C579.764 125.216 581.475 125.628 583.454 125.628C585.937 125.628 588.023 125.156 589.711 124.212C591.399 123.244 592.749 121.974 593.763 120.401C594.776 118.804 595.511 117.062 595.969 115.175V103.887C595.679 102.604 595.258 101.298 594.703 99.9669C594.148 98.6362 593.388 97.4142 592.424 96.3011C591.483 95.1638 590.278 94.2565 588.807 93.579C587.36 92.8773 585.6 92.5265 583.525 92.5265C581.524 92.5265 579.8 92.9377 578.353 93.7605C576.906 94.5832 575.7 95.7325 574.736 97.2085C573.795 98.6604 573.096 100.366 572.638 102.326C572.179 104.286 571.95 106.415 571.95 108.714Z" fill="black"/>
<path d="M129.3 368.013C129.723 366.993 130.251 366.024 130.974 365.166C133.725 361.899 137.356 359.582 140.908 357.28C144.16 355.173 147.273 352.876 150.552 350.813C155.743 347.549 161.785 344.066 164.937 338.601L171.262 346.844C174.436 350.98 174.057 356.819 170.375 360.513L134.464 396.524C132.307 398.686 128.614 397.076 128.739 394.03L129.794 368.467C129.634 368.323 129.469 368.17 129.3 368.013Z" fill="white"/>
<path d="M165.151 338.885L171.26 346.844C174.434 350.979 174.054 356.819 170.372 360.512L134.461 396.523C132.305 398.686 128.611 397.075 128.737 394.03L129.791 368.466L165.151 338.885Z" fill="white"/>
<path d="M132.111 398.022C131.588 398.022 131.053 397.913 130.538 397.687C129.047 397.037 128.164 395.627 128.231 394.008L129.287 368.444C129.299 368.172 129.52 367.963 129.79 367.963C129.797 367.963 129.804 367.963 129.811 367.963C130.09 367.974 130.305 368.209 130.293 368.485L129.237 394.049C129.177 395.479 130.078 396.392 130.941 396.768C131.803 397.144 133.088 397.183 134.101 396.168L170.012 360.157C173.5 356.66 173.863 351.067 170.858 347.15L164.75 339.192C164.581 338.97 164.624 338.655 164.844 338.487C165.063 338.318 165.381 338.359 165.551 338.58L171.659 346.539C174.97 350.855 174.57 357.014 170.728 360.866L134.817 396.877C134.064 397.63 133.104 398.022 132.111 398.022Z" fill="black"/>
<path d="M79.4363 256.851C99.7623 235.765 127.461 207.733 140.874 194.195C144.997 190.034 150.641 187.726 156.507 187.819C166.167 187.972 181.59 187.678 191.38 187.45C196.322 187.333 200.313 191.43 200.059 196.353C199.297 211.116 192.659 224.966 181.617 234.834L124.481 285.887L165.152 338.887C164.299 340.058 163.402 341.196 162.483 342.302C155.773 350.379 147.545 357.33 138.656 362.905C135.66 364.784 132.575 366.518 129.43 368.142C119.802 359.223 94.2645 326.132 76.6668 302.844C66.1425 288.909 67.3134 269.427 79.4363 256.851Z" fill="#305DFF"/>
<path d="M26.4932 400.442C27.273 399.922 27.966 399.283 28.5514 398.553L136.644 263.569C143.525 254.976 156.966 263.594 151.978 273.4L80.0319 414.819C79.8924 415.095 79.7437 415.369 79.5722 415.627C77.315 419.039 73.4822 421.108 69.3612 421.108H32.7982C27.2044 421.108 2.47385 421.487 1.36013 420.787C0.102335 419.995 0.399633 418.2 0.802127 417.858C5.06034 414.229 22.2716 403.264 26.4932 400.442Z" fill="white"/>
<path d="M69.3589 421.611H2.6705C1.46988 421.611 0.470502 420.872 0.120606 419.726C-0.227003 418.584 0.1915 417.413 1.1863 416.747L27.3873 399.238C27.6183 399.083 27.9316 399.144 28.0871 399.375C28.2426 399.605 28.1809 399.918 27.9499 400.071L1.74659 417.582C0.994203 418.084 0.911875 418.869 1.08339 419.434C1.25491 420 1.7626 420.607 2.66822 420.607H69.3566C73.4318 420.607 77.2738 418.449 79.3847 414.975L82.3393 410.116C82.4834 409.879 82.7944 409.804 83.0323 409.948C83.2701 410.091 83.3456 410.399 83.2015 410.636L80.2468 415.495C77.9553 419.266 73.7817 421.611 69.3589 421.611Z" fill="black"/>
<path d="M82.4849 410.201C71.478 408.127 29.9296 399.288 28.1069 398.928C34.6498 388.102 112.985 258.273 140.607 203.039L192.403 193.938C196.951 194.866 199.963 199.168 199.32 203.753C197.534 216.515 193.16 228.815 186.429 239.885L82.8394 410.265C82.7205 410.244 82.6015 410.224 82.4849 410.201Z" fill="#305DFF"/>
<path d="M85.3687 302.867C85.284 302.867 85.1971 302.844 85.1171 302.799C84.877 302.66 84.7946 302.352 84.9341 302.112C111.218 256.94 129.796 223.532 140.156 202.815C140.279 202.566 140.581 202.466 140.831 202.589C141.08 202.712 141.181 203.016 141.057 203.262C130.688 223.997 112.098 257.424 85.8055 302.616C85.7117 302.778 85.5425 302.867 85.3687 302.867Z" fill="black"/>
<path d="M119.504 350.462C119.415 350.462 119.326 350.439 119.244 350.389C119.006 350.245 118.93 349.937 119.075 349.7L141.966 312.049C142.111 311.812 142.422 311.736 142.659 311.88C142.897 312.024 142.973 312.332 142.829 312.569L119.937 350.22C119.841 350.375 119.674 350.462 119.504 350.462Z" fill="black"/>
<path d="M134.039 150.097C134.039 150.097 72.7293 185.078 94.0249 115.863C100.055 121.283 117.987 120.845 120.096 120.482L119.16 123.076C124.839 118.585 140.294 102.063 161.054 102.177C168.631 102.218 183.299 102.51 186.871 102.745C202.859 103.799 212.9 105.943 221.337 116.217C238.463 135.98 251.563 193.937 213.271 194.825L213.532 202.222C213.98 211.643 204.638 218.463 195.769 215.185L125.55 199.268C121.957 197.941 120.073 194.003 121.301 190.381L134.039 150.097Z" fill="white"/>
<path d="M196.53 215.945C196.482 215.945 196.432 215.938 196.384 215.922C196.121 215.843 195.858 215.754 195.597 215.658C195.336 215.562 195.204 215.272 195.3 215.012C195.396 214.752 195.686 214.62 195.947 214.716C196.189 214.805 196.434 214.887 196.679 214.962C196.944 215.042 197.095 215.325 197.013 215.589C196.946 215.806 196.745 215.945 196.53 215.945Z" fill="black"/>
<path d="M200.344 216.513C199.015 216.513 197.68 216.319 196.381 215.924C196.116 215.842 195.965 215.562 196.047 215.297C196.127 215.033 196.408 214.882 196.676 214.964C200.657 216.178 204.84 215.402 208.147 212.836C211.447 210.277 213.226 206.417 213.027 202.247L212.767 194.843C212.762 194.708 212.81 194.578 212.904 194.48C212.995 194.382 213.123 194.325 213.258 194.323C223.643 194.081 230.838 189.617 234.645 181.054C238.378 172.657 238.622 160.593 235.329 147.084C232.413 135.113 226.904 123.411 220.954 116.545C212.792 106.607 203.45 104.339 186.835 103.244C183.343 103.014 168.888 102.72 161.048 102.679C160.977 102.679 160.904 102.679 160.833 102.679C143.272 102.679 129.725 114.552 122.432 120.941C121.272 121.956 120.271 122.834 119.468 123.471C119.292 123.61 119.042 123.617 118.862 123.484C118.679 123.354 118.606 123.117 118.681 122.907L119.344 121.071C115.171 121.399 100.333 121.281 94.2844 116.73C88.199 136.842 88.6335 149.844 95.5743 155.38C107.196 164.648 133.521 149.812 133.786 149.662C133.967 149.559 134.191 149.577 134.353 149.707C134.516 149.837 134.58 150.052 134.518 150.25L121.778 190.536C120.63 193.921 122.352 197.537 125.69 198.789L134.898 200.876C135.167 200.938 135.339 201.207 135.277 201.478C135.215 201.748 134.943 201.919 134.673 201.857L125.432 199.763C125.411 199.759 125.389 199.752 125.368 199.745C121.494 198.312 119.493 194.131 120.817 190.228L133.176 151.147C129.361 153.184 116.714 159.466 105.897 159.468C101.788 159.468 97.9435 158.562 94.9454 156.17C87.5655 150.284 87.0921 136.676 93.5389 115.722C93.5892 115.558 93.7196 115.43 93.8865 115.384C94.0512 115.339 94.2296 115.38 94.3576 115.496C100.176 120.724 117.631 120.403 120.005 119.992C120.181 119.962 120.36 120.026 120.476 120.163C120.591 120.3 120.625 120.487 120.563 120.656L120.257 121.504C120.721 121.105 121.226 120.663 121.764 120.19C129.155 113.712 142.888 101.677 160.829 101.677C160.902 101.677 160.975 101.677 161.051 101.677C168.901 101.721 183.389 102.015 186.897 102.245C203.45 103.336 213.382 105.747 221.72 115.902C227.851 122.978 233.305 134.55 236.303 146.849C239.647 160.572 239.384 172.865 235.56 181.464C231.645 190.272 224.32 194.929 213.784 195.315L214.027 202.208C214.242 206.702 212.321 210.867 208.758 213.632C206.327 215.521 203.354 216.513 200.344 216.513Z" fill="black"/>
<path d="M135.797 144.589C135.745 144.589 135.69 144.58 135.637 144.561C135.374 144.475 135.23 144.19 135.319 143.925L137.307 137.992C137.394 137.73 137.679 137.586 137.945 137.675C138.208 137.764 138.352 138.047 138.263 138.311L136.275 144.244C136.204 144.454 136.01 144.589 135.797 144.589Z" fill="black"/>
<path d="M114.867 133.902C114.803 133.902 114.739 133.89 114.677 133.865C114.419 133.76 114.295 133.466 114.4 133.211L118.011 124.392C118.117 124.134 118.409 124.011 118.668 124.116C118.926 124.221 119.05 124.515 118.944 124.771L115.333 133.589C115.253 133.783 115.064 133.902 114.867 133.902Z" fill="black"/>
<path d="M134.496 119.198H171.722C172.255 119.198 172.722 119.547 172.875 120.056L187.019 167.586C187.248 168.355 186.672 169.126 185.867 169.126H148.641C148.108 169.126 147.641 168.777 147.488 168.269L133.344 120.738C133.117 119.969 133.693 119.198 134.496 119.198Z" fill="black"/>
<path d="M153.615 156.216C149.352 152.981 153.057 147.91 157.104 150.62C152.023 147.762 152.958 140.583 159.412 143.599C157.713 141.047 160.757 138.59 163.341 139.055C164.942 139.235 166.396 140.043 167.798 140.834C177.19 146.108 195.751 156.822 195.751 156.822C196.24 159.487 186.459 180.947 182.759 184.533C180.365 183.814 162.421 169.475 155.62 163.659C153.379 162.076 150.854 158.399 153.615 156.216Z" fill="white"/>
<path d="M182.763 185.035C182.715 185.035 182.665 185.028 182.619 185.014C179.999 184.229 161.212 169.099 155.298 164.04C153.724 162.936 151.963 160.771 151.906 158.7C151.879 157.764 152.206 156.923 152.853 156.236C150.836 154.416 150.902 152.199 151.886 150.825C152.496 149.975 153.53 149.347 154.774 149.338C153.322 147.595 152.986 145.444 153.733 143.998C154.369 142.766 155.931 141.874 158.488 142.691C158.326 141.918 158.476 141.131 158.941 140.424C159.853 139.039 161.742 138.257 163.434 138.56C165.129 138.749 166.682 139.623 168.052 140.396C177.339 145.611 195.824 156.279 196.009 156.387C196.137 156.46 196.226 156.587 196.252 156.731C196.812 159.795 186.745 181.376 183.116 184.893C183.02 184.984 182.894 185.035 182.763 185.035ZM154.806 150.355C153.891 150.355 153.141 150.798 152.704 151.407C151.899 152.529 151.963 154.327 153.921 155.814C154.044 155.908 154.118 156.054 154.12 156.209C154.122 156.364 154.051 156.51 153.93 156.608C153.221 157.169 152.89 157.842 152.912 158.67C152.958 160.319 154.458 162.222 155.915 163.246C163.03 169.329 179.571 182.471 182.638 183.94C186.324 179.916 195.22 160.276 195.275 157.123C193.112 155.876 176.275 146.167 167.555 141.27C166.268 140.545 164.811 139.723 163.288 139.552C161.964 139.315 160.473 139.929 159.782 140.973C159.439 141.491 159.172 142.322 159.835 143.318C159.961 143.505 159.945 143.754 159.796 143.925C159.647 144.096 159.405 144.146 159.201 144.053C156.999 143.024 155.289 143.177 154.628 144.459C153.878 145.91 154.662 148.428 156.942 149.931C157.091 150.013 157.237 150.102 157.388 150.203C157.612 150.353 157.678 150.654 157.537 150.882C157.395 151.113 157.097 151.19 156.86 151.056C156.711 150.974 156.569 150.885 156.43 150.796C155.856 150.488 155.307 150.355 154.806 150.355Z" fill="black"/>
<path d="M170.431 151.217C170.342 151.217 170.25 151.192 170.168 151.142C166.724 149.028 163.277 146.817 159.925 144.577C159.694 144.422 159.632 144.11 159.787 143.879C159.941 143.649 160.256 143.587 160.485 143.742C163.826 145.978 167.261 148.179 170.694 150.287C170.929 150.433 171.005 150.741 170.858 150.978C170.765 151.133 170.6 151.217 170.431 151.217Z" fill="black"/>
<path d="M166.081 157.644C165.98 157.644 165.877 157.614 165.788 157.55L156.924 151.227C156.697 151.065 156.645 150.753 156.807 150.527C156.97 150.301 157.283 150.249 157.509 150.41L166.373 156.734C166.6 156.896 166.652 157.208 166.49 157.434C166.394 157.571 166.238 157.644 166.081 157.644Z" fill="black"/>
<path d="M161.923 162.915C161.827 162.915 161.728 162.888 161.642 162.829C158.932 160.999 156.277 159.021 153.747 156.948C153.532 156.772 153.5 156.455 153.679 156.241C153.855 156.026 154.173 155.995 154.388 156.172C156.894 158.225 159.524 160.185 162.209 161.996C162.44 162.151 162.499 162.464 162.344 162.694C162.243 162.838 162.083 162.915 161.923 162.915Z" fill="black"/>
<path d="M211.156 195.338C200.997 195.338 190.937 192.108 182.698 186.061C182.473 185.896 182.425 185.582 182.59 185.358C182.755 185.135 183.07 185.087 183.294 185.251C193.373 192.648 206.237 195.739 218.588 193.736C218.865 193.689 219.121 193.878 219.167 194.152C219.212 194.425 219.025 194.683 218.751 194.729C216.23 195.137 213.69 195.338 211.156 195.338Z" fill="black"/>
<path d="M216.706 169.459C216.621 169.459 216.534 169.439 216.454 169.391L196.535 157.91C196.295 157.771 196.211 157.465 196.35 157.223C196.49 156.984 196.798 156.9 197.038 157.041L216.957 168.522C217.197 168.661 217.282 168.966 217.143 169.208C217.049 169.37 216.88 169.459 216.706 169.459Z" fill="black"/>
<path d="M210.325 164.366C210.092 164.366 209.881 164.201 209.833 163.964L204.468 137.873C204.411 137.602 204.587 137.337 204.859 137.28C205.134 137.223 205.399 137.399 205.454 137.673L210.817 163.761C210.874 164.033 210.698 164.297 210.426 164.354C210.391 164.361 210.357 164.366 210.325 164.366Z" fill="black"/>
<path d="M112.555 114.654L130.642 82.3431L118.599 78.6797L101.829 112.585L112.555 114.654Z" fill="black"/>
<path d="M120.096 120.482C120.096 120.482 103.502 122.768 94.0254 115.863L95.9601 111.661C95.9601 111.661 93.4582 109.193 95.9921 108.29C95.9921 108.29 93.6343 103.602 97.7302 103.324C97.7302 103.324 95.0065 97.2108 101.298 98.3719C101.298 98.3719 97.5175 91.474 104.568 93.1414C110.146 94.4599 111.31 96.2733 111.31 96.2733C111.31 96.2733 108.197 88.5884 112.099 89.3822C113.325 89.6309 115.198 90.4406 117.176 91.6679C123.533 95.6164 126.225 103.488 123.689 110.516L120.096 120.482Z" fill="white"/>
<path d="M113.61 121.363C107.863 121.363 99.5477 120.509 93.7252 116.269C93.5309 116.128 93.4645 115.87 93.5652 115.653L95.3604 111.755C94.9373 111.267 94.1689 110.21 94.393 109.205C94.4708 108.849 94.704 108.388 95.3306 108.037C94.9945 107.193 94.4479 105.416 95.1729 104.15C95.5433 103.504 96.1677 103.089 97.0344 102.909C96.7074 101.923 96.2591 99.989 97.2288 98.7595C97.86 97.9634 98.9348 97.6258 100.44 97.7467C99.9456 96.5857 99.3213 94.5646 100.268 93.326C101.007 92.3611 102.491 92.133 104.68 92.6508C107.46 93.3078 109.192 94.0993 110.244 94.7494C109.729 93.0454 109.219 90.5591 110.159 89.4322C110.47 89.0581 111.076 88.6612 112.197 88.8893C113.555 89.1653 115.515 90.0458 117.438 91.2411C123.942 95.2786 126.769 103.459 124.159 110.687L120.564 120.653C120.5 120.829 120.345 120.954 120.16 120.982C119.894 121.016 117.273 121.363 113.61 121.363ZM94.6537 115.696C103.207 121.623 117.477 120.279 119.723 120.021L123.215 110.347C125.664 103.561 123.011 95.8854 116.908 92.0942C115.078 90.9583 113.242 90.128 111.995 89.8748C111.231 89.7174 111.007 89.9888 110.934 90.0755C110.152 91.013 111.035 94.2567 111.776 96.0838C111.874 96.3233 111.771 96.5993 111.54 96.718C111.309 96.8366 111.026 96.7613 110.886 96.5423C110.879 96.5332 109.676 94.8657 104.451 93.6294C103.236 93.342 101.663 93.1618 101.073 93.9351C100.298 94.9501 101.32 97.3635 101.739 98.1299C101.832 98.301 101.819 98.5086 101.704 98.666C101.59 98.8234 101.396 98.9009 101.206 98.8644C99.598 98.5679 98.5277 98.7413 98.0223 99.38C97.2379 100.37 97.876 102.414 98.1893 103.119C98.2556 103.269 98.2442 103.443 98.1596 103.582C98.0749 103.723 97.9263 103.812 97.7639 103.823C96.9063 103.883 96.33 104.159 96.0487 104.645C95.4724 105.651 96.1379 107.453 96.4421 108.062C96.5061 108.189 96.513 108.34 96.4581 108.475C96.4055 108.607 96.2957 108.712 96.1608 108.76C95.7011 108.924 95.4358 109.145 95.3764 109.419C95.2346 110.055 96.0259 111.016 96.314 111.303C96.4627 111.451 96.5061 111.677 96.4169 111.869L94.6537 115.696Z" fill="black"/>
<path d="M116.316 107.772L109.402 121.137C108.222 123.421 105.483 124.417 103.104 123.432C100.538 122.369 99.3536 119.406 100.479 116.874L100.932 115.857C100.932 115.857 106.038 116.78 104.037 113.368C104.037 113.368 109.821 114.055 106.962 109.547C106.962 109.547 108.382 110.017 109.638 109.447C111.474 108.612 112.961 106.283 109.153 103.007C112.099 104.282 114.863 103.774 114.863 103.774C114.863 103.774 115.604 106.347 116.316 107.772Z" fill="black"/>
<path d="M111.488 104.789C111.408 104.789 111.324 104.768 111.248 104.727C108.229 103.09 105.206 101.363 102.267 99.5973C102.03 99.4536 101.952 99.1456 102.096 98.9084C102.24 98.6712 102.549 98.5936 102.787 98.7373C105.714 100.496 108.723 102.214 111.731 103.847C111.975 103.979 112.065 104.285 111.932 104.529C111.84 104.695 111.667 104.789 111.488 104.789Z" fill="black"/>
<path d="M109.699 111.742C109.619 111.742 109.539 111.724 109.464 111.685C105.457 109.575 101.528 107.216 97.7891 104.673C97.5604 104.518 97.501 104.205 97.6565 103.975C97.812 103.744 98.1253 103.685 98.3563 103.842C102.066 106.363 105.96 108.703 109.933 110.795C110.18 110.925 110.273 111.229 110.143 111.475C110.054 111.646 109.88 111.742 109.699 111.742Z" fill="black"/>
<path d="M106.158 114.967C106.076 114.967 105.993 114.947 105.916 114.906L97.2575 110.145C97.0128 110.01 96.9259 109.705 97.0585 109.463C97.1934 109.221 97.4999 109.132 97.7423 109.264L106.401 114.025C106.645 114.16 106.732 114.465 106.599 114.707C106.508 114.874 106.334 114.967 106.158 114.967Z" fill="black"/>
<path d="M114.343 104.657C114.078 104.657 113.854 104.449 113.84 104.18C113.826 103.902 114.039 103.667 114.318 103.653C115.004 103.617 115.519 102.866 115.567 102.189C115.615 101.509 115.349 100.754 114.757 99.8803C113.68 98.2926 112.102 97.0244 110.318 96.3081C110.06 96.2055 109.934 95.9112 110.039 95.6557C110.142 95.398 110.437 95.2725 110.693 95.3774C112.662 96.1667 114.4 97.565 115.592 99.3191C116.317 100.387 116.637 101.349 116.573 102.264C116.493 103.391 115.647 104.595 114.373 104.661C114.361 104.657 114.352 104.657 114.343 104.657Z" fill="black"/>
<path d="M113.324 80.872L126.03 84.4373C130.992 85.831 136.147 82.9454 137.544 77.9955L139.554 70.8718C140.952 65.9218 138.059 60.7803 133.096 59.3866L120.39 55.8213L113.324 80.872Z" fill="white"/>
<path d="M128.573 85.2903C127.679 85.2903 126.778 85.1672 125.895 84.9185L113.189 81.3532C113.061 81.3167 112.951 81.2323 112.887 81.116C112.821 80.9997 112.805 80.8628 112.841 80.7351L119.906 55.6844C119.981 55.4175 120.262 55.2601 120.528 55.3377L133.234 58.903C135.763 59.6124 137.865 61.2639 139.15 63.5495C140.435 65.8351 140.751 68.4857 140.04 71.0086L138.029 78.1324C137.318 80.6552 135.662 82.7515 133.371 84.0335C131.882 84.8661 130.238 85.2903 128.573 85.2903ZM113.946 80.5229L126.167 83.9514C128.438 84.5878 130.821 84.3049 132.879 83.1553C134.937 82.0033 136.422 80.1237 137.06 77.8586L139.07 70.7349C139.708 68.4698 139.424 66.0929 138.272 64.0399C137.117 61.987 135.233 60.5066 132.962 59.8702L120.74 56.4417L113.946 80.5229Z" fill="black"/>
<path d="M39.1482 12.4212C39.1482 12.4212 45.3251 2.64226 53.7546 6.00911C59.9087 8.46582 96.3871 33.6625 115.636 47.0888C122.755 52.0547 125.948 60.9691 123.594 69.311C120.768 79.3363 110.817 85.6229 100.522 83.8893L32.3675 72.4155C32.3675 72.4155 24.7933 70.6705 24.48 59.288C24.1644 47.91 39.1482 12.4212 39.1482 12.4212Z" fill="white"/>
<path d="M103.955 84.6812C102.794 84.6812 101.616 84.5854 100.434 84.3847L32.2793 72.9109C32.1696 72.8858 24.2935 70.9378 23.9733 59.3021C23.66 47.9424 38.0675 13.6785 38.6827 12.2254C38.6941 12.2003 38.7055 12.1752 38.7215 12.1524C38.7856 12.0521 45.2232 2.05871 53.9409 5.5419C60.0606 7.98721 95.4024 32.3627 115.923 46.6764C123.209 51.7586 126.486 60.9079 124.078 69.446C121.496 78.593 113.19 84.6812 103.955 84.6812ZM39.5928 12.6588C39.012 14.0389 24.6777 48.3051 24.9795 59.2793C25.2768 70.1052 32.1833 71.8616 32.4783 71.9301L100.603 83.397C110.672 85.0895 120.343 78.9763 123.108 69.1768C125.4 61.0494 122.28 52.338 115.346 47.5021C94.8581 33.2135 59.5918 8.88367 53.5658 6.47714C45.8544 3.3977 39.9908 12.0521 39.5928 12.6588Z" fill="black"/>
<path d="M60.227 43.8452C65.4801 25.2197 61.6647 7.85507 51.705 5.06034C41.7453 2.26561 29.4129 15.099 24.1597 33.7246C18.9065 52.3502 22.7219 69.7148 32.6816 72.5095C42.6413 75.3042 54.9738 62.4708 60.227 43.8452Z" fill="white"/>
<path d="M35.4473 73.3875C34.4639 73.3875 33.4942 73.2575 32.5452 72.9929C27.5414 71.5877 23.8755 66.6766 22.2221 59.1605C20.5938 51.7561 21.1107 42.6729 23.672 33.5874C28.9936 14.7253 41.6265 1.70953 51.8421 4.57455C62.0531 7.43957 66.0323 25.1178 60.713 43.98C55.8876 61.0902 45.0431 73.3875 35.4473 73.3875ZM48.8828 5.17675C39.7558 5.17675 29.3435 17.1911 24.6416 33.8589C22.1238 42.7892 21.6115 51.6968 23.2055 58.9438C24.7743 66.0789 28.1863 70.7255 32.8173 72.0234C33.6955 72.2698 34.592 72.3884 35.5021 72.3884C44.6292 72.3884 55.0414 60.374 59.7433 43.7062C64.9117 25.3779 61.2458 8.25619 51.5699 5.53944C50.6917 5.29765 49.793 5.17675 48.8828 5.17675Z" fill="black"/>
<path d="M50.0845 56.2542C50.0296 56.2542 49.9724 56.2451 49.9175 56.2268C44.9709 54.5001 41.1381 49.8672 40.3766 44.696C39.615 39.5249 41.9522 33.9887 46.1899 30.9161C49.0622 28.8358 52.815 27.8846 56.4741 28.3043C56.7508 28.3362 56.9497 28.5849 56.9177 28.8609C56.8857 29.1369 56.6433 29.3353 56.3597 29.3034C52.9408 28.9088 49.4533 29.7938 46.7822 31.7305C42.8373 34.5886 40.6624 39.7416 41.3714 44.55C42.0803 49.3608 45.6456 53.672 50.2491 55.2779C50.5121 55.3691 50.6493 55.6566 50.5578 55.9189C50.487 56.1242 50.2926 56.2542 50.0845 56.2542Z" fill="black"/>
<path d="M180.389 82.562L181.891 102.448C188.226 108.835 171.381 111.497 166.448 107.293C164.792 106.212 164.561 103.883 165.981 102.51L166.786 87.1401L180.389 82.562Z" fill="white"/>
<path d="M173.926 109.855C170.909 109.855 167.916 109.191 166.141 107.697C165.235 107.095 164.659 106.132 164.556 105.051C164.458 104.034 164.796 103.041 165.485 102.295L166.281 87.1149C166.292 86.9096 166.427 86.7316 166.624 86.6655L180.226 82.0874C180.373 82.0372 180.535 82.06 180.665 82.1444C180.796 82.2311 180.878 82.3702 180.889 82.5254L182.378 102.229C184.644 104.611 183.709 106.342 182.936 107.17C181.363 108.856 177.626 109.855 173.926 109.855ZM167.269 87.5072L166.482 102.535C166.475 102.66 166.42 102.781 166.329 102.87C165.766 103.415 165.485 104.175 165.558 104.955C165.633 105.74 166.056 106.44 166.72 106.873C166.738 106.885 166.754 106.899 166.77 106.912C170.221 109.853 179.705 109.159 182.195 106.486C182.554 106.102 183.643 104.932 181.527 102.802C181.443 102.717 181.392 102.606 181.383 102.487L179.931 83.2462L167.269 87.5072Z" fill="black"/>
<path d="M165.981 103.012C165.971 103.012 165.962 103.012 165.953 103.012C165.676 102.998 165.462 102.761 165.475 102.485L166.28 87.1149C166.292 86.9096 166.427 86.7316 166.623 86.6655L180.226 82.0874C180.372 82.0372 180.534 82.06 180.665 82.1444C180.795 82.2311 180.878 82.3702 180.889 82.5254L182.391 102.412C182.412 102.688 182.204 102.929 181.927 102.95C181.65 102.973 181.408 102.763 181.387 102.487L179.935 83.2462L167.27 87.5095L166.484 102.537C166.468 102.804 166.246 103.012 165.981 103.012Z" fill="black"/>
<path d="M194.296 78.6202C196.063 73.8482 195.281 68.1432 192.59 63.8731C190.346 60.3146 189.072 61.3981 183.947 56.1608C178.484 50.579 178.395 47.7802 175.479 47.5041C172.12 47.1871 168.005 50.4923 166.02 52.6274C159.4 60.1207 160.877 68.6223 163.249 73.8254C169.05 84.7905 188.983 92.7559 194.296 78.6202Z" fill="black"/>
<path d="M182.267 79.6743C185.134 80.9197 184.666 85.0348 182.237 86.5403C179.468 88.7734 175.562 86.2666 174.821 90.8492C171.93 96.7709 163.638 94.5879 158.979 92.097C154.95 89.9163 155.348 85.1557 157.063 81.4626C159.027 76.3325 160.992 71.2024 162.956 66.0723C166.343 68.8871 170.638 70.5956 175.038 70.8808C175.868 70.9355 176.865 71.0404 177.229 71.7863C178.025 74.4575 173.297 79.7632 176.707 81.4193C177.439 81.5402 177.75 80.9015 178.287 80.4977C179.404 79.6606 180.904 79.1131 182.267 79.6743Z" fill="white"/>
<path d="M168.039 95.1421C164.837 95.1421 161.338 93.9285 158.741 92.5394C154.393 90.1853 154.789 85.1647 156.607 81.2504L162.486 65.892C162.544 65.7414 162.672 65.6274 162.83 65.5863C162.987 65.5452 163.154 65.5817 163.28 65.6867C166.587 68.4354 170.776 70.1005 175.071 70.3811C175.858 70.4313 177.171 70.518 177.683 71.5695C177.694 71.5946 177.704 71.6197 177.713 71.6448C178.081 72.8789 177.495 74.4186 176.873 76.0473C175.911 78.577 175.426 80.1783 176.855 80.9333C177.063 80.9447 177.21 80.8238 177.518 80.5182C177.653 80.3836 177.806 80.233 177.985 80.0984C179.476 78.9762 181.106 78.6545 182.46 79.2111C182.463 79.2134 182.467 79.2134 182.469 79.2157C183.8 79.7951 184.626 80.9858 184.736 82.4844C184.864 84.2477 183.979 86.0406 182.531 86.953C181.328 87.9111 179.956 88.0639 178.744 88.1985C176.915 88.4038 175.707 88.5384 175.321 90.9312C175.314 90.9791 175.298 91.027 175.277 91.0704C174.399 92.8679 172.997 94.0882 171.11 94.6973C170.148 95.0075 169.109 95.1421 168.039 95.1421ZM163.179 66.8979L157.533 81.6427C155.893 85.1761 155.486 89.6356 159.218 91.6566C162.349 93.3309 167.264 94.8843 170.795 93.7415C172.389 93.2283 173.58 92.2018 174.335 90.694C174.865 87.6191 176.864 87.3956 178.63 87.1994C179.766 87.0717 180.939 86.9416 181.921 86.1524C181.937 86.1387 181.953 86.1273 181.971 86.1159C183.107 85.411 183.83 83.9466 183.73 82.5574C183.681 81.9028 183.402 80.7212 182.072 80.1395C180.631 79.551 179.158 80.4771 178.591 80.9037C178.467 80.9972 178.351 81.1112 178.229 81.2321C177.882 81.5766 177.409 82.051 176.624 81.9187C176.576 81.9119 176.53 81.8959 176.487 81.8754C174.033 80.6824 175.042 78.0318 175.931 75.6937C176.457 74.3137 176.999 72.888 176.759 71.9756C176.503 71.5216 175.723 71.4327 175.007 71.3871C170.731 71.1065 166.559 69.5189 163.179 66.8979Z" fill="black"/>
<path d="M176.825 85.5503C176.656 85.5503 176.493 85.4659 176.397 85.3131C176.251 85.0781 176.322 84.7679 176.56 84.6219C177.724 83.8965 179.116 83.6 180.475 83.7825C180.749 83.819 180.944 84.0722 180.907 84.3482C180.87 84.6219 180.626 84.8135 180.34 84.7793C179.228 84.6287 178.044 84.8842 177.09 85.475C177.008 85.5275 176.916 85.5503 176.825 85.5503Z" fill="black"/>
</svg>
