<svg width="520" height="444" viewBox="0 0 520 444" fill="none" xmlns="http://www.w3.org/2000/svg">
<path d="M501.177 1.00024H18.8245C8.97061 1.00024 0.982422 9.01545 0.982422 18.9027V342.85C0.982422 352.737 8.97061 360.752 18.8245 360.752H501.177C511.031 360.752 519.019 352.737 519.019 342.85V18.9027C519.019 9.01545 511.031 1.00024 501.177 1.00024Z" fill="white" stroke="black"/>
<path d="M501.177 1H18.8245C8.97061 1 0.982422 9.01521 0.982422 18.9025V342.849C0.982422 352.737 8.97061 360.752 18.8245 360.752H501.177C511.031 360.752 519.019 352.737 519.019 342.849V18.9025C519.019 9.01521 511.031 1 501.177 1Z" stroke="black"/>
<path d="M485.587 16.6428H34.4144C24.5605 16.6428 16.5723 24.658 16.5723 34.5453V307.954C16.5723 317.841 24.5605 325.857 34.4144 325.857H485.587C495.441 325.857 503.43 317.841 503.43 307.954V34.5453C503.43 24.658 495.441 16.6428 485.587 16.6428Z" stroke="black"/>
<path d="M194.027 182.697H34.5605V293.368H194.027V182.697Z" stroke="black"/>
<path d="M36.3438 164.616H472.864" stroke="black"/>
<path d="M213.83 40.6772H479.616" stroke="black"/>
<path d="M213.83 87.594H479.616" stroke="black"/>
<path d="M213.83 134.51H479.616" stroke="black"/>
<path d="M213.83 191.088H479.616" stroke="black"/>
<path d="M213.83 238.005H479.616" stroke="black"/>
<path d="M213.83 284.922H479.616" stroke="black"/>
<path d="M228.221 342.703H291.78" stroke="black"/>
<path d="M194.027 34.6921H34.5605V145.363H194.027V34.6921Z" stroke="black"/>
<path d="M84.8262 61.0585L64.5374 116.355H59.3848L81.5252 57.5446H85.1079L84.8262 61.0585ZM103.263 116.355L82.9342 61.0585L82.6524 57.5446H86.2351L108.416 116.355H103.263ZM99.6402 95.5932V99.8748H68.5228V95.5932H99.6402ZM144.284 107.872V54.3132H149.114V116.355H144.605L144.284 107.872ZM114.052 94.947V94.0988C114.052 90.7059 114.441 87.6496 115.219 84.9299C115.997 82.1833 117.111 79.8405 118.56 77.9018C120.036 75.9361 121.807 74.4417 123.874 73.4184C125.94 72.3682 128.275 71.8431 130.878 71.8431C133.427 71.8431 135.681 72.2605 137.642 73.0953C139.601 73.93 141.278 75.1282 142.673 76.6901C144.096 78.2519 145.236 80.1098 146.095 82.264C146.98 84.4183 147.625 86.8148 148.027 89.4538V100.238C147.705 102.716 147.114 104.991 146.256 107.064C145.397 109.111 144.257 110.902 142.834 112.436C141.412 113.944 139.694 115.116 137.681 115.951C135.695 116.758 133.401 117.162 130.798 117.162C128.221 117.162 125.9 116.624 123.833 115.547C121.767 114.47 120.009 112.948 118.56 110.982C117.111 108.99 115.997 106.634 115.219 103.914C114.441 101.194 114.052 98.2053 114.052 94.947ZM118.882 94.0988V94.947C118.882 97.5051 119.137 99.8748 119.647 102.056C120.157 104.237 120.935 106.135 121.982 107.751C123.028 109.367 124.357 110.632 125.967 111.548C127.577 112.463 129.482 112.921 131.684 112.921C134.447 112.921 136.769 112.396 138.647 111.346C140.526 110.269 142.028 108.855 143.157 107.105C144.284 105.328 145.102 103.389 145.612 101.288V88.7267C145.289 87.2996 144.82 85.8455 144.203 84.3644C143.585 82.8835 142.74 81.5236 141.667 80.2849C140.619 79.0193 139.278 78.0096 137.642 77.2555C136.031 76.4746 134.072 76.0842 131.764 76.0842C129.536 76.0842 127.618 76.5419 126.007 77.4575C124.397 78.373 123.055 79.6521 121.982 81.2947C120.935 82.9104 120.157 84.8088 119.647 86.9899C119.137 89.1711 118.882 91.5406 118.882 94.0988Z" fill="black"/>
<g clip-path="url(#clip0_109_13244)">
<path d="M446.471 102.525H301.529C293.239 102.525 286.518 109.335 286.518 117.736V428.264C286.518 436.665 293.239 443.475 301.529 443.475H446.471C454.761 443.475 461.482 436.665 461.482 428.264V117.736C461.482 109.335 454.761 102.525 446.471 102.525Z" fill="white" stroke="black"/>
<path d="M446.471 102.525H301.529C293.239 102.525 286.518 109.335 286.518 117.736V428.264C286.518 436.665 293.239 443.475 301.529 443.475H446.471C454.761 443.475 461.482 436.665 461.482 428.264V117.736C461.482 109.335 454.761 102.525 446.471 102.525Z" stroke="black"/>
<path d="M389.53 119.834H358.471V120.883H389.53V119.834Z" fill="black"/>
<path d="M382.8 143.439H298.941V202.187H382.8V143.439Z" stroke="black"/>
<path d="M327.173 159.267L315.963 190.123H313.116L325.349 157.306H327.329L327.173 159.267ZM337.36 190.123L326.128 159.267L325.972 157.306H327.952L340.207 190.123H337.36ZM335.358 178.538V180.927H318.165V178.538H335.358ZM360.026 185.39V155.503H362.695V190.123H360.203L360.026 185.39ZM343.321 178.177V177.704C343.321 175.811 343.536 174.105 343.966 172.588C344.396 171.055 345.012 169.748 345.812 168.666C346.628 167.569 347.607 166.735 348.748 166.164C349.89 165.578 351.18 165.285 352.619 165.285C354.027 165.285 355.273 165.518 356.355 165.984C357.438 166.449 358.365 167.118 359.136 167.99C359.922 168.861 360.552 169.898 361.026 171.1C361.516 172.302 361.872 173.639 362.094 175.112V181.13C361.916 182.512 361.59 183.782 361.115 184.939C360.641 186.081 360.011 187.08 359.225 187.936C358.439 188.778 357.49 189.431 356.378 189.897C355.28 190.348 354.013 190.573 352.574 190.573C351.151 190.573 349.868 190.273 348.726 189.672C347.584 189.071 346.613 188.222 345.812 187.125C345.012 186.013 344.396 184.698 343.966 183.181C343.536 181.663 343.321 179.995 343.321 178.177ZM345.99 177.704V178.177C345.99 179.605 346.131 180.927 346.413 182.144C346.695 183.361 347.125 184.42 347.703 185.322C348.281 186.223 349.015 186.93 349.905 187.441C350.795 187.951 351.848 188.207 353.063 188.207C354.591 188.207 355.873 187.914 356.911 187.328C357.949 186.727 358.78 185.938 359.403 184.961C360.026 183.97 360.478 182.888 360.759 181.716V174.706C360.582 173.91 360.322 173.098 359.981 172.272C359.64 171.446 359.173 170.687 358.58 169.996C358.001 169.289 357.26 168.726 356.355 168.305C355.466 167.869 354.383 167.652 353.108 167.652C351.877 167.652 350.817 167.907 349.927 168.418C349.038 168.929 348.296 169.642 347.703 170.559C347.125 171.461 346.695 172.52 346.413 173.737C346.131 174.954 345.99 176.276 345.99 177.704Z" fill="black"/>
<path d="M393.67 144.488H449.576" stroke="black"/>
<path d="M393.67 170.715H449.576" stroke="black"/>
<path d="M393.67 196.942H449.576" stroke="black"/>
<path d="M449.059 216.874H298.941V325.979H449.059V216.874Z" stroke="black"/>
<path d="M336.062 287.404C339.197 282.92 344.85 282.433 348.695 286.335L357.052 294.813C360.897 298.708 366.701 298.336 370.025 293.992L404.181 249.266C407.506 244.915 412.194 245.353 414.656 250.245L448.613 317.649C451.075 322.535 448.643 326.503 443.179 326.503H382.336H318.656C313.191 326.503 311.305 322.863 314.428 318.372L336.062 287.404Z" fill="black" fill-opacity="0.06"/>
<path d="M331.215 264.876C338.467 263.147 342.958 255.811 341.246 248.489C339.533 241.168 332.266 236.635 325.014 238.364C317.762 240.092 313.271 247.429 314.983 254.75C316.696 262.072 323.963 266.605 331.215 264.876Z" fill="black" fill-opacity="0.06"/>
<path d="M298.423 343.813H449.576" stroke="black"/>
<path d="M298.423 370.04H449.576" stroke="black"/>
<path d="M298.423 396.267H356.4" stroke="black"/>
<path d="M286 415.15H462" stroke="black"/>
<path d="M373.482 436.132C376.913 436.132 379.694 433.314 379.694 429.837C379.694 426.361 376.913 423.543 373.482 423.543C370.052 423.543 367.271 426.361 367.271 429.837C367.271 433.314 370.052 436.132 373.482 436.132Z" stroke="black"/>
</g>
<defs>
<clipPath id="clip0_109_13244">
<rect width="176" height="342" fill="white" transform="translate(286 102)"/>
</clipPath>
</defs>
</svg>
