<svg width="216" height="199" viewBox="0 0 216 199" fill="none" xmlns="http://www.w3.org/2000/svg">
<g clip-path="url(#clip0_109_12563)">
<path d="M206.808 10.6304H9.19191C4.87583 10.6304 1.37695 14.1292 1.37695 18.4453V137.796C1.37695 142.112 4.87583 145.611 9.19191 145.611H206.808C211.124 145.611 214.623 142.112 214.623 137.796V18.4453C214.623 14.1292 211.124 10.6304 206.808 10.6304Z" fill="white"/>
<path d="M206.808 10.6304H9.19191C4.87583 10.6304 1.37695 14.1292 1.37695 18.4453V137.796C1.37695 142.112 4.87583 145.611 9.19191 145.611H206.808C211.124 145.611 214.623 142.112 214.623 137.796V18.4453C214.623 14.1292 211.124 10.6304 206.808 10.6304Z" stroke="black"/>
<path d="M11.7954 21.0488C13.2837 21.0488 14.4902 19.8423 14.4902 18.354C14.4902 16.8657 13.2837 15.6592 11.7954 15.6592C10.3071 15.6592 9.10059 16.8657 9.10059 18.354C9.10059 19.8423 10.3071 21.0488 11.7954 21.0488Z" stroke="black"/>
<path d="M20.4189 21.0488C21.9072 21.0488 23.1137 19.8423 23.1137 18.354C23.1137 16.8657 21.9072 15.6592 20.4189 15.6592C18.9306 15.6592 17.7241 16.8657 17.7241 18.354C17.7241 19.8423 18.9306 21.0488 20.4189 21.0488Z" stroke="black"/>
<path d="M29.042 21.0488C30.5303 21.0488 31.7368 19.8423 31.7368 18.354C31.7368 16.8657 30.5303 15.6592 29.042 15.6592C27.5537 15.6592 26.3472 16.8657 26.3472 18.354C26.3472 19.8423 27.5537 21.0488 29.042 21.0488Z" stroke="black"/>
<path d="M79.1032 89.5852H9.25586V137.896H79.1032V89.5852Z" stroke="black"/>
<path d="M8.83105 27.5164H157.585" stroke="black"/>
<path d="M93.6714 43.6851H157.585" stroke="black"/>
<path d="M8.83105 43.832H79.8457" stroke="black"/>
<path d="M8.83105 60.001H157.585" stroke="black"/>
<path d="M8.83105 76.2922H157.585" stroke="black"/>
<path d="M85.0825 96.4824H157.842" stroke="black"/>
<path d="M85.0825 116.963H157.842" stroke="black"/>
<path d="M85.0825 137.444H157.842" stroke="black"/>
<path d="M207.438 23.7437H164.86V138.004H207.438V23.7437Z" stroke="black"/>
<path d="M179.557 73.3757L173.721 89.2276H172.239L178.608 72.3684H179.638L179.557 73.3757ZM184.86 89.2276L179.013 73.3757L178.932 72.3684H179.962L186.342 89.2276H184.86ZM183.818 83.2759V84.5031H174.867V83.2759H183.818ZM196.66 86.7959V71.4419H198.049V89.2276H196.752L196.66 86.7959ZM187.964 83.0905V82.8474C187.964 81.8746 188.076 80.9988 188.299 80.2189C188.524 79.4315 188.844 78.7599 189.26 78.2043C189.685 77.6405 190.195 77.212 190.789 76.9188C191.383 76.6181 192.055 76.4672 192.804 76.4672C193.537 76.4672 194.185 76.5868 194.749 76.8261C195.313 77.0654 195.795 77.4093 196.197 77.8566C196.606 78.3045 196.933 78.837 197.181 79.4546C197.435 80.0723 197.621 80.7595 197.737 81.5156V84.6077C197.644 85.3175 197.474 85.9702 197.227 86.5646C196.98 87.151 196.652 87.6647 196.243 88.1045C195.833 88.5367 195.34 88.8725 194.761 89.1118C194.19 89.3435 193.529 89.4594 192.781 89.4594C192.04 89.4594 191.372 89.3047 190.777 88.9959C190.183 88.6871 189.677 88.2511 189.26 87.6878C188.844 87.1165 188.524 86.4407 188.299 85.6613C188.076 84.8815 187.964 84.0245 187.964 83.0905ZM189.353 82.8474V83.0905C189.353 83.824 189.426 84.5031 189.573 85.1288C189.72 85.754 189.944 86.2978 190.245 86.7614C190.546 87.2243 190.928 87.587 191.391 87.8495C191.854 88.112 192.402 88.2435 193.035 88.2435C193.831 88.2435 194.498 88.0931 195.038 87.7919C195.579 87.483 196.011 87.0777 196.335 86.576C196.66 86.0666 196.895 85.511 197.042 84.9084V81.3076C196.949 80.8985 196.814 80.4814 196.637 80.0567C196.459 79.6325 196.216 79.2423 195.907 78.8871C195.606 78.5244 195.22 78.235 194.749 78.0189C194.286 77.7952 193.722 77.6831 193.058 77.6831C192.418 77.6831 191.866 77.8146 191.403 78.0771C190.94 78.3395 190.554 78.706 190.245 79.1771C189.944 79.6401 189.72 80.1844 189.573 80.8096C189.426 81.4348 189.353 82.1139 189.353 82.8474Z" fill="black"/>
</g>
<g clip-path="url(#clip1_109_12563)">
<path d="M65.3677 20.3267C62.2602 16.7584 57.5042 15.8821 53.8845 16.7512C49.3016 17.8507 46.8885 21.7033 45.1877 24.4205C42.1812 29.2233 43.505 31.0371 41.173 33.8101C37.0411 38.7208 30.9036 35.3846 25.9438 38.9115C18.3779 44.2937 16.7889 63.2905 26.5714 70.8411C33.0949 75.8759 42.257 73.3585 44.7495 72.6747C52.3154 70.5963 61.8364 64.4404 63.4433 55.7526C64.7707 48.5674 60.1879 42.4169 64.3631 36.4877C65.4272 34.9779 66.2803 34.5856 67.0955 32.6818C68.4157 29.5903 68.8522 24.3305 65.3677 20.3267Z" fill="#212121"/>
<path d="M91.6632 54.9808C91.3511 53.5827 91.077 52.2115 91.7786 50.9951L92.8156 49.1596C92.9815 48.8753 93.3423 47.7254 94.098 48.2599C94.6697 48.6648 94.7112 49.3234 94.0907 51.9038C93.7787 53.1994 94.033 53.957 94.6534 54.7955C94.6931 54.6048 94.7653 54.3888 94.8681 54.1639C95.3388 53.1364 96.2983 52.4112 97.4075 52.1845C98.7872 51.9002 101.009 51.6716 101.599 53.3199C102.01 54.468 101.532 56.487 99.4617 57.8078C98.9766 58.1173 96.4877 59.3031 96.4877 59.3031C88.8604 69.013 77.5413 76.3278 62.9181 60.928L59.3254 47.5779C75.7071 67.73 92.0239 56.5914 91.6632 54.9808Z" fill="white"/>
<path d="M79.453 70.215C79.6856 70.215 79.9165 70.2096 80.1473 70.1988C85.8358 69.9325 91.4178 66.375 96.74 59.6234C97.1873 59.4093 99.2199 58.434 99.6744 58.1442C101.828 56.7713 102.465 54.5669 101.972 53.1885C101.615 52.1916 100.52 51.1408 97.3262 51.7976C96.1178 52.0459 95.0934 52.8233 94.5614 53.8867C94.3305 53.3811 94.2782 52.8251 94.4784 51.9973C95.088 49.4619 95.1511 48.5208 94.3287 47.9377C93.986 47.6948 93.6884 47.7038 93.5009 47.7524C92.9814 47.8891 92.7109 48.465 92.5486 48.8087C92.5197 48.8699 92.4963 48.9238 92.4746 48.9598L91.434 50.8007C90.6386 52.1791 90.9849 53.7626 91.2717 55.042C91.1671 55.5314 89.01 57.4029 85.2857 58.4286C80.2123 59.8267 70.1358 60.2442 59.6355 47.3277C59.5165 47.182 59.3127 47.1388 59.1467 47.2252C58.979 47.3097 58.8942 47.5005 58.9429 47.6804L62.5356 61.0306C62.5518 61.0936 62.5861 61.1529 62.6312 61.1997C68.3106 67.1847 73.9665 70.215 79.453 70.215ZM99.1478 52.3806C100.271 52.3806 100.968 52.7405 101.224 53.4549C101.534 54.324 101.272 56.1828 99.247 57.4748C98.8664 57.7178 97.0016 58.6193 96.3144 58.9468C96.2585 58.9738 96.2098 59.0116 96.1719 59.0602C90.9813 65.6696 85.576 69.1515 80.1095 69.407C74.6663 69.6608 69.005 66.742 63.2733 60.7301L60.1712 49.2028C73.0053 63.8881 85.053 59.7386 88.5176 58.0669C90.4204 57.1491 92.2456 55.7654 92.0508 54.8944C91.7244 53.4333 91.5224 52.233 92.1229 51.1929L93.1618 49.3539C93.1888 49.3089 93.2249 49.2333 93.2664 49.1452C93.3421 48.985 93.5405 48.5603 93.7011 48.519C93.7498 48.5064 93.8327 48.5603 93.867 48.5837C94.2295 48.8411 94.2926 49.3665 93.7047 51.812C93.3476 53.2947 93.6974 54.1711 94.3341 55.0312C94.4279 55.1572 94.5866 55.2165 94.7381 55.1841C94.8914 55.15 95.0104 55.0312 95.0429 54.8782C95.079 54.7091 95.1421 54.5201 95.2305 54.3312C95.6417 53.4369 96.4857 52.7801 97.4885 52.5749C98.1162 52.4454 98.6699 52.3806 99.1478 52.3806Z" fill="#212121"/>
<path d="M95.8709 41.9978L91.8905 63.9062C91.5983 65.5113 92.1754 66.9419 93.1764 67.1002L94.8266 67.3629C95.8294 67.5231 96.8773 66.3498 97.1695 64.7465L101.15 42.8381L95.8709 41.9978Z" fill="#212121"/>
<path d="M95.0141 67.7749C96.1594 67.7749 97.2487 66.5369 97.5608 64.8166L101.541 42.9082C101.561 42.8039 101.536 42.6959 101.474 42.6077C101.413 42.5213 101.318 42.462 101.213 42.4458L95.934 41.6054C95.7211 41.5712 95.5191 41.7134 95.4813 41.9257L91.5008 63.8341C91.2988 64.9498 91.4756 66.0366 91.9769 66.742C92.2745 67.1613 92.6677 67.4204 93.115 67.4924L94.7652 67.7551C94.8482 67.7677 94.9312 67.7749 95.0141 67.7749ZM100.686 43.1655L96.778 64.6744C96.5291 66.042 95.6634 67.0947 94.8897 66.9705L93.2394 66.7078C93.005 66.67 92.7976 66.5279 92.6244 66.2831C92.2493 65.7559 92.1176 64.8724 92.2818 63.9762L96.1937 42.4494L100.686 43.1655Z" fill="#212121"/>
<path d="M100.798 44.7762L97.1696 64.7448C96.8774 66.3499 95.8295 67.5213 94.8268 67.3612L93.1765 67.0984C92.1737 66.9383 91.5984 65.5095 91.8906 63.9044L95.6149 43.3762L100.798 44.7762Z" fill="white"/>
<path d="M95.0142 67.7749C96.1595 67.7749 97.2488 66.5369 97.5608 64.8166L101.19 44.8481C101.226 44.6447 101.101 44.4486 100.903 44.3946L95.7194 42.9964C95.6112 42.9676 95.4976 42.9856 95.4038 43.0432C95.31 43.1026 95.2451 43.198 95.2252 43.3077L91.5009 63.8359C91.2989 64.9516 91.4756 66.0384 91.977 66.7438C92.2746 67.1631 92.6678 67.4222 93.1151 67.4942L94.7653 67.7569C94.8483 67.7677 94.9313 67.7749 95.0142 67.7749ZM100.344 45.064L96.7799 64.6745C96.531 66.042 95.6653 67.0947 94.8916 66.9706L93.2413 66.7078C93.0069 66.6701 92.7995 66.5279 92.6263 66.2832C92.2512 65.7559 92.1195 64.8724 92.2836 63.9763L95.9322 43.8728L100.344 45.064Z" fill="#212121"/>
<path d="M95.79 56.7678C96.5132 57.1475 97.7667 57.4606 99.3971 57.1097C101.107 56.7427 102.01 54.4699 101.599 53.3219C101.011 51.6808 98.8092 51.9003 97.4276 52.181C96.3076 52.4096 95.0037 53.2319 94.6952 54.0507C94.2245 55.2995 94.4355 56.0553 95.79 56.7678Z" fill="white"/>
<path d="M98.3346 58.8263C98.3978 58.8263 98.4609 58.8119 98.5222 58.7795C99.4096 58.3063 99.6314 58.1713 99.6783 58.1425C101.826 56.7623 102.465 54.5598 101.974 53.1886C101.938 53.086 101.828 52.8611 101.828 52.8611C101.175 51.6735 99.6693 51.319 97.3481 51.794C96.1884 52.0298 94.7023 52.9079 94.3235 53.912C93.7572 55.4127 94.1287 56.3431 95.6041 57.1186C95.972 57.313 96.9964 57.7484 98.5673 57.6243C98.7855 57.6063 98.9496 57.4155 98.9316 57.1978C98.9136 56.9801 98.7242 56.8163 98.5042 56.8343C97.5573 56.9099 96.6122 56.7533 95.9738 56.4168C94.8574 55.8284 94.6446 55.3084 95.0666 54.1909C95.3065 53.5539 96.4698 52.7819 97.505 52.5696C99.4456 52.1737 100.661 52.3951 101.119 53.2246C101.119 53.2246 101.195 53.3794 101.222 53.4531C101.532 54.3187 101.269 56.1739 99.2436 57.4749C99.2418 57.4767 99.0615 57.5901 98.1453 58.0795C97.9523 58.1821 97.8783 58.4232 97.9811 58.6158C98.0551 58.7507 98.1922 58.8263 98.3346 58.8263Z" fill="#212121"/>
<path d="M47.9453 97.6855C47.9453 97.6855 39.7175 100.743 36.4927 98.1678C33.2662 95.5928 41.494 91.2471 43.4292 91.5692C45.3644 91.8913 47.9453 97.6855 47.9453 97.6855Z" fill="white"/>
<path d="M40.3523 99.5965C43.8855 99.5965 47.8461 98.1461 48.0842 98.0579C48.187 98.0202 48.2699 97.941 48.3114 97.8402C48.3547 97.7394 48.3529 97.6261 48.3078 97.5253C48.0355 96.9117 45.579 91.5259 43.4941 91.1786C41.7915 90.8961 36.646 93.4621 35.5729 95.859C35.1292 96.8487 35.3673 97.779 36.2438 98.4772C37.2809 99.3068 38.7742 99.5965 40.3523 99.5965ZM47.4024 97.4551C45.7359 98.0148 39.3622 99.951 36.7398 97.86C36.141 97.3813 36.0003 96.8487 36.2979 96.1829C37.2448 94.065 42.109 91.7544 43.3625 91.9614C44.5456 92.1575 46.3852 95.2832 47.4024 97.4551Z" fill="#212121"/>
<path d="M89.29 163.306L81.5456 176.825L77.3523 171.033L84.1283 157.834L89.29 163.306Z" fill="white"/>
<path d="M81.5455 177.223C81.5527 177.223 81.56 177.223 81.5672 177.223C81.7024 177.216 81.8233 177.14 81.8918 177.023L89.6345 163.504C89.721 163.353 89.6994 163.162 89.5786 163.036L84.4168 157.564C84.3284 157.47 84.2004 157.424 84.0723 157.443C83.9443 157.461 83.8342 157.541 83.7747 157.656L76.9988 170.853C76.9302 170.986 76.9429 171.145 77.0312 171.265L81.2263 177.059C81.2984 177.162 81.4193 177.223 81.5455 177.223ZM88.7976 163.365L81.5058 176.097L77.8158 170.999L84.2238 158.518L88.7976 163.365Z" fill="#212121"/>
<path d="M84.2275 174.763C82.1859 178.963 77.0169 189.15 72.0373 194.032C70.8235 195.223 68.7692 194.669 68.3346 193.028C66.7763 187.147 65.7375 174.894 71.5449 165.239C71.5449 165.239 74.3061 164.916 79.4679 165.883L78.3191 170.711L78.9539 170.259C79.908 169.579 81.2029 169.636 82.0939 170.398L83.5818 171.67C84.4764 172.435 84.7433 173.705 84.2275 174.763Z" fill="white"/>
<path d="M70.4878 195.068C71.1642 195.068 71.8152 194.805 72.3166 194.314C77.0528 189.672 82.036 180.181 84.5862 174.936C85.1796 173.716 84.873 172.249 83.8414 171.366L82.3534 170.094C81.3903 169.269 80.025 169.158 78.9483 169.788L79.8555 165.971C79.8807 165.865 79.8609 165.755 79.8014 165.663C79.7419 165.571 79.6481 165.51 79.5417 165.489C74.3799 164.522 71.615 164.828 71.4996 164.841C71.377 164.855 71.2688 164.925 71.2056 165.032C65.3441 174.779 66.4028 187.278 67.952 193.127C68.1919 194.033 68.8773 194.723 69.7844 194.971C70.0171 195.036 70.2534 195.068 70.4878 195.068ZM80.4362 170.18C80.9358 170.18 81.4336 170.354 81.8358 170.698L83.3237 171.97C84.0812 172.618 84.3067 173.696 83.8702 174.592C81.3434 179.791 76.4089 189.193 71.7593 193.751C71.2886 194.212 70.6285 194.384 69.9937 194.21C69.3624 194.037 68.8863 193.558 68.7203 192.929C67.2126 187.235 66.1755 175.114 71.7828 165.618C72.4645 165.571 74.948 165.48 78.9862 166.199L77.9347 170.621C77.8968 170.781 77.9618 170.948 78.1006 171.042C78.2377 171.134 78.4181 171.132 78.5533 171.035L79.1882 170.583C79.5615 170.313 79.9998 170.18 80.4362 170.18Z" fill="#212121"/>
<path d="M71.2218 192.673C71.2687 192.673 71.3156 192.664 71.3625 192.648C71.5681 192.571 71.6709 192.342 71.5934 192.137C67.1873 180.521 73.1372 166.822 73.1985 166.685C73.2869 166.486 73.1967 166.252 72.9947 166.162C72.7945 166.074 72.5601 166.164 72.4699 166.365C72.4086 166.505 66.327 180.493 70.8485 192.418C70.9098 192.576 71.0613 192.673 71.2218 192.673Z" fill="#212121"/>
<path d="M81.2227 181.016C81.3525 181.016 81.4806 180.953 81.5563 180.836C81.6754 180.653 81.6231 180.406 81.4391 180.287L77.5669 177.783C77.3829 177.664 77.1358 177.716 77.0168 177.9C76.8977 178.083 76.95 178.33 77.134 178.448L81.0062 180.953C81.0748 180.995 81.1487 181.016 81.2227 181.016Z" fill="#212121"/>
<path d="M79.2873 184.448C79.4064 184.448 79.5236 184.394 79.603 184.293C79.7364 184.119 79.704 183.87 79.529 183.737L75.9796 181.02C75.8065 180.887 75.5558 180.919 75.4223 181.094C75.2888 181.268 75.3213 181.517 75.4963 181.65L79.0457 184.367C79.1178 184.421 79.2026 184.448 79.2873 184.448Z" fill="#212121"/>
<path d="M113.809 163.628C113.809 163.95 120.906 179.4 120.906 179.4L112.841 180.045L107.356 166.847L113.809 163.628Z" fill="white"/>
<path d="M112.841 180.442C112.852 180.442 112.863 180.442 112.873 180.44L120.939 179.796C121.069 179.785 121.184 179.713 121.249 179.602C121.314 179.49 121.321 179.353 121.267 179.237C118.528 173.273 114.403 164.216 114.199 163.56C114.179 163.45 114.114 163.351 114.017 163.292C113.9 163.22 113.753 163.212 113.631 163.274L107.178 166.493C106.992 166.586 106.909 166.808 106.988 167L112.473 180.197C112.536 180.345 112.682 180.442 112.841 180.442ZM120.309 179.051L113.099 179.627L107.867 167.036L113.602 164.175C114.038 165.253 115.49 168.557 120.309 179.051Z" fill="#212121"/>
<path d="M113.486 176.183C113.486 176.183 115.099 172.32 119.294 174.252C119.294 174.252 126.993 185.348 129.854 194.509C130.663 197.1 127.996 199.434 125.518 198.318C119.716 195.705 110.622 190.219 105.421 180.047C105.421 180.047 107.033 175.861 109.614 173.93L113.486 176.183Z" fill="white"/>
<path d="M126.829 199C127.679 199 128.514 198.691 129.19 198.095C130.254 197.156 130.655 195.738 130.234 194.392C127.388 185.277 119.698 174.139 119.62 174.027C119.581 173.97 119.525 173.923 119.46 173.892C118.051 173.243 116.756 173.14 115.615 173.585C114.374 174.067 113.651 175.069 113.326 175.631L109.816 173.588C109.679 173.507 109.506 173.518 109.378 173.613C106.736 175.591 105.12 179.73 105.051 179.904C105.012 180.009 105.017 180.127 105.067 180.226C110.182 190.23 118.922 195.783 125.356 198.68C125.832 198.894 126.333 199 126.829 199ZM119.029 174.567C119.765 175.643 126.8 186.06 129.475 194.627C129.801 195.671 129.489 196.771 128.663 197.501C127.83 198.237 126.689 198.412 125.682 197.958C119.4 195.129 110.88 189.724 105.857 180.028C106.171 179.276 107.582 176.091 109.647 174.411L113.286 176.528C113.385 176.586 113.505 176.599 113.613 176.563C113.721 176.527 113.809 176.446 113.853 176.34C113.858 176.325 114.487 174.873 115.91 174.324C116.816 173.97 117.866 174.052 119.029 174.567Z" fill="#212121"/>
<path d="M127.488 195.921C127.82 195.921 128.014 195.896 128.063 195.889C128.279 195.856 128.431 195.655 128.398 195.439C128.366 195.223 128.164 195.073 127.949 195.104C127.865 195.115 119.296 196.11 107.679 180.134C107.549 179.956 107.302 179.917 107.124 180.046C106.947 180.174 106.907 180.422 107.035 180.6C117.391 194.841 125.325 195.921 127.488 195.921Z" fill="#212121"/>
<path d="M120.908 187.201C120.977 187.201 121.045 187.183 121.108 187.147L124.98 184.894C125.17 184.784 125.235 184.541 125.123 184.352C125.013 184.163 124.769 184.099 124.58 184.21L120.708 186.463C120.518 186.573 120.453 186.816 120.565 187.005C120.637 187.131 120.771 187.201 120.908 187.201Z" fill="#212121"/>
<path d="M118.971 184.304C119.034 184.304 119.099 184.289 119.159 184.257L123.354 182.004C123.547 181.9 123.619 181.66 123.516 181.468C123.412 181.275 123.172 181.203 122.979 181.306L118.784 183.559C118.591 183.663 118.519 183.903 118.621 184.095C118.693 184.228 118.831 184.304 118.971 184.304Z" fill="#212121"/>
<path d="M72.5132 85.7297C72.5132 85.7297 93.5408 89.4762 108.694 105.329C112.52 109.331 113.87 115.091 112.229 120.373C108.864 131.209 101.534 150.998 89.288 165.881L79.9312 157.834C79.9312 157.834 82.1892 139.165 88.3195 127.576C94.4498 115.988 58.6384 90.8798 58.6384 90.8798L72.5132 85.7297Z" fill="#305DFF"/>
<path d="M116.39 166.525L105.421 169.745C105.421 169.745 85.4177 127.576 79.6102 121.46C73.8028 115.343 62.5107 105.365 50.573 101.824C38.6353 98.2827 38.6353 89.2711 38.6353 89.2711L58.9613 83.4768C58.9613 83.4768 87.3529 95.7095 96.7079 109.551C106.067 123.392 116.39 166.525 116.39 166.525Z" fill="#305DFF"/>
<path d="M116.28 166.471C116.311 166.471 116.343 166.468 116.374 166.46C116.587 166.408 116.719 166.194 116.666 165.982C115.59 161.561 105.883 122.413 97.0382 109.33C92.1632 102.117 82.1047 95.3711 74.5262 90.9805C74.3368 90.8707 74.0933 90.9355 73.9833 91.1244C73.8733 91.3134 73.9382 91.5563 74.1276 91.666C81.634 96.0135 91.5896 102.684 96.3799 109.772C105.147 122.741 114.819 161.762 115.894 166.169C115.939 166.349 116.102 166.471 116.28 166.471Z" fill="#212121"/>
<path d="M105.421 170.14C105.478 170.14 105.536 170.128 105.59 170.103C105.789 170.009 105.873 169.773 105.78 169.575C104.963 167.851 85.6826 127.281 79.8986 121.188C76.4629 117.571 64.2041 105.455 50.6864 101.444C40.2583 98.351 39.1617 91.1406 39.0463 89.5661L58.9323 83.8978C59.9333 84.3369 66.5812 87.297 74.1255 91.666C74.3148 91.7758 74.5583 91.711 74.6683 91.5221C74.7783 91.3331 74.7134 91.0902 74.524 90.9805C66.3305 86.2353 59.1884 83.1438 59.1163 83.1132C59.0315 83.0772 58.9377 83.07 58.8493 83.0952L38.5233 88.8895C38.3519 88.9381 38.2347 89.0928 38.2347 89.271C38.2347 89.3645 38.3736 98.6209 50.4556 102.205C63.7839 106.159 75.9164 118.152 79.3161 121.733C85.0135 127.734 104.856 169.493 105.056 169.914C105.129 170.058 105.271 170.14 105.421 170.14Z" fill="#212121"/>
<path d="M30.2378 54.2788C36.2887 43.8131 50.6107 43.0088 50.6107 43.0088L60.5429 44.5995C65.3746 45.0548 70.118 52.4973 71.2867 57.1975C68.5381 69.5562 71.2037 76.6622 79.1538 85.978C79.1538 85.978 75.7343 95.6663 62.7901 94.8655C49.846 94.0647 41.2178 91.846 36.249 96.2565C32.972 99.1644 36.7107 76.8278 41.1691 59.4054L30.2378 54.2788Z" fill="white"/>
<path d="M35.7351 96.9115C35.9479 96.9115 36.2094 96.8215 36.5124 96.5516C40.2368 93.246 46.2931 93.8128 54.676 94.5956C57.1018 94.8223 59.8522 95.0796 62.765 95.2596C75.8534 96.0675 79.4929 86.2083 79.5272 86.1093C79.5741 85.9762 79.547 85.8286 79.4551 85.7207C71.0884 75.9172 69.1261 68.741 71.6727 57.2839C71.6853 57.2245 71.6853 57.1615 71.6709 57.1021C70.4391 52.1536 65.5064 44.6679 60.5772 44.2036L50.6721 42.6165C50.6433 42.6111 50.6162 42.6111 50.5874 42.6129C50.4413 42.6219 35.9804 43.5522 29.8916 54.0808C29.8356 54.1762 29.823 54.2914 29.8573 54.3975C29.8916 54.5037 29.9673 54.5901 30.0683 54.6369L40.7021 59.6231C37.5513 72.0196 32.8241 95.2686 35.3401 96.7981C35.4429 96.8611 35.5764 96.9115 35.7351 96.9115ZM45.5771 93.201C41.5587 93.201 38.3737 93.8416 35.9858 95.9596C35.8162 96.1107 35.7369 96.1161 35.7369 96.1161C35.708 96.0927 34.6313 95.2956 36.507 83.5235C37.6414 76.3995 39.5298 67.4184 41.5551 59.5008C41.602 59.3172 41.5119 59.1247 41.3387 59.0437L30.8041 54.1042C36.6405 44.5581 49.7577 43.4658 50.5946 43.4065L60.4817 44.99C65.0645 45.4218 69.669 52.4757 70.881 57.2029C68.0007 70.2597 71.4004 77.4558 78.6994 86.0536C78.1168 87.4715 74.3961 95.1822 62.8173 94.4678C59.9153 94.2879 57.1721 94.0323 54.7518 93.8056C51.3142 93.4853 48.259 93.201 45.5771 93.201Z" fill="#212121"/>
<path d="M72.502 82.5844L65.0965 80.1515L59.8897 82.9857C59.8897 82.9857 30.2356 82.4728 41.0317 60.1686C41.0786 60.0714 30.5152 59.1123 30.5152 59.1123C30.5152 59.1123 21.694 88.7619 59.4929 85.2962C59.4929 85.2962 61.4876 85.7263 63.9134 84.1679C66.3374 82.6078 71.1078 84.679 72.502 82.5844Z" fill="white"/>
<path d="M53.6388 85.9745C55.4838 85.9745 57.4298 85.8809 59.4751 85.6955C59.8592 85.7603 61.8107 85.9907 64.1283 84.5007C65.1563 83.8403 66.729 83.9015 68.2512 83.9609C70.163 84.0346 71.9683 84.1066 72.834 82.8038C72.9026 82.7013 72.9188 82.5717 72.8791 82.4547C72.8394 82.3378 72.7456 82.246 72.6284 82.2082L65.223 79.7753C65.1202 79.7411 65.0048 79.7519 64.9092 79.8041L59.7961 82.5861C58.4831 82.5411 45.108 81.9005 40.5792 74.5569C38.323 70.8986 38.5971 66.1175 41.3926 60.3412C41.4485 60.2242 41.4449 60.0857 41.38 59.9723C41.2429 59.7312 41.2177 59.6862 30.5551 58.7181C30.3639 58.7001 30.1925 58.8189 30.1384 59.0006C30.1042 59.1176 26.7604 70.7007 33.2604 78.6075C37.2823 83.5056 44.125 85.9745 53.6388 85.9745ZM59.4913 84.8984C59.4787 84.8984 59.4679 84.8984 59.4552 84.9002C47.1171 86.032 38.5087 83.7449 33.87 78.1036C28.2195 71.2297 30.3386 61.4065 30.8112 59.5369C34.2163 59.8482 38.9326 60.2944 40.444 60.4762C37.7386 66.2992 37.5547 71.1739 39.8975 74.9744C44.8681 83.0306 59.2695 83.3725 59.8809 83.3832C59.9476 83.3868 60.018 83.3671 60.0775 83.3347L65.1328 80.5833L71.7681 82.7624C71.0016 83.2753 69.6724 83.2231 68.2782 83.1691C66.6334 83.1043 64.9344 83.0396 63.6954 83.8349C61.4337 85.2889 59.5923 84.9128 59.5743 84.9092C59.549 84.902 59.5202 84.8984 59.4913 84.8984Z" fill="#212121"/>
<path d="M42.6535 62.0361L28.5154 59.659C27.9545 59.3621 32.4147 50.7787 33.4842 51.3635C33.7583 51.5129 38.4801 55.5725 38.4801 55.5725L43.6328 56.5838L42.6535 62.0361Z" fill="white"/>
<path d="M42.6535 62.432C42.8429 62.432 43.0106 62.297 43.0448 62.1045L44.0242 56.6521C44.0621 56.4362 43.9196 56.2311 43.7032 56.1915C43.4885 56.1519 43.2811 56.2958 43.2414 56.5118L42.3306 61.5773L28.9068 59.3207C29.327 57.9442 32.7231 52.3244 33.7998 50.8993C33.9315 50.7247 33.8972 50.4764 33.7223 50.3432C33.5473 50.2119 33.2984 50.2461 33.165 50.4206C32.5247 51.2682 27.8355 58.565 28.0825 59.677C28.115 59.8228 28.2016 59.9397 28.3278 60.0063C28.3657 60.0261 28.4054 60.0405 28.4487 60.0477L42.5868 62.4248C42.6102 62.4302 42.6318 62.432 42.6535 62.432Z" fill="#212121"/>
<path d="M106.559 19.4164L85.3744 24.212L76.2592 28.1348L71.9199 31.4944L71.8892 31.5214C71.0794 32.0774 70.6213 33.9506 70.798 36.1244C70.973 38.2729 71.7377 40.0328 72.616 40.4809L72.5836 40.4827L77.1628 43.0019L86.7307 45.3214L108.62 46.4856L130.579 60.4206L130.745 60.4944C125.238 56.9153 120.547 45.6345 119.433 31.982C118.32 18.344 121.115 6.49455 125.96 2.10028L125.956 2.09668L106.804 19.1969L106.559 19.4164Z" fill="white"/>
<path d="M130.745 60.892C130.885 60.892 131.021 60.8164 131.093 60.6868C131.192 60.5051 131.136 60.2766 130.961 60.1632C125.385 56.5373 120.91 45.1989 119.828 31.9495C118.747 18.7217 121.319 6.84353 126.227 2.39347C126.306 2.32149 126.353 2.22252 126.357 2.11636C126.36 2.01019 126.322 1.90762 126.25 1.83024C126.102 1.67189 125.852 1.6575 125.691 1.80145L106.541 18.9017C106.498 18.9413 106.465 18.9863 106.444 19.0366L85.2879 23.825C85.2644 23.8304 85.241 23.8376 85.2175 23.8484L76.1024 27.7712C76.0717 27.7838 76.0428 27.8018 76.0158 27.8216L71.644 31.2082C70.7133 31.8704 70.2137 33.8534 70.4013 36.1567C70.5781 38.3214 71.3283 40.1317 72.2914 40.7525C72.3185 40.7831 72.351 40.8101 72.3888 40.8316L76.9681 43.3509C76.9987 43.3671 77.0312 43.3815 77.0655 43.3887L86.6351 45.7064C86.6586 45.7118 86.6838 45.7154 86.7073 45.7172L108.492 46.8742L130.366 60.7552C130.382 60.766 130.398 60.7732 130.415 60.7822L130.579 60.856C130.633 60.8812 130.689 60.892 130.745 60.892ZM123.063 5.20962C119.73 11.0794 118.145 21.1132 119.034 32.0143C119.931 42.9874 123.157 52.7009 127.439 57.9589L108.83 46.149C108.772 46.113 108.705 46.0915 108.637 46.0879L86.783 44.9272L77.3017 42.6293L72.892 40.2036C72.865 40.173 72.8307 40.1479 72.791 40.1281C72.1472 39.7988 71.3662 38.271 71.1877 36.0919C71.0073 33.8696 71.5267 32.2464 72.1075 31.847C72.1201 31.838 72.1345 31.8272 72.1454 31.8164L72.176 31.7894L76.4558 28.4784L85.4899 24.5916L106.64 19.8032C106.768 19.7744 106.867 19.6862 106.916 19.5765C106.968 19.5603 107.019 19.5333 107.062 19.4937L123.063 5.20962Z" fill="#212121"/>
<path d="M119.407 32.0405C118.015 15.1575 122.638 0.999019 129.734 0.41651C136.83 -0.165999 143.711 13.0481 145.103 29.931C146.495 46.8139 141.872 60.9725 134.776 61.555C127.68 62.1375 120.799 48.9234 119.407 32.0405Z" fill="white"/>
<path d="M134.319 61.9697C134.472 61.9697 134.628 61.9643 134.781 61.9517C136.611 61.8096 138.309 60.8379 139.825 59.0618C144.291 53.8362 146.52 42.4114 145.503 29.9556C144.832 21.7393 142.854 14.1114 139.93 8.47909C136.954 2.74423 133.324 -0.260862 129.727 0.0180534C127.897 0.16021 126.2 1.13192 124.683 2.90798C120.217 8.1336 117.988 19.5583 119.005 32.0142C119.676 40.2323 121.655 47.8584 124.578 53.4907C127.428 58.9808 130.871 61.9697 134.319 61.9697ZM144.711 30.0204C145.712 42.2765 143.557 53.4745 139.221 58.5471C137.847 60.1559 136.332 61.0358 134.72 61.16C127.859 61.689 121.157 48.589 119.799 31.9476C118.798 19.6915 120.953 8.49349 125.289 3.42082C126.663 1.81211 128.178 0.932177 129.79 0.808014C136.655 0.273576 143.353 13.3808 144.711 30.0204Z" fill="#212121"/>
<path d="M125.855 31.5165C125.55 27.8212 126.562 24.7222 128.114 24.5947C129.667 24.4673 131.172 27.3596 131.477 31.0549C131.782 34.7502 130.77 37.8492 129.218 37.9766C127.665 38.1041 126.159 35.2118 125.855 31.5165Z" fill="white"/>
<path d="M129.122 38.3752C129.161 38.3752 129.201 38.3734 129.242 38.3698C129.728 38.332 130.171 38.0837 130.557 37.6302C131.585 36.4264 132.101 33.837 131.872 31.0316C131.547 27.0584 129.897 24.0569 128.086 24.1937C127.601 24.2315 127.158 24.4798 126.772 24.9333C125.744 26.1371 125.228 28.7265 125.457 31.5319C125.774 35.4187 127.37 38.3752 129.122 38.3752ZM128.209 24.9855C129.343 24.9855 130.783 27.4507 131.08 31.0982C131.29 33.6642 130.837 36.0827 129.951 37.1174C129.706 37.4035 129.446 37.5601 129.179 37.5817C128.043 37.6734 126.552 35.183 126.249 31.4707C126.039 28.9047 126.492 26.4862 127.378 25.4515C127.623 25.1654 127.883 25.0089 128.15 24.9873C128.169 24.9855 128.189 24.9855 128.209 24.9855Z" fill="#212121"/>
<path d="M130.745 60.892C130.885 60.892 131.021 60.8164 131.093 60.6868C131.192 60.5051 131.136 60.2766 130.961 60.1632C125.385 56.5373 120.91 45.1989 119.828 31.9495C118.747 18.7217 121.319 6.84353 126.227 2.39347C126.306 2.32149 126.353 2.22252 126.357 2.11636C126.36 2.01019 126.322 1.90762 126.25 1.83024C126.102 1.67189 125.852 1.6575 125.691 1.80145L106.371 19.0528L85.2861 23.8268C85.2626 23.8322 85.2392 23.8394 85.2157 23.8502L76.1006 27.773C76.0699 27.7856 76.041 27.8036 76.014 27.8234L71.6422 31.21C70.7115 31.8722 70.2119 33.8552 70.3995 36.1585C70.5763 38.3232 71.3265 40.1335 72.2896 40.7543C72.3167 40.7849 72.3492 40.8119 72.387 40.8334L76.9663 43.3527C76.9969 43.3689 77.0294 43.3833 77.0637 43.3905L86.6351 45.7064C86.6586 45.7118 86.6838 45.7154 86.7073 45.7172L108.492 46.8742L130.366 60.7552C130.382 60.766 130.398 60.7732 130.415 60.7822L130.579 60.856C130.633 60.8812 130.689 60.892 130.745 60.892ZM123.063 5.20962C119.73 11.0794 118.145 21.1132 119.034 32.0143C119.931 42.9874 123.157 52.7009 127.439 57.9589L108.83 46.149C108.772 46.113 108.705 46.0915 108.637 46.0879L86.783 44.9272L77.3017 42.6293L72.8992 40.2072C72.8686 40.1766 72.8343 40.1497 72.7928 40.1281C72.149 39.7988 71.368 38.271 71.1895 36.0919C71.0091 33.8696 71.5285 32.2464 72.1093 31.847C72.1219 31.838 72.1363 31.8272 72.1472 31.8164L72.1778 31.7894L76.4577 28.4784L85.4917 24.5916L106.642 19.8032C106.707 19.7888 106.768 19.7564 106.819 19.7114L123.063 5.20962Z" fill="#212121"/>
<path d="M106.617 19.3643L125.954 2.09668L125.958 2.10028C121.112 6.49455 118.318 18.344 119.431 31.982C120.545 45.6363 125.238 56.9153 130.743 60.4944L130.577 60.4206L108.653 46.5072L108.144 46.1869C105.601 44.5566 103.431 39.4552 102.941 33.2794C102.438 26.94 104.146 21.5434 106.375 19.5712L106.617 19.3643Z" fill="white"/>
<path d="M130.745 60.892C130.885 60.892 131.021 60.8164 131.093 60.6868C131.192 60.5051 131.136 60.2766 130.961 60.1632C125.385 56.5373 120.91 45.1989 119.828 31.9495C118.747 18.7217 121.319 6.84353 126.227 2.39347C126.306 2.32149 126.353 2.22252 126.357 2.11636C126.36 2.01019 126.322 1.90762 126.25 1.83024C126.102 1.67189 125.852 1.6575 125.691 1.80145L106.117 19.2724C103.538 21.5541 102.072 27.3249 102.548 33.3117C103.037 39.4587 105.201 44.7671 107.933 46.5215L108.446 46.8436L130.366 60.7552C130.382 60.766 130.398 60.7732 130.415 60.7822L130.579 60.856C130.633 60.8812 130.689 60.892 130.745 60.892ZM123.063 5.20962C119.73 11.0794 118.145 21.1132 119.034 32.0143C119.931 42.9874 123.157 52.7009 127.439 57.9589L108.355 45.8521C105.863 44.2542 103.798 39.07 103.336 33.2487C102.827 26.8319 104.611 21.6602 106.638 19.868L106.875 19.6628C106.876 19.661 106.878 19.6593 106.88 19.6593L123.063 5.20962Z" fill="#212121"/>
<path d="M76.9118 43.2627C77.0525 43.2627 77.1878 43.1889 77.2599 43.0575C77.3663 42.865 77.296 42.6238 77.103 42.5195L72.8953 40.2036C72.8683 40.173 72.834 40.1478 72.7943 40.128C72.1505 39.7987 71.3695 38.271 71.191 36.0918C71.0106 33.8695 71.53 32.2464 72.1108 31.8469C72.1234 31.8379 72.1378 31.8271 72.1487 31.8163L72.1793 31.7893L76.4988 28.4477C76.672 28.3128 76.7044 28.0645 76.5692 27.8917C76.4339 27.719 76.185 27.6866 76.0119 27.8215L71.6401 31.2081C70.7094 31.8703 70.2098 33.8533 70.3974 36.1566C70.5742 38.3214 71.3244 40.1316 72.2875 40.7524C72.3146 40.783 72.347 40.81 72.3849 40.8316L76.7171 43.2141C76.782 43.2465 76.8469 43.2627 76.9118 43.2627Z" fill="#212121"/>
<path d="M77.2134 42.9925C75.7832 42.2709 74.5982 39.3252 74.3115 35.8217C74.0085 32.1076 74.9625 28.7966 76.4036 28.0786L71.9199 31.494L71.8893 31.521C71.0795 32.077 70.6214 33.9502 70.7981 36.124C70.9731 38.2725 71.7378 40.0324 72.6161 40.4805L72.5836 40.4823L77.2134 42.9925Z" fill="white"/>
<path d="M77.2116 43.3903C77.354 43.3903 77.4929 43.3129 77.5633 43.178C77.6643 42.9854 77.5921 42.7497 77.4009 42.6453L77.3035 42.5931C76.0555 41.8625 74.9697 39.0374 74.7046 35.7912C74.4341 32.4802 75.1844 29.8008 76.1348 28.7805L76.6416 28.3954C76.804 28.2713 76.8454 28.0445 76.7372 27.87C76.629 27.6954 76.4054 27.6343 76.2232 27.726C76.0086 27.8322 75.8048 27.9869 75.6136 28.1813L71.6404 31.2098C70.7079 31.872 70.2102 33.855 70.3977 36.1583C70.5745 38.323 71.3248 40.1333 72.2879 40.7541C72.3149 40.7847 72.3492 40.8135 72.3871 40.8333L76.9176 43.2895C76.9537 43.3111 76.9915 43.3309 77.0294 43.3489C77.0907 43.3759 77.152 43.3903 77.2116 43.3903ZM74.5639 29.9753C73.994 31.5139 73.7325 33.6282 73.9147 35.8524C74.1022 38.1431 74.6541 40.1711 75.4206 41.5692L72.8957 40.1999C72.8686 40.1711 72.8361 40.1459 72.7983 40.1261C72.1544 39.7968 71.3735 38.269 71.1949 36.0899C71.0145 33.8676 71.534 32.2445 72.1147 31.845C72.1273 31.836 72.1418 31.8252 72.1526 31.8144L72.1832 31.7874L74.5639 29.9753Z" fill="#212121"/>
<path d="M86.3788 45.2368L86.79 45.3195C84.5464 44.8859 82.595 40.4196 82.1549 35.0338C81.7058 29.5419 83.1523 24.8471 85.3724 24.2119L85.0676 24.3433L76.4268 28.0663C74.9731 28.7591 74.0064 32.0881 74.3112 35.822C74.6052 39.4263 75.8948 42.4386 77.3773 43.0486L86.3788 45.2368Z" fill="white"/>
<path d="M86.7921 45.7153C86.9778 45.7153 87.1438 45.5839 87.1816 45.395C87.2249 45.1809 87.0842 44.9721 86.8696 44.9289L86.8408 44.9235C84.8532 44.5061 82.9721 40.1586 82.5519 34.9995C82.1623 30.2148 83.2661 25.8493 85.0552 24.7804L85.5314 24.5753C85.7244 24.4925 85.8181 24.2748 85.7478 24.0786C85.6775 23.8825 85.4646 23.7745 85.2644 23.8303C85.0769 23.8843 84.8929 23.9617 84.7162 24.0625L76.2683 27.7028C74.6054 28.4945 73.599 31.9963 73.9129 35.8543C74.2213 39.6313 75.583 42.7408 77.2224 43.4156C77.2404 43.4228 77.2603 43.43 77.2801 43.4336L86.2835 45.6199C86.2889 45.6217 86.2943 45.6217 86.2997 45.6235L86.682 45.7009C86.6929 45.7027 86.7037 45.7045 86.7145 45.7081C86.7416 45.7135 86.7668 45.7153 86.7921 45.7153ZM83.3058 25.5344C82.0649 27.5624 81.4355 31.1037 81.7601 35.0643C82.0956 39.1779 83.2733 42.6544 84.8081 44.4449L77.5019 42.6706C76.1799 42.0948 74.9806 39.1473 74.7064 35.7895C74.3926 31.9459 75.4441 28.9732 76.5984 28.4243L83.3058 25.5344Z" fill="#212121"/>
<path d="M128.118 24.5914C126.566 24.712 125.485 27.8124 125.853 31.5013C126.47 37.6896 128.896 38.0009 129.19 38.0153C129.195 38.0153 129.195 38.0225 129.19 38.0243L122.91 39.8328C122.345 37.3261 121.929 34.627 121.698 31.8054C121.478 29.1008 121.444 26.4808 121.573 24.012L128.118 24.5914Z" fill="#212121"/>
<path d="M122.91 40.2304C122.946 40.2304 122.984 40.225 123.02 40.2142L129.3 38.4058C129.486 38.3518 129.61 38.1683 129.588 37.9775C129.567 37.785 129.406 37.632 129.211 37.6212C129.114 37.6158 126.843 37.4323 126.248 31.4635C125.999 28.9623 126.438 26.56 127.341 25.4839C127.599 25.1762 127.871 25.0106 128.149 24.9891C128.355 24.9729 128.515 24.8019 128.515 24.595C128.517 24.388 128.358 24.2153 128.153 24.1973L121.608 23.6179C121.499 23.6089 121.393 23.6431 121.312 23.7132C121.231 23.7834 121.18 23.8842 121.175 23.9922C121.04 26.533 121.081 29.1728 121.299 31.8396C121.526 34.6197 121.936 37.3387 122.518 39.9227C122.542 40.0289 122.609 40.1207 122.704 40.1765C122.769 40.2125 122.839 40.2304 122.91 40.2304ZM127.998 37.9559L123.206 39.3361C122.679 36.9122 122.306 34.3696 122.093 31.7748C121.889 29.288 121.842 26.8245 121.949 24.4438L126.816 24.8739C126.787 24.9063 126.759 24.9387 126.73 24.9729C125.682 26.2217 125.182 28.8003 125.455 31.5409C125.864 35.6202 127.056 37.2811 127.998 37.9559Z" fill="#212121"/>
<path d="M53.6084 27.0514C53.8861 27.1882 54.2144 27.0496 54.3082 26.7545C54.7555 25.3527 56.2452 23.1322 58.0289 22.5726C60.314 21.8546 63.0428 22.3656 63.7696 24.0985C64.4027 25.6118 63.9825 26.5872 65.8383 28.4658C66.0169 28.6457 65.8996 28.966 65.7121 29.1334L64.7147 30.1159C64.5019 30.3048 64.3558 30.8933 64.3504 31.1776C64.3341 32.0575 64.3702 33.9235 64.0871 34.1881C63.5334 34.7009 60.5773 34.7513 60.5773 34.7513L58.8567 43.036C58.7918 43.3509 58.9992 43.6568 59.313 43.7108L62.4116 45.557C62.4116 45.557 60.1914 47.7739 53.107 47.8531C48.5783 47.9035 45.2904 44.6285 45.2904 44.6285C45.2904 44.6285 53.6896 43.0666 54.0557 32.6459C54.0629 32.4174 53.9475 32.1997 53.7545 32.0773C53.015 31.6076 51.0113 30.2131 51.2169 28.6241C51.4351 26.9345 52.6597 26.5836 53.6084 27.0514Z" fill="white"/>
<path d="M53.0022 48.2489C53.0382 48.2489 53.0743 48.2489 53.1104 48.2489C60.2741 48.1697 62.5971 45.9312 62.6927 45.8358C62.7792 45.7495 62.8207 45.6271 62.8063 45.5065C62.7919 45.386 62.7215 45.278 62.6151 45.215L59.5148 43.3688C59.4733 43.3436 59.4264 43.3274 59.3777 43.3184C59.3182 43.3076 59.284 43.2698 59.2695 43.2482C59.2533 43.2248 59.2299 43.178 59.2425 43.1151L60.8999 35.1399C61.8522 35.1093 63.8109 34.9833 64.3556 34.4777C64.6694 34.1862 64.7271 33.4052 64.7397 31.6507C64.7415 31.478 64.7415 31.3196 64.7451 31.1865C64.7505 30.9274 64.8894 30.4991 64.9778 30.4127L65.9896 29.4158C66.1808 29.2467 66.3142 28.9749 66.3232 28.7194C66.3305 28.5161 66.2583 28.3271 66.1212 28.1868C64.9201 26.9721 64.7451 26.2002 64.5413 25.3059C64.4457 24.883 64.3465 24.4457 64.1355 23.9455C63.2879 21.9193 60.2435 21.4586 57.9097 22.1928C55.9438 22.8118 54.3999 25.1619 53.9292 26.6339C53.9166 26.6734 53.8913 26.6914 53.8715 26.6986C53.8516 26.7076 53.8192 26.713 53.7831 26.695C53.1663 26.3909 52.4972 26.3855 51.9471 26.6806C51.516 26.911 50.9696 27.4274 50.8217 28.5719C50.6016 30.2741 52.4304 31.7083 53.5396 32.4119C53.6154 32.4587 53.6587 32.5433 53.6569 32.6314C53.307 42.6184 45.2956 44.2235 45.2144 44.2379C45.0701 44.2649 44.9511 44.3693 44.9078 44.5096C44.8645 44.65 44.9024 44.803 45.007 44.9073C45.1477 45.0459 48.4157 48.2489 53.0022 48.2489ZM61.6971 45.5929C60.7719 46.1831 58.2505 47.3978 53.1014 47.4554C49.8351 47.4913 47.1911 45.6883 46.1054 44.812C48.221 44.1228 54.1456 41.4128 54.4522 32.6584C54.4649 32.2913 54.2791 31.9404 53.9671 31.7425C53.2024 31.2585 51.4403 29.988 51.6098 28.6744C51.6928 28.0338 51.9381 27.5858 52.3222 27.3806C52.6433 27.2097 53.0473 27.2187 53.4314 27.4076C53.6677 27.5246 53.9418 27.5318 54.1835 27.4292C54.4234 27.3266 54.6073 27.1251 54.6867 26.875C55.1087 25.5542 56.5462 23.4542 58.1477 22.9504C60.1569 22.3188 62.7486 22.6894 63.4015 24.2514C63.5854 24.6886 63.672 25.0737 63.7658 25.4822C63.975 26.4017 64.1914 27.3536 65.5243 28.714C65.5152 28.7464 65.4882 28.7986 65.4467 28.8364L64.4331 29.8333C64.1085 30.1212 63.957 30.8482 63.9498 31.1703C63.948 31.307 63.9462 31.469 63.9443 31.6435C63.9389 32.2374 63.9281 33.6139 63.7928 33.9144C63.4736 34.1502 61.8901 34.3319 60.5681 34.3553C60.3823 34.3589 60.2236 34.4903 60.1857 34.672L58.4651 42.9567C58.411 43.2158 58.4633 43.4786 58.613 43.6981C58.7447 43.8924 58.9377 44.0274 59.1631 44.0868L61.6971 45.5929Z" fill="#212121"/>
</g>
<defs>
<clipPath id="clip0_109_12563">
<rect width="214.507" height="136.357" fill="white" transform="translate(0.746582 10)"/>
</clipPath>
<clipPath id="clip1_109_12563">
<rect width="126" height="199" fill="white" transform="matrix(-1 0 0 1 145.747 0)"/>
</clipPath>
</defs>
</svg>
