<svg width="214" height="215" viewBox="0 0 214 215" fill="none" xmlns="http://www.w3.org/2000/svg">
<rect width="214" height="214" fill="white"/>
<path d="M205.941 38.6819H8.83912C4.81253 38.6819 1.54834 41.9571 1.54834 45.9973V178.371C1.54834 182.411 4.81253 185.686 8.83912 185.686H205.941C209.968 185.686 213.232 182.411 213.232 178.371V45.9973C213.232 41.9571 209.968 38.6819 205.941 38.6819Z" fill="white" stroke="white"/>
<path d="M205.941 38.6819H8.83912C4.81253 38.6819 1.54834 41.9571 1.54834 45.9973V178.371C1.54834 182.411 4.81253 185.686 8.83912 185.686H205.941C209.968 185.686 213.232 182.411 213.232 178.371V45.9973C213.232 41.9571 209.968 38.6819 205.941 38.6819Z" stroke="black"/>
<path d="M199.571 45.074H15.2097C11.1831 45.074 7.91895 48.3492 7.91895 52.3894V164.112C7.91895 168.152 11.1831 171.427 15.2097 171.427H199.571C203.598 171.427 206.862 168.152 206.862 164.112V52.3894C206.862 48.3492 203.598 45.074 199.571 45.074Z" stroke="black"/>
<path d="M80.432 114.928H15.2695V160.151H80.432V114.928Z" stroke="black"/>
<path d="M15.998 106.54H194.372" stroke="black"/>
<path d="M88.5239 54.895H197.131" stroke="black"/>
<path d="M88.5239 74.0664H197.131" stroke="black"/>
<path d="M88.5239 93.2378H197.131" stroke="black"/>
<path d="M88.5239 116.357H197.131" stroke="black"/>
<path d="M88.5239 135.529H197.131" stroke="black"/>
<path d="M88.5239 154.7H197.131" stroke="black"/>
<path d="M94.4043 178.311H120.377" stroke="black"/>
<path d="M80.432 52.4495H15.2695V97.6727H80.432V52.4495Z" stroke="black"/>
<path d="M35.8086 63.2233L27.5181 85.8188H25.4126L34.4598 61.7875H35.9238L35.8086 63.2233ZM43.3425 85.8188L35.0355 63.2233L34.9204 61.7875H36.3844L45.448 85.8188H43.3425ZM41.8621 77.3352V79.0847H29.1466V77.3352H41.8621ZM60.1047 82.3527V60.467H62.0782V85.8188H60.2359L60.1047 82.3527ZM47.7509 77.0711V76.7245C47.7509 75.3381 47.9099 74.0892 48.228 72.9778C48.546 71.8555 49.0011 70.8982 49.5932 70.106C50.1964 69.3027 50.9202 68.6921 51.7645 68.2739C52.6088 67.8448 53.5631 67.6302 54.6265 67.6302C55.6684 67.6302 56.5895 67.8008 57.3905 68.1419C58.191 68.483 58.8763 68.9726 59.4465 69.6108C60.0278 70.249 60.4939 71.0082 60.8448 71.8885C61.2063 72.7688 61.4698 73.7481 61.6342 74.8264V79.2332C61.5025 80.2456 61.2611 81.1754 60.9107 82.0226C60.5597 82.8589 60.0936 83.5906 59.5124 84.2178C58.9311 84.834 58.2292 85.3126 57.4066 85.6537C56.5951 85.9838 55.6578 86.1489 54.5939 86.1489C53.541 86.1489 52.5927 85.9288 51.7479 85.4887C50.9037 85.0486 50.1854 84.4269 49.5932 83.6236C49.0011 82.8094 48.546 81.8466 48.228 80.7352C47.9099 79.6239 47.7509 78.4025 47.7509 77.0711ZM49.7249 76.7245V77.0711C49.7249 78.1164 49.829 79.0847 50.0374 79.976C50.2457 80.8673 50.5638 81.643 50.9915 82.3032C51.4192 82.9634 51.9621 83.4806 52.6198 83.8547C53.278 84.2288 54.0564 84.4159 54.9559 84.4159C56.0852 84.4159 57.034 84.2013 57.8013 83.7721C58.5691 83.332 59.183 82.7543 59.6441 82.0391C60.1047 81.3129 60.4391 80.5207 60.6472 79.6624V74.5293C60.5155 73.9462 60.3239 73.352 60.0715 72.7468C59.8191 72.1416 59.4737 71.5859 59.0352 71.0798C58.6073 70.5626 58.0592 70.15 57.3905 69.8419C56.7323 69.5228 55.9318 69.3633 54.9886 69.3633C54.0785 69.3633 53.2946 69.5503 52.6364 69.9244C51.9782 70.2985 51.4301 70.8212 50.9915 71.4924C50.5638 72.1526 50.2457 72.9284 50.0374 73.8196C49.829 74.7109 49.7249 75.6792 49.7249 76.7245Z" fill="black"/>
<path d="M116.24 188.596C116.447 188.096 116.707 187.62 117.061 187.199C118.411 185.596 120.194 184.459 121.936 183.33C123.532 182.295 125.06 181.168 126.669 180.156C129.217 178.554 132.182 176.845 133.728 174.163L136.832 178.208C138.39 180.238 138.204 183.103 136.397 184.916L118.774 202.588C117.716 203.649 115.903 202.859 115.965 201.364L116.482 188.819C116.404 188.749 116.323 188.674 116.24 188.596Z" fill="white"/>
<path d="M133.836 174.302L136.833 178.208C138.391 180.238 138.205 183.103 136.398 184.916L118.775 202.587C117.717 203.649 115.904 202.858 115.966 201.364L116.483 188.819L133.836 174.302Z" fill="white"/>
<path d="M117.623 203.323C117.366 203.323 117.103 203.269 116.851 203.159C116.119 202.84 115.686 202.148 115.719 201.353L116.237 188.808C116.243 188.675 116.351 188.572 116.484 188.572C116.487 188.572 116.491 188.572 116.494 188.572C116.631 188.577 116.736 188.693 116.731 188.828L116.212 201.373C116.183 202.075 116.625 202.523 117.048 202.707C117.471 202.892 118.102 202.911 118.599 202.413L136.222 184.741C137.934 183.025 138.112 180.28 136.637 178.358L133.64 174.453C133.557 174.344 133.578 174.19 133.686 174.107C133.794 174.024 133.95 174.044 134.033 174.153L137.03 178.058C138.655 180.176 138.459 183.199 136.573 185.089L118.951 202.761C118.581 203.131 118.11 203.323 117.623 203.323Z" fill="black"/>
<path d="M91.7723 134.046C101.747 123.698 115.34 109.942 121.922 103.298C123.945 101.256 126.715 100.123 129.594 100.169C134.334 100.244 141.903 100.1 146.707 99.988C149.132 99.9309 151.091 101.941 150.966 104.357C150.592 111.602 147.334 118.399 141.916 123.241L113.877 148.294L133.836 174.304C133.417 174.878 132.977 175.437 132.526 175.979C129.233 179.943 125.195 183.354 120.833 186.09C119.363 187.012 117.849 187.863 116.306 188.66C111.581 184.283 99.049 168.044 90.4132 156.616C85.2485 149.778 85.8231 140.217 91.7723 134.046Z" fill="#305DFF"/>
<path d="M65.7878 204.511C66.1705 204.255 66.5105 203.942 66.7978 203.584L119.843 137.342C123.22 133.126 129.815 137.355 127.367 142.167L92.0611 211.566C91.9926 211.702 91.9197 211.836 91.8355 211.962C90.7278 213.637 88.8469 214.652 86.8246 214.652H68.8819C66.1368 214.652 54.0007 214.838 53.4541 214.495C52.8369 214.106 52.9828 213.225 53.1803 213.057C55.27 211.276 63.7161 205.895 65.7878 204.511Z" fill="white"/>
<path d="M86.8244 214.899H54.0981C53.5089 214.899 53.0185 214.536 52.8468 213.974C52.6762 213.413 52.8816 212.839 53.3698 212.512L66.2275 203.92C66.3409 203.844 66.4946 203.874 66.5709 203.987C66.6472 204.1 66.6169 204.253 66.5036 204.328L53.6447 212.922C53.2755 213.168 53.2351 213.553 53.3193 213.831C53.4034 214.108 53.6526 214.406 54.097 214.406H86.8233C88.8231 214.406 90.7085 213.347 91.7444 211.642L93.1943 209.258C93.265 209.142 93.4177 209.105 93.5344 209.175C93.6511 209.246 93.6881 209.397 93.6174 209.513L92.1675 211.898C91.043 213.748 88.9948 214.899 86.8244 214.899Z" fill="black"/>
<path d="M93.2662 209.299C87.8647 208.282 67.4755 203.944 66.5811 203.767C69.7918 198.455 108.234 134.743 121.788 107.638L147.207 103.172C149.439 103.627 150.917 105.738 150.601 107.988C149.725 114.251 147.578 120.287 144.275 125.72L93.4401 209.331C93.3818 209.321 93.3234 209.311 93.2662 209.299Z" fill="#305DFF"/>
<path d="M94.6816 156.628C94.6401 156.628 94.5975 156.616 94.5582 156.594C94.4403 156.526 94.3999 156.375 94.4684 156.257C107.367 134.09 116.484 117.695 121.568 107.528C121.628 107.406 121.776 107.357 121.899 107.418C122.021 107.478 122.07 107.627 122.01 107.748C116.921 117.923 107.799 134.327 94.896 156.504C94.85 156.584 94.7669 156.628 94.6816 156.628Z" fill="black"/>
<path d="M111.432 179.984C111.389 179.984 111.345 179.972 111.304 179.948C111.188 179.877 111.151 179.726 111.221 179.61L122.455 161.133C122.526 161.017 122.679 160.98 122.795 161.05C122.912 161.121 122.949 161.272 122.878 161.388L111.645 179.865C111.597 179.941 111.515 179.984 111.432 179.984Z" fill="black"/>
<path d="M118.564 81.6582C118.564 81.6582 88.4773 98.8242 98.9278 64.8583C101.887 67.518 110.687 67.303 111.722 67.1251L111.263 68.3978C114.049 66.1937 121.633 58.0859 131.821 58.1419C135.539 58.162 142.738 58.3053 144.491 58.4206C152.336 58.9378 157.264 59.99 161.404 65.0318C169.809 74.7302 176.237 103.172 157.446 103.607L157.574 107.238C157.794 111.861 153.209 115.208 148.857 113.599L114.398 105.788C112.635 105.136 111.71 103.204 112.313 101.427L118.564 81.6582Z" fill="white"/>
<path d="M149.23 113.972C149.206 113.972 149.182 113.968 149.158 113.96C149.029 113.921 148.9 113.878 148.772 113.831C148.644 113.784 148.579 113.641 148.626 113.514C148.673 113.386 148.816 113.321 148.944 113.368C149.063 113.412 149.183 113.452 149.303 113.489C149.433 113.528 149.507 113.667 149.467 113.797C149.434 113.903 149.335 113.972 149.23 113.972Z" fill="black"/>
<path d="M151.102 114.25C150.45 114.25 149.795 114.155 149.157 113.962C149.027 113.921 148.953 113.784 148.993 113.654C149.033 113.524 149.171 113.45 149.302 113.49C151.256 114.086 153.308 113.705 154.931 112.446C156.551 111.19 157.424 109.296 157.326 107.25L157.198 103.616C157.196 103.55 157.22 103.486 157.266 103.438C157.31 103.39 157.373 103.362 157.44 103.361C162.536 103.242 166.066 101.051 167.935 96.8493C169.766 92.7288 169.887 86.8083 168.27 80.1792C166.84 74.3046 164.136 68.5621 161.216 65.1927C157.211 60.3155 152.626 59.2028 144.473 58.6655C142.759 58.5525 135.665 58.408 131.818 58.3879C131.784 58.3879 131.748 58.3879 131.713 58.3879C123.095 58.3879 116.447 64.2144 112.868 67.3498C112.299 67.8479 111.807 68.2789 111.413 68.5912C111.327 68.6595 111.205 68.6629 111.116 68.5979C111.026 68.5341 110.99 68.4177 111.027 68.3147L111.353 67.4136C109.305 67.5748 102.023 67.5166 99.055 65.2834C96.0687 75.1531 96.2819 81.5337 99.688 84.2505C105.391 88.7986 118.31 81.518 118.44 81.4441C118.528 81.3938 118.638 81.4027 118.718 81.4665C118.798 81.5303 118.829 81.6355 118.799 81.7329L112.547 101.503C111.983 103.164 112.829 104.938 114.467 105.553L118.985 106.577C119.118 106.607 119.202 106.739 119.172 106.872C119.141 107.004 119.008 107.088 118.875 107.058L114.34 106.031C114.33 106.028 114.319 106.025 114.309 106.022C112.408 105.319 111.426 103.267 112.075 101.351L118.14 82.1729C116.268 83.1725 110.062 86.2553 104.754 86.2564C102.737 86.2564 100.851 85.812 99.3793 84.6378C95.7578 81.7497 95.5255 75.0714 98.6891 64.7886C98.7138 64.708 98.7778 64.6453 98.8597 64.6229C98.9405 64.6006 99.0281 64.6207 99.0909 64.6778C101.946 67.2435 110.512 67.0856 111.677 66.8841C111.763 66.8696 111.851 66.9009 111.908 66.9681C111.964 67.0352 111.981 67.127 111.951 67.2099L111.801 67.6263C112.028 67.4304 112.276 67.2132 112.54 66.9815C116.167 63.8024 122.906 57.8965 131.711 57.8965C131.746 57.8965 131.782 57.8965 131.819 57.8965C135.672 57.9178 142.782 58.0622 144.503 58.1752C152.626 58.7103 157.5 59.8935 161.592 64.877C164.601 68.3494 167.277 74.0281 168.749 80.0639C170.389 86.7982 170.26 92.8306 168.384 97.0508C166.463 101.373 162.868 103.659 157.698 103.848L157.817 107.231C157.922 109.436 156.979 111.48 155.231 112.837C154.038 113.763 152.579 114.25 151.102 114.25Z" fill="black"/>
<path d="M119.426 78.9547C119.4 78.9547 119.373 78.9502 119.348 78.9412C119.219 78.8987 119.148 78.7588 119.192 78.6289L120.167 75.7174C120.21 75.5886 120.35 75.5181 120.48 75.5618C120.609 75.6054 120.68 75.7442 120.636 75.8741L119.661 78.7856C119.626 78.8886 119.531 78.9547 119.426 78.9547Z" fill="black"/>
<path d="M109.155 73.7102C109.124 73.7102 109.092 73.7046 109.062 73.6923C108.935 73.6408 108.875 73.4964 108.926 73.3711L110.698 69.0435C110.75 68.917 110.893 68.8565 111.02 68.908C111.147 68.9595 111.208 69.1039 111.156 69.2293L109.384 73.5569C109.345 73.652 109.252 73.7102 109.155 73.7102Z" fill="black"/>
<path d="M118.789 66.4946H137.057C137.318 66.4946 137.547 66.6659 137.623 66.9155L144.564 90.2404C144.676 90.6176 144.393 90.996 143.998 90.996H125.73C125.468 90.996 125.239 90.8247 125.164 90.5751L118.223 67.2502C118.112 66.873 118.395 66.4946 118.789 66.4946Z" fill="black"/>
<path d="M128.17 84.6602C126.078 83.0729 127.896 80.5845 129.882 81.9143C127.389 80.5117 127.848 76.989 131.015 78.4688C130.181 77.2162 131.674 76.0106 132.943 76.239C133.728 76.3274 134.442 76.7237 135.13 77.1121C139.739 79.7001 148.847 84.9579 148.847 84.9579C149.087 86.2654 144.288 96.7967 142.472 98.5564C141.297 98.2038 132.491 91.1672 129.154 88.3128C128.054 87.5359 126.815 85.7314 128.17 84.6602Z" fill="white"/>
<path d="M142.473 98.8026C142.449 98.8026 142.425 98.7992 142.402 98.7925C141.116 98.4074 131.897 90.9825 128.995 88.4997C128.222 87.9579 127.358 86.8956 127.33 85.8792C127.317 85.4202 127.477 85.0071 127.795 84.6702C126.805 83.7769 126.838 82.6889 127.32 82.015C127.62 81.5975 128.127 81.2896 128.738 81.2851C128.025 80.4299 127.86 79.3743 128.227 78.6646C128.539 78.0602 129.305 77.6225 130.56 78.0232C130.48 77.6437 130.555 77.2576 130.782 76.9105C131.23 76.2311 132.157 75.8471 132.988 75.996C133.819 76.0889 134.581 76.5176 135.253 76.8971C139.811 79.456 148.882 84.6915 148.973 84.7441C149.036 84.7799 149.08 84.8426 149.092 84.9131C149.367 86.4165 144.427 97.0071 142.646 98.7332C142.599 98.778 142.537 98.8026 142.473 98.8026ZM128.753 81.7844C128.304 81.7844 127.936 82.0016 127.722 82.3004C127.327 82.8512 127.358 83.7333 128.319 84.4631C128.38 84.509 128.416 84.5806 128.417 84.6568C128.418 84.7329 128.383 84.8045 128.323 84.8527C127.976 85.128 127.813 85.4583 127.824 85.8646C127.847 86.6739 128.583 87.6075 129.298 88.1101C132.789 91.0955 140.906 97.5444 142.411 98.2653C144.22 96.2907 148.586 86.6527 148.613 85.1056C147.551 84.4933 139.289 79.7292 135.01 77.3258C134.378 76.9699 133.663 76.5669 132.916 76.4829C132.266 76.3665 131.534 76.6676 131.195 77.1803C131.027 77.4344 130.896 77.8419 131.221 78.3311C131.283 78.4228 131.275 78.5449 131.202 78.6288C131.129 78.7128 131.01 78.7374 130.91 78.6915C129.83 78.1867 128.99 78.2616 128.666 78.8907C128.298 79.6027 128.683 80.8385 129.801 81.5762C129.874 81.6165 129.946 81.6601 130.02 81.7094C130.13 81.7833 130.163 81.931 130.093 82.043C130.024 82.156 129.878 82.1941 129.761 82.1281C129.688 82.0878 129.619 82.0441 129.55 82.0004C129.268 81.8493 128.999 81.7844 128.753 81.7844Z" fill="black"/>
<path d="M136.423 82.2076C136.379 82.2076 136.334 82.1953 136.294 82.1707C134.604 81.133 132.912 80.0483 131.267 78.949C131.154 78.8729 131.124 78.7195 131.2 78.6065C131.275 78.4934 131.43 78.4632 131.542 78.5393C133.182 79.6363 134.867 80.7166 136.552 81.7509C136.667 81.8225 136.705 81.9736 136.633 82.0901C136.587 82.1662 136.506 82.2076 136.423 82.2076Z" fill="black"/>
<path d="M134.287 85.3609C134.238 85.3609 134.187 85.3464 134.143 85.315L129.793 82.2121C129.682 82.1326 129.657 81.9792 129.736 81.8684C129.816 81.7576 129.97 81.7318 130.081 81.8113L134.431 84.9143C134.542 84.9938 134.568 85.1471 134.488 85.2579C134.441 85.3251 134.364 85.3609 134.287 85.3609Z" fill="black"/>
<path d="M132.248 87.9478C132.201 87.9478 132.153 87.9344 132.11 87.9053C130.78 87.0075 129.477 86.037 128.236 85.0195C128.13 84.9333 128.115 84.7777 128.202 84.6724C128.289 84.5672 128.445 84.5516 128.55 84.6389C129.78 85.6463 131.071 86.6079 132.388 87.4967C132.502 87.5728 132.531 87.7262 132.454 87.8392C132.405 87.9097 132.327 87.9478 132.248 87.9478Z" fill="black"/>
<path d="M156.408 103.859C151.423 103.859 146.486 102.274 142.443 99.3064C142.333 99.2258 142.309 99.0713 142.39 98.9616C142.471 98.8519 142.625 98.8284 142.735 98.909C147.681 102.539 153.994 104.056 160.055 103.073C160.191 103.05 160.317 103.143 160.339 103.277C160.362 103.411 160.27 103.538 160.135 103.56C158.898 103.76 157.651 103.859 156.408 103.859Z" fill="black"/>
<path d="M159.132 91.1592C159.09 91.1592 159.048 91.1492 159.008 91.1257L149.233 85.4917C149.115 85.4235 149.074 85.2735 149.142 85.1548C149.211 85.0373 149.362 84.9958 149.48 85.0652L159.255 90.6992C159.373 90.7675 159.414 90.9175 159.346 91.0361C159.3 91.1156 159.217 91.1592 159.132 91.1592Z" fill="black"/>
<path d="M156.001 88.6598C155.887 88.6598 155.783 88.5792 155.76 88.4628L153.127 75.6591C153.099 75.5259 153.185 75.3961 153.319 75.3681C153.453 75.3401 153.584 75.4263 153.611 75.5606L156.242 88.3632C156.27 88.4964 156.184 88.6262 156.05 88.6542C156.034 88.6576 156.017 88.6598 156.001 88.6598Z" fill="black"/>
<path d="M108.022 64.2649L116.898 48.4086L110.988 46.6108L102.758 63.2496L108.022 64.2649Z" fill="black"/>
<path d="M111.722 67.1248C111.722 67.1248 103.578 68.2464 98.9277 64.858L99.8772 62.7961C99.8772 62.7961 98.6494 61.5849 99.8929 61.1416C99.8929 61.1416 98.7358 58.8413 100.746 58.7047C100.746 58.7047 99.4092 55.7047 102.497 56.2745C102.497 56.2745 100.641 52.8894 104.101 53.7077C106.839 54.3547 107.41 55.2446 107.41 55.2446C107.41 55.2446 105.882 51.4734 107.797 51.8629C108.399 51.985 109.318 52.3823 110.288 52.9846C113.408 54.9223 114.729 58.7853 113.485 62.2342L111.722 67.1248Z" fill="white"/>
<path d="M108.54 67.5568C105.72 67.5568 101.639 67.1381 98.7821 65.0572C98.6867 64.9878 98.6542 64.8613 98.7035 64.7549L99.5845 62.8419C99.3769 62.6023 98.9998 62.0841 99.1098 61.5904C99.148 61.4158 99.2624 61.1897 99.5699 61.0173C99.4049 60.6031 99.1367 59.7311 99.4925 59.1098C99.6743 58.793 99.9807 58.5893 100.406 58.5009C100.246 58.0173 100.026 57.068 100.501 56.4647C100.811 56.074 101.339 55.9083 102.077 55.9677C101.835 55.3979 101.528 54.4061 101.993 53.7983C102.355 53.3248 103.084 53.2128 104.158 53.4669C105.522 53.7893 106.372 54.1778 106.888 54.4968C106.636 53.6606 106.385 52.4404 106.847 51.8875C106.999 51.7039 107.297 51.5091 107.847 51.621C108.513 51.7565 109.475 52.1886 110.419 52.7751C113.611 54.7565 114.998 58.7706 113.717 62.318L111.953 67.2087C111.922 67.2949 111.845 67.3564 111.754 67.3699C111.624 67.3866 110.338 67.5568 108.54 67.5568ZM99.2377 64.7762C103.435 67.6844 110.438 67.0251 111.54 66.8986L113.254 62.1512C114.456 58.821 113.154 55.0542 110.158 53.1938C109.261 52.6363 108.359 52.2289 107.748 52.1046C107.373 52.0274 107.263 52.1606 107.227 52.2031C106.843 52.6632 107.276 54.255 107.64 55.1516C107.688 55.2692 107.638 55.4046 107.525 55.4628C107.411 55.521 107.272 55.4841 107.204 55.3766C107.2 55.3722 106.61 54.5539 104.046 53.9472C103.45 53.8061 102.677 53.7177 102.388 54.0972C102.007 54.5953 102.509 55.7796 102.715 56.1557C102.761 56.2397 102.754 56.3415 102.698 56.4188C102.642 56.496 102.546 56.5341 102.453 56.5162C101.664 56.3707 101.139 56.4557 100.891 56.7692C100.506 57.255 100.819 58.258 100.973 58.6038C101.005 58.6777 101 58.7628 100.958 58.8311C100.917 58.9005 100.844 58.9441 100.764 58.9497C100.343 58.9788 100.06 59.1143 99.9223 59.3527C99.6395 59.8464 99.9661 60.7307 100.115 61.0296C100.147 61.0923 100.15 61.1662 100.123 61.2322C100.097 61.2971 100.044 61.3486 99.9773 61.3721C99.7517 61.4527 99.6215 61.5613 99.5924 61.6956C99.5228 62.0079 99.9111 62.4792 100.052 62.6202C100.125 62.693 100.147 62.8038 100.103 62.8979L99.2377 64.7762Z" fill="black"/>
<path d="M109.868 60.8877L106.475 67.4463C105.896 68.5668 104.552 69.056 103.384 68.5724C102.125 68.0508 101.544 66.5967 102.096 65.3541L102.318 64.8549C102.318 64.8549 104.824 65.3082 103.842 63.6336C103.842 63.6336 106.68 63.9706 105.278 61.7586C105.278 61.7586 105.975 61.9892 106.591 61.7094C107.492 61.2997 108.221 60.1568 106.353 58.5493C107.798 59.1751 109.155 58.9254 109.155 58.9254C109.155 58.9254 109.519 60.1881 109.868 60.8877Z" fill="black"/>
<path d="M107.499 59.4234C107.459 59.4234 107.418 59.4134 107.381 59.3932C105.899 58.5895 104.416 57.7421 102.974 56.8757C102.857 56.8052 102.819 56.654 102.89 56.5376C102.96 56.4212 103.112 56.3832 103.228 56.4537C104.665 57.3167 106.142 58.1596 107.618 58.9611C107.738 59.0261 107.781 59.1761 107.716 59.2958C107.672 59.3775 107.586 59.4234 107.499 59.4234Z" fill="black"/>
<path d="M106.621 62.8355C106.582 62.8355 106.542 62.8265 106.505 62.8075C104.539 61.772 102.611 60.6146 100.776 59.3664C100.664 59.2903 100.635 59.137 100.711 59.0239C100.787 58.9108 100.941 58.8817 101.054 58.959C102.875 60.1959 104.786 61.3444 106.735 62.3709C106.856 62.4347 106.903 62.5836 106.839 62.7045C106.795 62.7884 106.709 62.8355 106.621 62.8355Z" fill="black"/>
<path d="M104.883 64.4182C104.842 64.4182 104.802 64.4081 104.764 64.388L100.515 62.0518C100.395 61.9857 100.352 61.8357 100.417 61.7171C100.483 61.5984 100.634 61.5548 100.753 61.6197L105.002 63.9559C105.122 64.0219 105.164 64.1719 105.099 64.2906C105.054 64.3723 104.969 64.4182 104.883 64.4182Z" fill="black"/>
<path d="M108.9 59.3585C108.77 59.3585 108.66 59.2567 108.653 59.1246C108.647 58.988 108.751 58.8727 108.888 58.866C109.225 58.8481 109.477 58.4798 109.501 58.1473C109.524 57.8138 109.394 57.4432 109.103 57.0145C108.575 56.2354 107.801 55.613 106.925 55.2615C106.798 55.2112 106.737 55.0668 106.788 54.9414C106.839 54.8149 106.984 54.7533 107.109 54.8048C108.076 55.1921 108.928 55.8783 109.513 56.7391C109.869 57.263 110.026 57.7354 109.995 58.1843C109.955 58.7373 109.54 59.3283 108.915 59.3608C108.909 59.3585 108.905 59.3585 108.9 59.3585Z" fill="black"/>
<path d="M108.4 47.6865L114.635 49.4362C117.07 50.1201 119.6 48.7041 120.286 46.275L121.272 42.7791C121.958 40.35 120.538 37.8269 118.103 37.1429L111.868 35.3933L108.4 47.6865Z" fill="white"/>
<path d="M115.882 49.8548C115.443 49.8548 115.001 49.7943 114.568 49.6723L108.333 47.9227C108.27 47.9048 108.216 47.8634 108.185 47.8063C108.152 47.7492 108.144 47.682 108.162 47.6193L111.629 35.3261C111.666 35.1951 111.804 35.1179 111.934 35.156L118.169 36.9056C119.411 37.2537 120.442 38.0642 121.073 39.1858C121.703 40.3074 121.858 41.6082 121.509 42.8462L120.523 46.3421C120.174 47.5802 119.361 48.6089 118.237 49.238C117.506 49.6466 116.699 49.8548 115.882 49.8548ZM108.704 47.5152L114.702 49.1977C115.816 49.51 116.985 49.3712 117.996 48.807C119.006 48.2417 119.734 47.3193 120.047 46.2078L121.033 42.7119C121.347 41.6003 121.207 40.4339 120.642 39.4265C120.075 38.419 119.15 37.6925 118.036 37.3802L112.039 35.6977L108.704 47.5152Z" fill="black"/>
<path d="M71.9984 14.0956C71.9984 14.0956 75.0297 9.29672 79.1663 10.9489C82.1863 12.1545 100.088 24.5194 109.534 31.1082C113.027 33.5451 114.594 37.9197 113.439 42.0133C112.052 46.9331 107.169 50.0182 102.117 49.1674L68.6709 43.5368C68.6709 43.5368 64.954 42.6805 64.8003 37.0947C64.6454 31.5112 71.9984 14.0956 71.9984 14.0956Z" fill="white"/>
<path d="M103.802 49.5561C103.232 49.5561 102.654 49.5091 102.073 49.4105L68.6278 43.78C68.574 43.7677 64.7089 42.8117 64.5518 37.1017C64.398 31.5271 71.4683 14.7126 71.7702 13.9995C71.7758 13.9872 71.7814 13.9749 71.7893 13.9637C71.8207 13.9145 74.9798 9.01037 79.2579 10.7197C82.2611 11.9197 99.6045 23.8816 109.675 30.9058C113.25 33.3998 114.858 37.8897 113.677 42.0796C112.41 46.5684 108.333 49.5561 103.802 49.5561ZM72.2168 14.2122C71.9318 14.8894 64.8974 31.705 65.0456 37.0905C65.1915 42.4031 68.5807 43.2651 68.7255 43.2986L102.157 48.9258C107.098 49.7564 111.844 46.7565 113.201 41.9475C114.325 37.9591 112.794 33.6841 109.392 31.311C99.3374 24.2991 82.031 12.3596 79.0739 11.1786C75.2896 9.66746 72.4121 13.9145 72.2168 14.2122Z" fill="black"/>
<path d="M82.3418 29.5163C84.9197 20.3761 83.0474 11.8547 78.1598 10.4832C73.2722 9.11177 67.2203 15.4096 64.6423 24.5498C62.0644 33.69 63.9368 42.2114 68.8243 43.5829C73.7119 44.9543 79.7639 38.6565 82.3418 29.5163Z" fill="white"/>
<path d="M70.1825 44.0137C69.7 44.0137 69.2241 43.9499 68.7584 43.82C66.3029 43.1305 64.5039 40.7204 63.6925 37.032C62.8934 33.3984 63.1471 28.941 64.404 24.4824C67.0155 15.2261 73.2149 8.83883 78.228 10.2448C83.2389 11.6508 85.1917 20.3261 82.5813 29.5824C80.2133 37.979 74.8915 44.0137 70.1825 44.0137ZM76.7758 10.5403C72.2969 10.5403 67.1872 16.4362 64.8798 24.6156C63.6442 28.9981 63.3929 33.3693 64.1751 36.9256C64.9449 40.4271 66.6194 42.7073 68.8919 43.3443C69.3229 43.4652 69.7628 43.5234 70.2095 43.5234C74.6884 43.5234 79.7981 37.6275 82.1054 29.4481C84.6418 20.4537 82.8428 12.0515 78.0945 10.7183C77.6635 10.5996 77.2225 10.5403 76.7758 10.5403Z" fill="black"/>
<path d="M77.3653 35.606C77.3383 35.606 77.3103 35.6015 77.2833 35.5926C74.8559 34.7452 72.975 32.4717 72.6013 29.934C72.2276 27.3963 73.3745 24.6796 75.4541 23.1717C76.8636 22.1508 78.7052 21.684 80.5009 21.89C80.6367 21.9057 80.7343 22.0277 80.7186 22.1631C80.7029 22.2986 80.5839 22.396 80.4447 22.3803C78.767 22.1867 77.0555 22.621 75.7447 23.5713C73.8088 24.974 72.7415 27.5027 73.0894 29.8624C73.4373 32.2232 75.187 34.3388 77.4461 35.1269C77.5751 35.1717 77.6425 35.3127 77.5976 35.4414C77.5628 35.5422 77.4674 35.606 77.3653 35.606Z" fill="black"/>
<path d="M141.31 48.5161L142.048 58.275C145.156 61.4093 136.89 62.7157 134.469 60.6526C133.657 60.122 133.543 58.9791 134.24 58.3052L134.635 50.7627L141.31 48.5161Z" fill="white"/>
<path d="M138.14 61.9096C136.66 61.9096 135.191 61.5839 134.32 60.8507C133.875 60.5552 133.592 60.0828 133.542 59.5522C133.494 59.0529 133.66 58.566 133.998 58.1999L134.388 50.7503C134.394 50.6496 134.46 50.5623 134.556 50.5298L141.232 48.2832C141.303 48.2586 141.383 48.2698 141.447 48.3112C141.511 48.3537 141.551 48.422 141.557 48.4981L142.288 58.1675C143.4 59.3361 142.941 60.1858 142.562 60.5921C141.789 61.4193 139.956 61.9096 138.14 61.9096ZM134.873 50.9429L134.487 58.3175C134.483 58.379 134.457 58.4384 134.412 58.482C134.136 58.7496 133.998 59.1223 134.033 59.5052C134.07 59.8902 134.278 60.2339 134.604 60.4466C134.613 60.4522 134.62 60.4589 134.628 60.4656C136.322 61.9085 140.976 61.5682 142.198 60.2563C142.374 60.0682 142.908 59.494 141.87 58.4484C141.829 58.407 141.804 58.3522 141.8 58.294L141.087 48.8519L134.873 50.9429Z" fill="black"/>
<path d="M134.24 58.5514C134.236 58.5514 134.231 58.5514 134.227 58.5514C134.091 58.5447 133.985 58.4283 133.992 58.2928L134.387 50.7503C134.393 50.6496 134.459 50.5623 134.555 50.5298L141.231 48.2832C141.302 48.2586 141.382 48.2698 141.446 48.3112C141.51 48.3537 141.55 48.422 141.556 48.4981L142.293 58.257C142.303 58.3925 142.201 58.5111 142.066 58.5212C141.93 58.5324 141.811 58.4294 141.801 58.294L141.088 48.8519L134.873 50.944L134.487 58.3186C134.479 58.4496 134.37 58.5514 134.24 58.5514Z" fill="black"/>
<path d="M148.135 46.5816C149.002 44.2399 148.618 41.4402 147.298 39.3447C146.197 37.5985 145.572 38.1302 143.057 35.56C140.375 32.8209 140.332 31.4474 138.901 31.3119C137.252 31.1563 135.233 32.7783 134.259 33.8261C131.01 37.5033 131.735 41.6753 132.899 44.2287C135.746 49.6096 145.528 53.5185 148.135 46.5816Z" fill="black"/>
<path d="M142.232 47.0988C143.639 47.71 143.409 49.7294 142.217 50.4682C140.858 51.5641 138.941 50.3339 138.578 52.5827C137.159 55.4887 133.09 54.4174 130.804 53.195C128.826 52.1249 129.022 49.7887 129.863 47.9764C130.827 45.4589 131.791 42.9414 132.755 40.4238C134.417 41.8052 136.525 42.6436 138.684 42.7835C139.092 42.8104 139.581 42.8619 139.759 43.2279C140.15 44.5387 137.83 47.1425 139.503 47.9551C139.863 48.0145 140.015 47.701 140.279 47.5029C140.827 47.0921 141.563 46.8234 142.232 47.0988Z" fill="white"/>
<path d="M135.25 54.6894C133.679 54.6894 131.962 54.0938 130.687 53.4121C128.554 52.2569 128.748 49.7931 129.64 47.8722L132.525 40.3353C132.553 40.2615 132.616 40.2055 132.694 40.1853C132.771 40.1652 132.853 40.1831 132.915 40.2346C134.538 41.5835 136.594 42.4006 138.701 42.5383C139.087 42.5629 139.731 42.6055 139.983 43.1215C139.988 43.1338 139.993 43.1461 139.997 43.1585C140.178 43.764 139.891 44.5196 139.586 45.3189C139.113 46.5603 138.875 47.3461 139.577 47.7166C139.679 47.7222 139.751 47.6629 139.902 47.5129C139.968 47.4469 140.043 47.373 140.131 47.3069C140.863 46.7562 141.663 46.5984 142.327 46.8715C142.328 46.8726 142.331 46.8726 142.332 46.8737C142.985 47.1581 143.39 47.7424 143.444 48.4778C143.507 49.3431 143.072 50.223 142.362 50.6707C141.772 51.1409 141.098 51.2159 140.504 51.2819C139.606 51.3827 139.013 51.4487 138.824 52.623C138.82 52.6465 138.812 52.67 138.802 52.6912C138.371 53.5733 137.683 54.1722 136.757 54.4711C136.285 54.6233 135.775 54.6894 135.25 54.6894ZM132.865 40.829L130.095 48.0648C129.29 49.7987 129.09 51.9871 130.922 52.9789C132.458 53.8006 134.87 54.5629 136.603 54.0021C137.385 53.7502 137.97 53.2465 138.34 52.5065C138.6 50.9976 139.581 50.8879 140.447 50.7916C141.005 50.7289 141.581 50.6651 142.062 50.2778C142.07 50.2711 142.078 50.2655 142.087 50.2599C142.645 49.914 142.999 49.1954 142.95 48.5136C142.927 48.1924 142.79 47.6125 142.136 47.3271C141.429 47.0383 140.707 47.4928 140.428 47.7021C140.368 47.748 140.311 47.804 140.251 47.8633C140.08 48.0323 139.848 48.2651 139.463 48.2002C139.44 48.1969 139.417 48.189 139.396 48.1789C138.192 47.5935 138.687 46.2928 139.123 45.1454C139.381 44.4681 139.647 43.7685 139.529 43.3208C139.404 43.098 139.021 43.0543 138.67 43.032C136.571 42.8943 134.524 42.1152 132.865 40.829Z" fill="black"/>
<path d="M139.562 49.9824C139.479 49.9824 139.399 49.941 139.352 49.866C139.28 49.7507 139.315 49.5984 139.432 49.5268C140.003 49.1708 140.687 49.0253 141.353 49.1149C141.488 49.1328 141.583 49.257 141.565 49.3925C141.547 49.5268 141.427 49.6208 141.287 49.604C140.742 49.5302 140.16 49.6555 139.692 49.9455C139.652 49.9712 139.607 49.9824 139.562 49.9824Z" fill="black"/>
</svg>
