<svg width="214" height="216" viewBox="0 0 214 216" fill="none" xmlns="http://www.w3.org/2000/svg">
<rect y="1" width="214" height="214" fill="white"/>
<path d="M137.206 1.32812H45.7943C40.5655 1.32812 36.3267 5.58966 36.3267 10.8465V205.153C36.3267 210.41 40.5655 214.672 45.7943 214.672H137.206C142.435 214.672 146.674 210.41 146.674 205.153V10.8465C146.674 5.58966 142.435 1.32812 137.206 1.32812Z" fill="white" stroke="black"/>
<path d="M137.206 1.32812H45.7943C40.5655 1.32812 36.3267 5.58966 36.3267 10.8465V205.153C36.3267 210.41 40.5655 214.672 45.7943 214.672H137.206C142.435 214.672 146.674 210.41 146.674 205.153V10.8465C146.674 5.58966 142.435 1.32812 137.206 1.32812Z" stroke="black"/>
<path d="M101.294 12.1594H81.7061V12.8159H101.294V12.1594Z" fill="black"/>
<path d="M97.0499 26.9294H44.1616V63.6902H97.0499V26.9294Z" stroke="black"/>
<path d="M61.9673 36.8338L54.8972 56.1411H53.1016L60.817 35.6068H62.0655L61.9673 36.8338ZM68.3921 56.1411L61.308 36.8338L61.2098 35.6068H62.4583L70.1877 56.1411H68.3921ZM67.1296 48.892V50.387H56.286V48.892H67.1296ZM82.6867 53.1794V34.4785H84.3701V56.1411H82.7989L82.6867 53.1794ZM72.1516 48.6664V48.3702C72.1516 47.1855 72.2873 46.1184 72.5584 45.1688C72.8297 44.2097 73.2178 43.3917 73.7227 42.7148C74.2371 42.0284 74.8544 41.5066 75.5745 41.1493C76.2946 40.7827 77.1082 40.5993 78.0154 40.5993C78.9038 40.5993 79.6894 40.745 80.372 41.0365C81.0548 41.328 81.6393 41.7464 82.1256 42.2917C82.6212 42.8371 83.0187 43.4858 83.318 44.238C83.6266 44.9901 83.851 45.8269 83.9913 46.7483V50.5139C83.8791 51.3789 83.6733 52.1734 83.3741 52.8974C83.0748 53.6119 82.6773 54.2371 82.1817 54.7731C81.686 55.2996 81.0875 55.7086 80.3861 56.0001C79.694 56.2821 78.8944 56.4232 77.9873 56.4232C77.0895 56.4232 76.2806 56.2351 75.5605 55.859C74.8403 55.4829 74.2278 54.9518 73.7227 54.2654C73.2178 53.5696 72.8297 52.7469 72.5584 51.7973C72.2873 50.8477 72.1516 49.8041 72.1516 48.6664ZM73.835 48.3702V48.6664C73.835 49.5596 73.9239 50.387 74.1015 51.1485C74.2793 51.9101 74.5504 52.573 74.9152 53.1371C75.2799 53.7012 75.7428 54.1431 76.304 54.4628C76.865 54.7825 77.5291 54.9423 78.2959 54.9423C79.2592 54.9423 80.0681 54.759 80.7227 54.3923C81.3774 54.0162 81.9011 53.5226 82.2939 52.9115C82.6867 52.2909 82.9719 51.6139 83.1496 50.8806V46.4945C83.0374 45.9962 82.8737 45.4884 82.6586 44.9713C82.4436 44.4542 82.149 43.9794 81.7749 43.5469C81.4102 43.105 80.9425 42.7524 80.372 42.4891C79.811 42.2165 79.1283 42.0802 78.324 42.0802C77.5477 42.0802 76.8791 42.24 76.3179 42.5596C75.7569 42.8793 75.2892 43.326 74.9152 43.8995C74.5504 44.4636 74.2793 45.1265 74.1015 45.8881C73.9239 46.6496 73.835 47.477 73.835 48.3702Z" fill="black"/>
<path d="M103.906 27.5859H139.165" stroke="black"/>
<path d="M103.906 43.9968H139.165" stroke="black"/>
<path d="M103.906 60.408H139.165" stroke="black"/>
<path d="M138.838 72.8804H44.1616V141.15H138.838V72.8804Z" stroke="black"/>
<path d="M64.5161 102.917C69.09 101.835 71.9223 97.2443 70.8423 92.663C69.7623 88.0817 65.1789 85.2452 60.6051 86.327C56.0312 87.4088 53.199 91.9993 54.279 96.5806C55.359 101.162 59.9423 103.998 64.5161 102.917Z" fill="black" fill-opacity="0.06"/>
<path d="M43.8354 152.31H139.165" stroke="black"/>
<path d="M43.8354 168.721H139.165" stroke="black"/>
<path d="M43.8354 185.132H80.4002" stroke="black"/>
<path d="M36 194.948H147" stroke="black"/>
<path d="M91.1735 210.077C93.3372 210.077 95.0912 208.313 95.0912 206.138C95.0912 203.963 93.3372 202.199 91.1735 202.199C89.0099 202.199 87.2559 203.963 87.2559 206.138C87.2559 208.313 89.0099 210.077 91.1735 210.077Z" stroke="black"/>
<path d="M100.791 73.5902C96.6322 70.5003 90.3442 71.9156 86.6733 74.1168C82.8708 76.3973 83.1917 78.7326 77.5176 82.3624C75.0855 83.9185 73.0835 84.7312 71.5293 85.2287C69.6242 85.838 67.6467 86.1744 65.6636 86.3276C61.615 86.6395 57.5552 86.1745 53.5367 85.6692C49.4992 85.1628 45.4494 84.5837 41.3763 84.5881C37.0825 84.5926 32.8713 85.3718 28.9285 87.2163C20.888 90.9792 13.906 98.5664 11.6521 107.707C9.48634 116.489 11.5719 125.949 17.1703 132.802C19.8976 136.14 23.3468 138.757 27.1994 140.426C31.3873 142.241 35.9517 143.034 40.446 143.346C49.4568 143.972 58.5891 142.282 66.8936 138.53C74.7212 134.994 81.7166 129.621 87.3194 122.829C92.6281 116.397 96.6667 108.804 99.0721 100.642C99.5745 98.9375 99.9979 97.2081 100.353 95.4631C102.602 91.726 104.754 87.5215 104.856 82.9951C104.897 81.2411 104.45 76.309 100.791 73.5902Z" fill="black"/>
<path d="M25.5552 136.257C25.5552 136.257 22.8068 158.919 29.8468 164.823C37.4527 171.202 45.4809 171.958 62.521 157.729L68.0247 120.188C68.2374 119.321 68.4502 118.453 68.663 117.585C65.8889 118.543 62.7115 119.956 59.4506 122.082C49.5228 128.552 44.8314 137.695 42.836 142.436C37.0761 140.375 31.3151 138.316 25.5552 136.257Z" fill="#305DFF"/>
<path d="M139.217 126.24L124.105 99.0849L134.166 96.0073L148.176 124.502L139.217 126.24Z" fill="black"/>
<path d="M135.802 101.516H125.491C122.612 101.516 120.278 99.1743 120.278 96.2856V88.7119C120.278 85.8232 122.612 83.4812 125.491 83.4812H135.802V101.516Z" fill="white"/>
<path d="M135.802 101.764H125.491C122.481 101.764 120.032 99.3065 120.032 96.2859V88.7121C120.032 85.6915 122.481 83.2344 125.491 83.2344H135.802C135.938 83.2344 136.047 83.345 136.047 83.4803V101.517C136.049 101.653 135.938 101.764 135.802 101.764ZM125.491 83.7274C122.752 83.7274 120.524 85.9632 120.524 88.7121V96.2859C120.524 99.0348 122.752 101.271 125.491 101.271H135.557V83.7274H125.491Z" fill="black"/>
<path d="M197.799 69.7377C197.799 69.7377 195.532 62.0566 189.312 62.7251C184.771 63.2125 155.866 73.1942 140.59 78.5479C134.94 80.5277 131.156 85.8779 131.156 91.8833C131.156 99.1016 136.579 105.158 143.731 105.929L191.077 111.033C191.077 111.033 196.427 111.287 198.763 103.752C201.097 96.2174 197.799 69.7377 197.799 69.7377Z" fill="white"/>
<path d="M191.111 111.28C191.083 111.28 191.066 111.28 191.064 111.279L143.703 106.173C136.409 105.387 130.909 99.2435 130.909 91.8821C130.909 85.7784 134.766 80.3264 140.508 78.3141C156.79 72.6084 184.778 62.9642 189.286 62.4791C195.628 61.7971 198.011 69.5878 198.035 69.666C198.038 69.6795 198.041 69.6918 198.042 69.7052C198.177 70.7884 201.321 96.3246 198.995 103.824C196.747 111.078 191.654 111.28 191.111 111.28ZM190.057 62.9307C189.823 62.9307 189.584 62.943 189.338 62.9698C184.879 63.4494 156.932 73.0812 140.671 78.7792C135.126 80.7221 131.402 85.9885 131.402 91.8821C131.402 98.9908 136.714 104.924 143.757 105.683L191.102 110.787C191.301 110.793 196.279 110.926 198.527 103.677C200.793 96.3694 197.667 70.6688 197.559 69.7868C197.434 69.3944 195.325 62.9307 190.057 62.9307Z" fill="black"/>
<path d="M190.848 111.035C197.976 111.035 203.755 100.164 203.755 86.7545C203.755 73.3445 197.976 62.4736 190.848 62.4736C183.719 62.4736 177.941 73.3445 177.941 86.7545C177.941 100.164 183.719 111.035 190.848 111.035Z" fill="white"/>
<path d="M190.848 111.281C183.596 111.281 177.695 100.279 177.695 86.7545C177.695 73.2302 183.595 62.2278 190.848 62.2278C198.1 62.2278 204 73.2302 204 86.7545C204 100.279 198.101 111.281 190.848 111.281ZM190.848 62.7208C183.866 62.7208 178.186 73.5018 178.186 86.7545C178.186 100.007 183.866 110.788 190.848 110.788C197.83 110.788 203.51 100.007 203.51 86.7545C203.51 73.5018 197.83 62.7208 190.848 62.7208Z" fill="black"/>
<path d="M182.441 96.8437C182.313 96.8437 182.205 96.7431 182.196 96.6123C182.187 96.4759 182.291 96.3597 182.426 96.3507C185.815 96.1383 189.021 93.9059 190.406 90.7948C191.791 87.6836 191.307 83.7978 189.203 81.1238C187.778 79.3128 185.605 78.0563 183.241 77.6751C183.108 77.6538 183.016 77.5275 183.037 77.3922C183.059 77.2581 183.182 77.1653 183.319 77.1877C185.803 77.5879 188.088 78.9115 189.587 80.8175C191.801 83.6312 192.31 87.7205 190.853 90.9949C189.396 94.2681 186.021 96.6179 182.455 96.8415C182.451 96.8437 182.446 96.8437 182.441 96.8437Z" fill="black"/>
<path d="M53.4199 195.043H112.325C113.18 185.821 115.174 173.961 116.885 156.038C116.885 156.038 133.011 164.812 144.214 163.312C155.418 161.813 162.121 143.042 157.152 132.622L153.08 123.724C153.08 123.724 137.931 116.039 129.914 122.763L133.701 133.317L118.235 121.287C114.296 118.223 109.53 116.421 104.556 116.119C94.89 115.532 85.9661 114.481 71.0004 117.005C65.8087 117.88 61.3857 121.27 59.1965 126.073C57.6346 129.499 54.8549 142.065 55.1122 155.35C55.4264 171.482 54.4449 184.113 53.4199 195.043Z" fill="#305DFF"/>
<path d="M137.288 142.24C137.191 142.24 137.1 142.182 137.061 142.087L134.044 134.677C133.992 134.55 134.053 134.407 134.178 134.356C134.304 134.304 134.447 134.365 134.498 134.491L137.515 141.902C137.566 142.028 137.506 142.171 137.38 142.222C137.35 142.234 137.319 142.24 137.288 142.24Z" fill="black"/>
<path d="M132.918 131.138C132.918 131.138 146.78 133.059 154.697 127.257L153.08 123.725C153.08 123.725 155.17 121.652 153.054 120.891C153.054 120.891 155.023 116.952 151.602 116.719C151.602 116.719 153.878 111.582 148.621 112.558C148.621 112.558 151.779 106.761 145.889 108.162C141.228 109.271 140.256 110.793 140.256 110.793C140.256 110.793 142.856 104.335 139.597 105.003C138.574 105.213 137.008 105.891 135.355 106.923C130.044 110.241 127.795 116.857 129.914 122.764L132.918 131.138Z" fill="white"/>
<path d="M138.193 131.677C135.105 131.677 132.94 131.39 132.885 131.382C132.795 131.37 132.718 131.307 132.688 131.221L129.683 122.847C127.532 116.849 129.863 110.065 135.226 106.713C136.818 105.718 138.435 104.988 139.549 104.76C140.23 104.621 140.746 104.754 141.081 105.157C141.907 106.153 141.285 108.56 140.831 109.928C141.614 109.363 143.109 108.569 145.832 107.921C147.588 107.504 148.768 107.672 149.338 108.423C150.147 109.488 149.44 111.384 149.05 112.238C150.401 112.067 151.353 112.318 151.881 112.99C152.711 114.047 152.207 115.796 151.949 116.506C152.726 116.622 153.276 116.955 153.584 117.498C154.199 118.579 153.638 120.158 153.383 120.759C153.848 120.979 154.129 121.294 154.218 121.696C154.401 122.523 153.671 123.439 153.374 123.771L154.921 127.152C154.97 127.258 154.937 127.384 154.843 127.454C150.031 130.982 142.995 131.677 138.193 131.677ZM133.099 130.912C134.591 131.091 147.054 132.397 154.391 127.175L152.858 123.827C152.814 123.733 152.836 123.623 152.908 123.549C153.185 123.273 153.875 122.421 153.739 121.804C153.674 121.511 153.416 121.282 152.971 121.122C152.906 121.098 152.852 121.047 152.827 120.982C152.801 120.916 152.803 120.844 152.834 120.78C152.844 120.761 153.786 118.844 153.159 117.742C152.893 117.279 152.365 117.016 151.587 116.963C151.506 116.958 151.434 116.914 151.393 116.845C151.352 116.775 151.346 116.692 151.378 116.618C151.388 116.595 152.35 114.383 151.495 113.297C151.03 112.704 150.078 112.536 148.667 112.798C148.574 112.816 148.478 112.777 148.424 112.701C148.368 112.624 148.361 112.522 148.407 112.438C148.798 111.719 149.657 109.652 148.95 108.722C148.507 108.141 147.498 108.032 145.948 108.401C141.484 109.463 140.473 110.913 140.465 110.928C140.394 111.033 140.256 111.069 140.145 111.009C140.033 110.95 139.984 110.817 140.031 110.701C140.487 109.569 141.495 106.425 140.705 105.473C140.492 105.217 140.147 105.141 139.649 105.244C138.588 105.461 137.033 106.168 135.488 107.132C130.32 110.361 128.074 116.901 130.148 122.68L133.099 130.912Z" fill="black"/>
<path d="M136.074 120.457L141.849 131.689C142.836 133.607 145.125 134.446 147.111 133.617C149.254 132.723 150.244 130.234 149.304 128.106L148.926 127.25C148.926 127.25 144.659 128.027 146.332 125.159C146.332 125.159 141.502 125.737 143.89 121.948C143.89 121.948 142.704 122.343 141.654 121.863C140.12 121.162 138.878 119.204 142.06 116.453C139.6 117.524 137.289 117.098 137.289 117.098C137.289 117.098 136.669 119.259 136.074 120.457Z" fill="black"/>
<path d="M140.107 117.774C140.02 117.774 139.935 117.727 139.891 117.645C139.826 117.526 139.87 117.376 139.989 117.311C142.5 115.939 145.016 114.494 147.467 113.014C147.582 112.944 147.734 112.982 147.803 113.098C147.873 113.214 147.835 113.366 147.72 113.435C145.263 114.919 142.741 116.369 140.223 117.743C140.187 117.764 140.146 117.774 140.107 117.774Z" fill="black"/>
<path d="M141.602 123.616C141.514 123.616 141.429 123.568 141.385 123.484C141.322 123.363 141.367 123.215 141.488 123.151C144.811 121.39 148.071 119.421 151.176 117.297C151.288 117.221 151.441 117.249 151.517 117.361C151.594 117.474 151.565 117.627 151.452 117.703C148.331 119.838 145.056 121.816 141.716 123.586C141.68 123.607 141.64 123.616 141.602 123.616Z" fill="black"/>
<path d="M144.561 126.328C144.474 126.328 144.39 126.282 144.346 126.201C144.28 126.081 144.323 125.931 144.443 125.866L151.675 121.865C151.793 121.801 151.944 121.843 152.008 121.963C152.074 122.082 152.031 122.232 151.911 122.297L144.679 126.298C144.642 126.318 144.601 126.328 144.561 126.328Z" fill="black"/>
<path d="M137.721 117.661C137.717 117.661 137.712 117.661 137.708 117.661C136.752 117.611 136.096 116.662 136.035 115.81C135.983 115.083 136.242 114.31 136.824 113.447C137.502 112.443 138.406 111.568 139.441 110.915C139.556 110.842 139.707 110.877 139.78 110.992C139.852 111.107 139.818 111.259 139.703 111.332C138.726 111.949 137.87 112.776 137.231 113.723C136.712 114.491 136.481 115.163 136.525 115.774C136.57 116.419 137.067 117.134 137.733 117.168C137.869 117.175 137.973 117.291 137.966 117.426C137.959 117.56 137.85 117.661 137.721 117.661Z" fill="black"/>
<path d="M33.8055 102.726C30.5568 100.113 27.5253 96.6958 25.8497 98.3939C24.1752 100.092 28.6416 104.664 28.6416 104.664C23.529 103.888 20.4073 97.4806 18.4008 98.2519C16.3944 99.0233 17.8505 102.238 17.8505 102.238C17.8505 102.238 15.864 98.2072 13.491 99.6929C11.118 101.18 14.555 105.44 14.555 105.44C14.555 105.44 11.5046 101.859 9.52037 104.651C7.53505 107.443 16.9403 112.894 16.9403 112.894C15.0574 111.942 11.9825 111.497 11.5046 112.931C11.0266 114.365 14.4737 115.898 17.953 118.039C21.4323 120.18 26.9159 121.591 26.9159 121.591C26.2675 128.664 25.5478 134.851 25.2603 140.047C25.1233 142.528 26.7844 144.759 29.1965 145.321C29.6688 145.431 30.1423 145.53 30.618 145.619C34.7101 146.378 38.9236 146.374 43.0447 145.854L43.0937 145.848C45.8233 145.502 47.7217 142.952 47.2738 140.229C46.2132 133.784 44.0362 123.396 43.1271 116.967C41.9217 108.442 37.0542 105.338 33.8055 102.726Z" fill="white"/>
<path d="M25.3332 142.682C25.3321 142.682 25.331 142.682 25.3299 142.682C25.194 142.68 25.0859 142.569 25.087 142.433C25.1561 136.649 25.6374 130.271 26.6468 121.776C25.6073 121.492 20.9114 120.149 17.8253 118.25C17.0856 117.795 16.3536 117.37 15.645 116.961C12.8509 115.342 10.8321 114.174 11.2722 112.855C11.4037 112.46 11.6967 112.166 12.1412 111.983C12.8765 111.679 13.9304 111.717 14.9654 111.945C12.8085 110.504 9.49076 108.002 9.05069 105.97C8.93148 105.42 9.02284 104.928 9.32142 104.509C9.84839 103.769 10.4968 103.376 11.2488 103.343C11.9908 103.312 12.7216 103.639 13.3199 104.035C12.7829 103.085 12.2749 101.863 12.4442 100.849C12.5423 100.264 12.8509 99.8058 13.3611 99.485C13.6753 99.2882 14.0017 99.1698 14.3315 99.1317C14.4708 99.115 14.5878 99.2134 14.6034 99.3486C14.619 99.4839 14.522 99.6057 14.3872 99.6214C14.1299 99.6505 13.8725 99.7455 13.6207 99.9031C13.2286 100.149 13.0024 100.484 12.9278 100.929C12.6403 102.649 14.7248 105.26 14.746 105.286C14.8306 105.391 14.815 105.544 14.7125 105.63C14.6089 105.716 14.4563 105.704 14.3694 105.601C14.3538 105.583 12.7829 103.762 11.2689 103.835C10.675 103.862 10.1548 104.184 9.72027 104.794C9.50302 105.1 9.44063 105.45 9.52975 105.865C10.1291 108.634 16.9931 112.642 17.0633 112.682C17.178 112.749 17.2193 112.895 17.1569 113.013C17.0934 113.13 16.9496 113.176 16.8304 113.116C15.4735 112.429 13.418 111.988 12.3284 112.438C12.0164 112.567 11.8237 112.754 11.7379 113.01C11.4259 113.948 13.4948 115.147 15.8901 116.534C16.6009 116.946 17.3362 117.371 18.0816 117.83C21.4896 119.927 26.9219 121.34 26.9765 121.353C27.0957 121.384 27.1737 121.499 27.1592 121.622C26.1343 130.205 25.6463 136.625 25.5783 142.438C25.5772 142.573 25.468 142.682 25.3332 142.682Z" fill="black"/>
<path d="M20.146 114.625C20.1081 114.625 20.0691 114.616 20.0323 114.597L17.168 113.099C17.0477 113.036 17.0009 112.887 17.0633 112.767C17.1257 112.646 17.2738 112.599 17.3942 112.662L20.2585 114.16C20.3788 114.222 20.4256 114.371 20.3632 114.492C20.3209 114.576 20.2351 114.625 20.146 114.625Z" fill="black"/>
<path d="M22.2845 110.172C22.2534 110.172 22.221 110.167 22.191 110.153C19.5762 109.071 17.1174 107.639 14.8847 105.896C14.7778 105.813 14.7588 105.658 14.8413 105.551C14.9248 105.444 15.0786 105.425 15.1855 105.507C17.3836 107.223 19.8034 108.633 22.377 109.697C22.5029 109.749 22.562 109.893 22.5107 110.019C22.4728 110.115 22.3815 110.172 22.2845 110.172Z" fill="black"/>
<path d="M24.8142 106.797C24.7886 106.797 24.7641 106.793 24.7385 106.785C22.2685 105.98 19.9412 104.638 18.006 102.902C17.9046 102.811 17.8968 102.656 17.9871 102.554C18.0773 102.452 18.2322 102.443 18.3335 102.535C20.2175 104.226 22.4847 105.534 24.89 106.317C25.0192 106.359 25.0894 106.498 25.0482 106.627C25.0137 106.731 24.9179 106.797 24.8142 106.797Z" fill="black"/>
<path d="M29.7656 112.907C29.642 112.907 29.5361 112.814 29.5216 112.688C29.4214 111.797 29.5829 110.912 29.7378 110.057C29.8068 109.68 29.877 109.291 29.9238 108.912C30.0274 108.062 30.0497 106.511 29.0348 105.677C28.93 105.591 28.9144 105.436 29.0002 105.331C29.086 105.226 29.2409 105.21 29.3456 105.296C30.5421 106.28 30.5265 108.022 30.4107 108.973C30.3628 109.367 30.2904 109.763 30.2213 110.147C30.0653 111.004 29.9182 111.815 30.0096 112.633C30.0252 112.768 29.9283 112.89 29.7935 112.906C29.7846 112.907 29.7756 112.907 29.7656 112.907Z" fill="black"/>
<path d="M29.8471 123.368C29.7903 123.368 29.7335 123.348 29.6867 123.309C29.0305 122.742 28.2896 122.29 27.4841 121.968C27.3582 121.918 27.297 121.775 27.3471 121.649C27.3972 121.522 27.5409 121.461 27.6657 121.511C28.5213 121.853 29.309 122.333 30.0064 122.935C30.1089 123.024 30.1212 123.18 30.0321 123.283C29.9842 123.339 29.9151 123.368 29.8471 123.368Z" fill="black"/>
<path d="M54.2274 161.887C54.2184 161.887 54.2095 161.887 54.2006 161.886C54.0658 161.872 53.9689 161.75 53.9834 161.614L55.181 150.648C55.1955 150.513 55.3136 150.414 55.4517 150.43C55.5866 150.444 55.6835 150.566 55.669 150.702L54.4713 161.668C54.458 161.793 54.351 161.887 54.2274 161.887Z" fill="black"/>
<path d="M49.6256 153.233C49.503 153.233 49.3983 153.142 49.3827 153.017C48.9605 149.638 48.321 146.25 47.4798 142.952C47.4464 142.82 47.5255 142.686 47.657 142.652C47.7873 142.618 47.9221 142.698 47.9555 142.83C48.8011 146.149 49.4451 149.555 49.8696 152.956C49.8863 153.091 49.7905 153.214 49.6568 153.231C49.6456 153.232 49.6356 153.233 49.6256 153.233Z" fill="black"/>
<path d="M83.1976 117.336L84.344 104.393C84.4097 103.508 86.5577 100.352 87.3286 100.504L94.06 105.03C94.7207 105.161 95.1975 105.825 95.1775 106.586L94.9112 116.576C94.8655 118.276 94.0021 119.804 92.6596 120.547C90.9528 121.49 88.3102 122.174 84.9478 120.608C83.7981 120.074 83.094 118.739 83.1976 117.336Z" fill="white"/>
<path d="M85.6305 98.4335C85.6305 98.4335 84.4462 97.2608 83.0669 98.0813C81.7089 98.8885 81.2766 100.857 81.9473 102.29C82.618 103.723 84.2902 104.575 85.8566 104.383C86.7412 104.275 87.5512 104.082 88.2475 103.309C89.795 104.579 91.6266 105.547 93.5985 105.874C95.5716 106.202 97.6906 105.847 99.3305 104.699C102.075 102.778 102.998 98.9891 102.429 95.6812C101.86 92.3722 100.07 89.4221 98.2922 86.5781C98.2922 86.5781 96.298 92.3308 88.0046 92.0212C88.8313 95.2508 88.321 97.5783 85.6305 98.4335Z" fill="white"/>
<path d="M95.0121 106.236C94.532 106.236 94.0451 106.197 93.5594 106.116C91.7568 105.816 89.9319 104.962 88.2685 103.639C87.5187 104.368 86.6497 104.531 85.8866 104.625C84.1775 104.834 82.4273 103.896 81.7243 102.393C80.9689 100.78 81.5271 98.7072 82.9409 97.8665C84.0706 97.1958 85.1691 97.7134 85.6883 98.1516C87.9321 97.3724 88.6117 95.3836 87.7661 92.078C87.7471 92.0031 87.7638 91.9226 87.8128 91.8623C87.8619 91.8019 87.9332 91.7683 88.0134 91.7706C96.0405 92.0747 98.0403 86.5489 98.0592 86.493C98.0904 86.4035 98.1695 86.3398 98.2631 86.3286C98.3556 86.3163 98.4491 86.3622 98.4982 86.4427C100.089 88.987 102.07 92.154 102.669 95.6352C103.324 99.4427 102.069 103.078 99.4697 104.898C98.2252 105.773 96.6532 106.236 95.0121 106.236ZM88.2485 103.061C88.303 103.061 88.3588 103.079 88.4033 103.117C90.0466 104.465 91.857 105.335 93.6396 105.63C95.6594 105.966 97.6838 105.552 99.1911 104.497C101.97 102.552 102.698 98.6882 102.188 95.7224C101.635 92.5106 99.8496 89.5359 98.3288 87.0978C97.6648 88.4225 95.1692 92.2781 88.6384 92.2781C88.5337 92.2781 88.4278 92.277 88.322 92.2748C89.1197 95.7123 88.2407 97.8632 85.7061 98.668C85.6192 98.696 85.5245 98.6725 85.4599 98.6088C85.4142 98.5641 84.3881 97.5837 83.1938 98.2924C82.0084 98.9967 81.5304 100.816 82.1711 102.185C82.7872 103.501 84.3224 104.324 85.8286 104.137C86.7611 104.023 87.4608 103.816 88.0669 103.142C88.1148 103.089 88.1816 103.061 88.2485 103.061Z" fill="black"/>
<path d="M86.7603 101.936C86.7079 101.936 86.6544 101.919 86.6087 101.883C85.9102 101.334 85.0011 101.054 84.1154 101.114C83.9783 101.125 83.8625 101.02 83.8536 100.885C83.8447 100.75 83.9472 100.631 84.082 100.622C85.0891 100.554 86.1174 100.873 86.9107 101.495C87.0176 101.579 87.0365 101.733 86.953 101.841C86.9051 101.903 86.8338 101.936 86.7603 101.936Z" fill="black"/>
<path d="M98.2087 87.0396C98.1664 87.0396 98.1229 87.0284 98.084 87.0061C97.967 86.9368 97.928 86.7858 97.9971 86.6685C98.5162 85.7842 98.8037 84.7747 98.8304 83.7496C98.8337 83.6155 98.9429 83.5093 99.0755 83.5093C99.0777 83.5093 99.08 83.5093 99.0822 83.5093C99.2181 83.5126 99.3251 83.6255 99.3217 83.7619C99.2939 84.8709 98.9819 85.9631 98.4204 86.9189C98.3747 86.996 98.2934 87.0396 98.2087 87.0396Z" fill="black"/>
</svg>
