<svg width="522" height="473" viewBox="0 0 522 473" fill="none" xmlns="http://www.w3.org/2000/svg">
<mask id="path-1-inside-1_109_13132" fill="white">
<path d="M190.114 452.911C236.369 473.299 287.939 478.329 337.262 467.266C386.585 456.202 431.066 429.627 464.181 391.436C497.297 353.246 517.305 305.449 521.271 255.057C525.237 204.664 512.953 154.326 486.22 111.425L485.485 111.883C512.12 154.627 524.359 204.78 520.407 254.989C516.455 305.197 496.521 352.818 463.527 390.869C430.533 428.919 386.215 455.398 337.073 466.421C287.93 477.443 236.549 472.431 190.464 452.118L190.114 452.911Z"/>
</mask>
<path d="M190.114 452.911C236.369 473.299 287.939 478.329 337.262 467.266C386.585 456.202 431.066 429.627 464.181 391.436C497.297 353.246 517.305 305.449 521.271 255.057C525.237 204.664 512.953 154.326 486.22 111.425L485.485 111.883C512.12 154.627 524.359 204.78 520.407 254.989C516.455 305.197 496.521 352.818 463.527 390.869C430.533 428.919 386.215 455.398 337.073 466.421C287.93 477.443 236.549 472.431 190.464 452.118L190.114 452.911Z" stroke="#212121" stroke-width="2" mask="url(#path-1-inside-1_109_13132)"/>
<mask id="path-2-inside-2_109_13132" fill="white">
<path d="M49 236.5C49 291.073 67.8736 343.967 102.421 386.214L103.091 385.665C68.6708 343.574 49.8664 290.873 49.8664 236.5H49Z"/>
</mask>
<path d="M49 236.5C49 291.073 67.8736 343.967 102.421 386.214L103.091 385.665C68.6708 343.574 49.8664 290.873 49.8664 236.5H49Z" stroke="#212121" stroke-width="2" mask="url(#path-2-inside-2_109_13132)"/>
<mask id="path-3-inside-3_109_13132" fill="white">
<path d="M209.841 460.571C247.32 473.226 287.374 476.278 326.337 469.448C365.3 462.617 401.927 446.123 432.866 421.474C463.806 396.825 488.068 364.81 503.432 328.358C518.796 291.906 524.772 252.183 520.812 212.825L519.95 212.911C523.895 252.126 517.942 291.704 502.634 328.022C487.326 364.34 463.152 396.238 432.327 420.796C401.501 445.355 365.008 461.789 326.187 468.594C287.367 475.4 247.459 472.359 210.118 459.75L209.841 460.571Z"/>
</mask>
<path d="M209.841 460.571C247.32 473.226 287.374 476.278 326.337 469.448C365.3 462.617 401.927 446.123 432.866 421.474C463.806 396.825 488.068 364.81 503.432 328.358C518.796 291.906 524.772 252.183 520.812 212.825L519.95 212.911C523.895 252.126 517.942 291.704 502.634 328.022C487.326 364.34 463.152 396.238 432.327 420.796C401.501 445.355 365.008 461.789 326.187 468.594C287.367 475.4 247.459 472.359 210.118 459.75L209.841 460.571Z" stroke="#212121" stroke-width="2" mask="url(#path-3-inside-3_109_13132)"/>
<mask id="path-4-inside-4_109_13132" fill="white">
<path d="M512.914 301.423C521.985 269.65 524.297 236.33 519.702 203.609C515.107 170.889 503.706 139.494 486.235 111.449L485.5 111.907C502.907 139.849 514.265 171.129 518.844 203.73C523.422 236.331 521.118 269.529 512.081 301.185L512.914 301.423Z"/>
</mask>
<path d="M512.914 301.423C521.985 269.65 524.297 236.33 519.702 203.609C515.107 170.889 503.706 139.494 486.235 111.449L485.5 111.907C502.907 139.849 514.265 171.129 518.844 203.73C523.422 236.331 521.118 269.529 512.081 301.185L512.914 301.423Z" stroke="#212121" stroke-width="2" mask="url(#path-4-inside-4_109_13132)"/>
<mask id="path-5-inside-5_109_13132" fill="white">
<path d="M448.123 64.785C405.642 24.5537 349.757 1.49687 291.266 0.0703099C232.776 -1.35625 175.833 18.9487 131.442 57.0613L132.006 57.7187C176.235 19.7457 232.969 -0.484869 291.245 0.936462C349.521 2.35779 405.202 25.3301 447.527 65.4141L448.123 64.785Z"/>
</mask>
<path d="M448.123 64.785C405.642 24.5537 349.757 1.49687 291.266 0.0703099C232.776 -1.35625 175.833 18.9487 131.442 57.0613L132.006 57.7187C176.235 19.7457 232.969 -0.484869 291.245 0.936462C349.521 2.35779 405.202 25.3301 447.527 65.4141L448.123 64.785Z" stroke="#212121" stroke-width="2" mask="url(#path-5-inside-5_109_13132)"/>
<path d="M443.157 120.638H129.082C122.666 120.638 117.465 125.857 117.465 132.295V343.226C117.465 349.664 122.666 354.883 129.082 354.883H443.157C449.573 354.883 454.774 349.664 454.774 343.226V132.295C454.774 125.857 449.573 120.638 443.157 120.638Z" fill="white" stroke="white"/>
<path d="M443.157 120.638H129.082C122.666 120.638 117.465 125.857 117.465 132.295V343.226C117.465 349.664 122.666 354.883 129.082 354.883H443.157C449.573 354.883 454.774 349.664 454.774 343.226V132.295C454.774 125.857 449.573 120.638 443.157 120.638Z" stroke="#212121"/>
<path d="M433.006 130.823H139.234C132.818 130.823 127.616 136.042 127.616 142.48V320.505C127.616 326.943 132.818 332.162 139.234 332.162H433.006C439.422 332.162 444.624 326.943 444.624 320.505V142.48C444.624 136.042 439.422 130.823 433.006 130.823Z" stroke="#212121"/>
<path d="M243.162 242.133H139.329V314.194H243.162V242.133Z" stroke="#212121"/>
<path d="M180.754 292.192C182.482 289.725 185.597 289.457 187.717 291.604L192.323 296.27C194.442 298.414 197.641 298.209 199.473 295.818L218.298 271.203C220.13 268.808 222.714 269.049 224.071 271.741L242.787 308.838C244.144 311.527 242.803 313.711 239.792 313.711H206.258H171.16C168.149 313.711 167.109 311.708 168.831 309.236L180.754 292.192Z" fill="black" fill-opacity="0.06"/>
<path d="M178.082 279.794C182.08 278.842 184.555 274.805 183.611 270.775C182.667 266.746 178.662 264.251 174.665 265.202C170.668 266.154 168.192 270.191 169.136 274.221C170.08 278.25 174.085 280.745 178.082 279.794Z" fill="black" fill-opacity="0.06"/>
<path d="M140.489 228.767H424.721" stroke="#212121"/>
<path d="M256.055 244.41H429.117" stroke="#212121"/>
<path d="M256.055 274.959H429.117" stroke="#212121"/>
<path d="M256.055 305.508H429.117" stroke="#212121"/>
<path d="M265.426 343.131H306.812" stroke="#212121"/>
<path d="M139.328 148.057H312.389" stroke="#212121"/>
<path d="M139.328 178.606H312.389" stroke="#212121"/>
<path d="M139.328 209.155H312.389" stroke="#212121"/>
<path d="M429.223 142.576H325.39V214.637H429.223V142.576Z" stroke="#212121"/>
<path d="M358.121 159.744L344.911 195.749H341.556L355.972 157.456H358.305L358.121 159.744ZM370.126 195.749L356.889 159.744L356.706 157.456H359.039L373.481 195.749H370.126ZM367.767 182.23V185.018H347.506V182.23H367.767ZM396.836 190.226V155.352H399.981V195.749H397.045L396.836 190.226ZM377.151 181.81V181.257C377.151 179.048 377.404 177.058 377.911 175.287C378.418 173.499 379.143 171.973 380.086 170.711C381.048 169.431 382.201 168.458 383.546 167.792C384.892 167.108 386.412 166.766 388.107 166.766C389.767 166.766 391.235 167.038 392.511 167.581C393.787 168.125 394.879 168.905 395.787 169.922C396.713 170.939 397.456 172.149 398.015 173.551C398.591 174.954 399.011 176.514 399.273 178.233V185.255C399.063 186.868 398.679 188.35 398.12 189.7C397.561 191.032 396.818 192.198 395.892 193.197C394.966 194.179 393.848 194.942 392.537 195.486C391.244 196.012 389.75 196.275 388.055 196.275C386.377 196.275 384.866 195.924 383.52 195.223C382.175 194.521 381.03 193.531 380.086 192.251C379.143 190.953 378.418 189.419 377.911 187.648C377.404 185.877 377.151 183.931 377.151 181.81ZM380.296 181.257V181.81C380.296 183.475 380.462 185.018 380.794 186.438C381.126 187.859 381.633 189.095 382.315 190.147C382.996 191.199 383.861 192.023 384.909 192.619C385.958 193.215 387.198 193.513 388.632 193.513C390.431 193.513 391.943 193.171 393.166 192.487C394.389 191.786 395.367 190.866 396.102 189.726C396.836 188.569 397.369 187.306 397.701 185.939V177.759C397.491 176.83 397.185 175.883 396.783 174.919C396.381 173.955 395.831 173.069 395.132 172.263C394.45 171.439 393.577 170.781 392.511 170.29C391.462 169.782 390.187 169.527 388.684 169.527C387.234 169.527 385.984 169.825 384.936 170.422C383.887 171.018 383.013 171.851 382.315 172.92C381.633 173.972 381.126 175.208 380.794 176.628C380.462 178.049 380.296 179.592 380.296 181.257Z" fill="#212121"/>
<g clip-path="url(#clip0_109_13132)">
<path d="M227.312 140.801C228.757 142.318 230.305 143.746 231.946 145.062L255.998 162.751L280.049 145.062C292.309 135.228 299.351 119.252 297.44 104.802L292.086 71.259L255.997 63.25L219.908 71.259L214.555 104.802C212.9 117.317 217.961 130.978 227.312 140.801Z" fill="white"/>
<path d="M255.997 163C255.945 163 255.893 162.984 255.849 162.951L231.798 145.262C230.16 143.948 228.593 142.507 227.131 140.973C217.593 130.953 212.679 117.08 214.307 104.769L219.662 71.2193C219.678 71.1187 219.755 71.0373 219.854 71.0147L255.943 63.0057C255.978 62.9978 256.016 62.9978 256.051 63.0057L292.14 71.0147C292.239 71.0373 292.316 71.1176 292.332 71.2193L297.685 104.763C298.626 111.875 297.45 119.48 294.286 126.762C291.146 133.99 286.276 140.386 280.204 145.256L256.145 162.953C256.1 162.984 256.048 163 255.997 163ZM220.128 71.4659L214.801 104.841C213.193 117 218.056 130.715 227.493 140.629C228.939 142.148 230.489 143.574 232.102 144.867L255.998 162.443L279.901 144.862C292.112 135.067 299.063 118.98 297.192 104.836L291.866 71.4659L255.997 63.5055L220.128 71.4659Z" fill="#212121"/>
<path d="M255.996 70.231L225.553 76.9869L221.037 105.283C219.425 117.473 225.366 130.95 235.708 139.245L255.996 154.168V70.231Z" fill="#F7F7F7"/>
<path d="M255.997 154.168L276.286 139.245C286.628 130.95 292.569 117.472 290.956 105.283L286.44 76.988L255.997 70.231V154.168Z" fill="black" fill-opacity="0.05"/>
<path d="M253.487 102.848V124.681H247.378V127.886V128.24V131.445H253.487V135.212H247.378V138.77H251.133V141.975H253.486H254.843H260.116V102.781C265.98 101.246 270.308 95.8909 270.308 89.5206C270.308 81.9515 264.199 75.8153 256.662 75.8153C249.125 75.8153 243.016 81.9515 243.016 89.5206C243.018 95.9904 247.484 101.41 253.487 102.848ZM256.663 80.15C258.417 80.15 259.839 81.5783 259.839 83.3391C259.839 85.101 258.418 86.5282 256.663 86.5282C254.91 86.5282 253.487 85.0999 253.487 83.3391C253.487 81.5783 254.91 80.15 256.663 80.15Z" fill="white"/>
<path d="M266.936 87.6048C266.821 87.6048 266.717 87.5234 266.692 87.4058C266.062 84.3671 264.12 81.8033 261.364 80.3716C261.242 80.3083 261.195 80.1579 261.258 80.0346C261.321 79.9125 261.472 79.8639 261.595 79.9283C264.483 81.4302 266.52 84.1183 267.181 87.304C267.21 87.4386 267.123 87.5709 266.988 87.5992C266.97 87.6025 266.953 87.6048 266.936 87.6048Z" fill="#212121"/>
<path d="M246.201 90.5858C246.072 90.5858 245.962 90.4863 245.952 90.3551C245.931 90.078 245.92 89.7953 245.92 89.5171C245.92 85.4097 248.3 81.5964 251.984 79.8039C252.107 79.744 252.257 79.7949 252.317 79.9193C252.377 80.0437 252.326 80.1929 252.202 80.2529C248.689 81.9628 246.42 85.5997 246.42 89.5183C246.42 89.784 246.43 90.0532 246.45 90.3189C246.46 90.4569 246.358 90.5768 246.221 90.5869C246.213 90.5858 246.206 90.5858 246.201 90.5858Z" fill="#212121"/>
<path d="M254.926 100.162C254.912 100.162 254.898 100.161 254.884 100.159C251.883 99.6567 249.221 97.8812 247.584 95.2892C247.511 95.1728 247.546 95.019 247.662 94.9454C247.779 94.8708 247.932 94.907 248.006 95.0235C249.568 97.4967 252.104 99.1897 254.966 99.668C255.102 99.6907 255.193 99.8196 255.171 99.9553C255.151 100.075 255.045 100.162 254.926 100.162Z" fill="#212121"/>
<path d="M258.778 100.092C258.662 100.092 258.559 100.011 258.534 99.893C258.506 99.7585 258.593 99.6262 258.728 99.5979C263.469 98.6242 266.909 94.3845 266.909 89.5171C266.909 89.3792 267.021 89.2672 267.159 89.2672C267.297 89.2672 267.408 89.3792 267.408 89.5171C267.408 94.6197 263.801 99.0652 258.83 100.086C258.812 100.09 258.795 100.092 258.778 100.092Z" fill="#212121"/>
<path d="M260.117 142.223H251.134C250.996 142.223 250.884 142.111 250.884 141.973V139.018H247.378C247.24 139.018 247.128 138.906 247.128 138.769V135.211C247.128 135.073 247.24 134.961 247.378 134.961H253.238V131.693H247.378C247.24 131.693 247.128 131.581 247.128 131.443V124.68C247.128 124.542 247.24 124.43 247.378 124.43H253.238V103.044C247.062 101.474 242.767 95.9418 242.767 89.5206C242.767 81.826 249.001 75.5665 256.663 75.5665C264.325 75.5665 270.558 81.826 270.558 89.5206C270.558 95.806 266.377 101.309 260.365 102.972V141.973C260.365 142.111 260.254 142.223 260.117 142.223ZM251.384 141.725H259.867V102.781C259.867 102.668 259.944 102.569 260.054 102.539C265.945 100.997 270.061 95.6421 270.061 89.5194C270.061 82.0997 264.052 76.0641 256.664 76.0641C249.277 76.0641 243.268 82.0997 243.268 89.5194C243.268 95.7744 247.494 101.155 253.547 102.605C253.659 102.632 253.738 102.732 253.738 102.848V124.681C253.738 124.819 253.626 124.931 253.489 124.931H247.628V131.195H253.489C253.626 131.195 253.738 131.307 253.738 131.445V135.212C253.738 135.35 253.626 135.462 253.489 135.462H247.628V138.521H251.135C251.273 138.521 251.385 138.633 251.385 138.771V141.725H251.384ZM256.663 86.7782C254.774 86.7782 253.238 85.2356 253.238 83.3391C253.238 81.4426 254.774 79.9001 256.663 79.9001C258.552 79.9001 260.089 81.4426 260.089 83.3391C260.089 85.2356 258.552 86.7782 256.663 86.7782ZM256.663 80.3999C255.05 80.3999 253.737 81.7186 253.737 83.3403C253.737 84.9608 255.05 86.2794 256.663 86.2794C258.276 86.2794 259.589 84.9608 259.589 83.3403C259.59 81.7186 258.278 80.3999 256.663 80.3999Z" fill="#212121"/>
</g>
<g clip-path="url(#clip1_109_13132)">
<path d="M124.742 393.81L128.407 419.917H136.343L136.783 394.24L124.742 393.81Z" fill="white"/>
<path d="M136.343 420.695H128.407C128.027 420.695 127.704 420.412 127.65 420.03L123.985 393.923C123.954 393.694 124.022 393.465 124.173 393.294C124.325 393.124 124.543 393.015 124.769 393.038L136.811 393.469C137.228 393.482 137.558 393.834 137.548 394.257L137.107 419.934C137.1 420.354 136.76 420.695 136.343 420.695ZM129.07 419.142H135.589L136.003 394.991L125.627 394.619L129.07 419.142Z" fill="#212121"/>
<path d="M128.091 444.877C131.887 445.29 138.1 445.556 145.343 444.293C147.715 443.88 149.22 441.48 148.567 439.128C146.749 432.576 142.835 420.166 137.908 414.519L136.835 417.708L135.112 414.796C134.876 414.396 134.469 414.137 134.011 414.093L130.437 413.755C129.69 413.683 129.017 414.205 128.885 414.956L128.407 417.708L127.051 414.164L124.507 440.391C124.288 442.63 125.883 444.638 128.091 444.877Z" fill="white"/>
<path d="M134.573 446C132.002 446 129.777 445.843 128.01 445.652C125.402 445.368 123.487 442.975 123.746 440.316L126.29 414.089C126.324 413.731 126.597 413.444 126.947 413.396C127.297 413.352 127.637 413.55 127.765 413.884L128.131 414.84L128.135 414.827C128.333 413.69 129.373 412.891 130.511 412.987L134.085 413.324C134.782 413.389 135.411 413.792 135.771 414.4L136.646 415.878L137.188 414.27C137.275 414.007 137.494 413.813 137.763 413.761C138.033 413.71 138.305 413.802 138.487 414.007C143.478 419.729 147.409 432.071 149.307 438.919C149.674 440.247 149.472 441.678 148.745 442.845C148.015 444.016 146.823 444.826 145.477 445.061C141.455 445.761 137.75 446 134.573 446ZM127.499 417.476L125.267 440.466C125.092 442.279 126.395 443.914 128.172 444.105C132.029 444.525 138.12 444.764 145.211 443.528C146.133 443.368 146.948 442.815 147.446 442.016C147.947 441.207 148.085 440.258 147.83 439.339C146.076 433.023 142.579 421.959 138.187 416.093L137.558 417.961C137.461 418.247 137.211 418.449 136.915 418.483C136.623 418.514 136.333 418.37 136.178 418.111L134.455 415.202C134.344 415.014 134.152 414.891 133.94 414.874L130.366 414.536C130.023 414.495 129.7 414.752 129.639 415.1L129.161 417.851C129.101 418.193 128.825 418.456 128.481 418.49C128.138 418.517 127.818 418.323 127.694 417.998L127.499 417.476Z" fill="#212121"/>
<path d="M137.104 441.541C131.665 441.541 127.489 440.503 127.226 440.438C126.815 440.336 126.566 439.913 126.671 439.496C126.772 439.08 127.186 438.824 127.6 438.933C127.694 438.957 137.026 441.268 145.777 438.936C146.187 438.824 146.605 439.073 146.712 439.489C146.82 439.903 146.574 440.329 146.167 440.438C143.054 441.268 139.911 441.541 137.104 441.541Z" fill="#212121"/>
<path d="M140.308 431.333H131.8C131.376 431.333 131.036 430.985 131.036 430.558C131.036 430.128 131.379 429.783 131.8 429.783H140.308C140.732 429.783 141.072 430.132 141.072 430.558C141.072 430.985 140.728 431.333 140.308 431.333Z" fill="#212121"/>
<path d="M57.4222 396.142L54.1206 426.571L41.5034 429.251L42.2741 393.571L57.4222 396.142Z" fill="white"/>
<path d="M41.5035 430.026C41.3252 430.026 41.1535 429.964 41.0155 429.848C40.8372 429.698 40.7328 429.469 40.7396 429.234L41.5069 393.554C41.5103 393.329 41.6146 393.117 41.7829 392.974C41.9545 392.83 42.1766 392.772 42.3988 392.806L57.5468 395.377C57.9473 395.445 58.2267 395.817 58.1829 396.227L54.8814 426.656C54.8443 426.991 54.602 427.26 54.2789 427.332L41.6617 430.012C41.6079 430.022 41.5574 430.026 41.5035 430.026ZM43.018 394.486L42.2911 428.291L53.4207 425.929L56.5809 396.79L43.018 394.486Z" fill="#212121"/>
<path d="M59.4482 442.521C59.4482 442.521 61.0637 427.878 56.5404 421.194L46.4473 424.84V422.652C46.4473 421.948 45.9526 421.368 45.3199 421.33L39.6894 421.003C37.5894 420.88 35.496 421.32 33.5777 422.279C26.8366 425.642 11.315 434.31 11.8063 442.62C11.8097 442.62 24.0264 445.696 59.4482 442.521Z" fill="white"/>
<path d="M30.8011 444.747C17.3021 444.747 11.9543 443.46 11.6245 443.375C11.2981 443.293 11.0658 443.006 11.0457 442.668C10.5442 434.208 24.7365 425.827 33.2411 421.583C35.2772 420.569 37.522 420.098 39.7365 420.231L45.3669 420.559C46.4035 420.617 47.218 421.539 47.218 422.655V423.741L56.288 420.463C56.6111 420.347 56.9813 420.463 57.1765 420.757C61.8074 427.602 60.2794 441.999 60.2121 442.61C60.1717 442.975 59.8823 443.265 59.5188 443.296C47.3593 444.385 37.9393 444.747 30.8011 444.747ZM12.5669 441.985C15.3468 442.507 28.4924 444.471 58.7448 441.804C58.977 439.042 59.6568 427.902 56.224 422.133L46.703 425.571C46.4675 425.653 46.2083 425.618 46.0064 425.475C45.8045 425.328 45.6833 425.093 45.6833 424.84V422.652C45.6833 422.361 45.5016 422.116 45.2761 422.105L39.6456 421.778C37.697 421.665 35.7113 422.078 33.9142 422.976C28.9131 425.472 12.8967 434.075 12.5669 441.985Z" fill="#212121"/>
<path d="M42.2538 440.234C27.2201 440.234 15.7034 437.916 15.552 437.881C15.138 437.796 14.8688 437.386 14.9529 436.966C15.037 436.547 15.4409 436.277 15.8548 436.359C16.05 436.4 35.755 440.363 57.2067 437.84C57.624 437.793 58.0076 438.096 58.0548 438.523C58.1052 438.95 57.8023 439.336 57.3817 439.384C52.155 439.998 47.026 440.234 42.2538 440.234Z" fill="#212121"/>
<path d="M30.2592 432.504C30.0203 432.504 29.788 432.392 29.6366 432.18C29.3909 431.832 29.4683 431.347 29.8116 431.098L39.5278 424.007C39.8711 423.754 40.349 423.836 40.5946 424.184C40.8403 424.533 40.7629 425.017 40.4196 425.267L30.7035 432.358C30.5722 432.457 30.414 432.504 30.2592 432.504Z" fill="#212121"/>
<path d="M53.4845 198.71C53.4845 198.71 35.3815 315.428 39.235 399.433L59.3606 399.962C59.3606 399.962 80.9469 281.496 91.7131 260.305C91.7131 260.305 120.969 368.314 122.097 399.057C122.097 399.057 135.114 400.385 140.304 398.491C143.091 368.819 143.929 343.583 144.07 324.301C144.467 269.12 139.271 244.055 136.42 232.164C133.805 221.246 130.995 212.373 128.946 206.371L122.097 186.556L53.4845 198.71Z" fill="white"/>
<path d="M59.3641 400.737C59.3573 400.737 59.3506 400.737 59.3439 400.737L39.2182 400.208C38.8177 400.198 38.4913 399.873 38.4745 399.467C34.6614 316.346 52.549 199.758 52.7307 198.587C52.7812 198.259 53.0336 198 53.3567 197.942L121.972 185.784C122.339 185.719 122.703 185.935 122.827 186.293L129.676 206.108C132.56 214.554 135.084 223.256 137.174 231.976C140.647 246.475 145.225 271.821 144.844 324.301C144.666 348.834 143.4 373.818 141.075 398.556C141.048 398.856 140.849 399.112 140.573 399.211C135.283 401.143 122.568 399.873 122.03 399.819C121.649 399.781 121.356 399.464 121.34 399.074C120.313 371.09 95.5431 277.526 91.5281 262.528C80.6744 287.703 60.33 398.941 60.1213 400.092C60.0506 400.471 59.7309 400.737 59.3641 400.737ZM39.9687 398.675L58.728 399.167C60.6396 388.716 80.634 280.414 91.0334 259.947C91.1781 259.663 91.481 259.496 91.794 259.53C92.107 259.564 92.3695 259.79 92.4536 260.097C92.743 261.169 121.323 366.976 122.834 398.34C125.435 398.566 135.054 399.279 139.591 397.907C141.879 373.377 143.131 348.612 143.306 324.294C143.683 271.985 139.133 246.765 135.68 232.348C133.603 223.676 131.093 215.022 128.225 206.623L121.592 187.433L54.1577 199.382C52.8317 208.16 36.4282 318.698 39.9687 398.675Z" fill="#212121"/>
<path d="M90.6529 258.636C90.313 258.636 90 258.404 89.9125 258.055L86.9307 246.362L79.705 244.847C79.291 244.758 79.0252 244.348 79.1093 243.928C79.1934 243.508 79.6007 243.242 80.0146 243.324L87.7048 244.935C87.9908 244.997 88.2163 245.215 88.2904 245.502L91.3933 257.663C91.4977 258.079 91.252 258.503 90.8448 258.608C90.7808 258.629 90.7135 258.636 90.6529 258.636Z" fill="#212121"/>
<path d="M148.119 125.98C156.327 137.756 163.035 152.034 163.37 167.482L136.322 163.501L135.563 163.39L135.767 164.129L136.249 163.996C135.767 164.129 135.767 164.129 135.767 164.129L135.767 164.13L135.769 164.135L135.774 164.154L135.795 164.23L135.876 164.527C135.947 164.788 136.052 165.172 136.184 165.662C136.449 166.642 136.828 168.048 137.28 169.754C138.183 173.166 139.381 177.773 140.558 182.558C141.736 187.345 142.891 192.303 143.709 196.418C144.119 198.476 144.443 200.317 144.644 201.817C144.847 203.333 144.918 204.454 144.842 205.097C144.7 206.319 143.638 207.886 141.64 209.446C139.665 210.988 136.854 212.461 133.386 213.517C126.456 215.628 116.946 216.066 106.356 212.129C95.5913 208.126 82.4848 206.374 70.8244 206.496C64.9918 206.556 59.5084 207.086 54.8492 208.043C50.6415 208.907 47.0719 210.126 44.5245 211.686L43.5818 168.836L43.571 168.347H43.0819H1.73109C1.83724 168.015 1.9851 167.559 2.17454 166.991C2.60569 165.697 3.25214 163.824 4.11224 161.505C5.83259 156.868 8.40685 150.455 11.8216 143.351C18.6575 129.131 28.836 112.2 42.2348 101.193C45.975 98.1213 50.5249 96.2328 55.3117 95.6836C67.0906 94.3381 91.9626 91.9446 109.434 93.4181L109.476 92.9199L109.434 93.4182C114.718 93.8634 119.731 95.9557 123.781 99.4277L123.781 99.4278C129.987 104.743 139.808 114.06 148.119 125.98Z" fill="#305DFF" stroke="black"/>
<path d="M1.05005 168.847C1.05005 168.847 -2.23804 184.105 12.7115 188.686C27.661 193.268 41.8634 165.659 41.8634 165.659L31.4539 159.537L1.05005 168.847Z" fill="white"/>
<path d="M16.1613 189.98C14.9498 189.98 13.7281 189.806 12.4929 189.427C-2.95803 184.695 0.269475 168.841 0.30313 168.68C0.363709 168.404 0.565639 168.185 0.828147 168.103L31.232 158.793C31.4339 158.732 31.6527 158.756 31.8378 158.865L42.2473 164.986C42.6006 165.194 42.7319 165.649 42.5434 166.017C41.9982 167.076 30.0406 189.98 16.1613 189.98ZM1.71664 169.455C1.30941 171.964 0.0709108 184.002 12.9338 187.942C14.0007 188.266 15.0642 188.42 16.1209 188.42C27.8867 188.42 38.7673 169.711 40.8338 165.949L31.3565 160.377L1.71664 169.455Z" fill="#212121"/>
<path d="M98.0271 203.616H24.5415C22.6804 203.616 21.0583 202.329 20.6073 200.495L5.7722 139.818C5.13948 137.227 7.07128 134.718 9.70646 134.718H83.192C85.0531 134.718 86.6753 136.005 87.1262 137.838L101.961 198.515C102.594 201.11 100.659 203.616 98.0271 203.616Z" fill="white"/>
<path d="M98.0269 204.391H24.5414C22.3235 204.391 20.3985 202.865 19.8667 200.68L5.02828 140.006C4.66817 138.538 4.99126 137.012 5.91004 135.82C6.82882 134.629 8.21203 133.946 9.70295 133.946H83.1885C85.4063 133.946 87.3314 135.472 87.8632 137.657L102.698 198.331C103.058 199.799 102.735 201.325 101.816 202.516C100.901 203.708 99.5178 204.391 98.0269 204.391ZM9.70631 135.496C8.68993 135.496 7.74423 135.964 7.11825 136.776C6.49227 137.589 6.27015 138.63 6.51583 139.634L21.3509 200.308C21.7144 201.799 23.0269 202.841 24.5414 202.841H98.0269C99.0433 202.841 99.989 202.373 100.615 201.56C101.241 200.748 101.463 199.707 101.217 198.703L86.3823 138.029C86.0189 136.537 84.7063 135.496 83.1918 135.496H9.70631Z" fill="#212121"/>
<path d="M11.2243 164.88L13.3816 170.95L31.0505 162.415C31.0505 162.415 40.7666 170.95 17.2149 181.885C7.4045 186.447 11.2243 164.88 11.2243 164.88Z" fill="white"/>
<path d="M14.7548 183.299C13.8494 183.299 13.0518 183.026 12.3585 182.483C8.06753 179.107 10.2147 166.205 10.4739 164.744C10.5344 164.399 10.8171 164.136 11.1638 164.109C11.5071 164.068 11.8302 164.29 11.9479 164.617L13.8192 169.882L30.724 161.716C31 161.586 31.3231 161.627 31.5553 161.832C31.6664 161.931 34.2746 164.269 33.7328 168.124C33.0361 173.06 27.5874 177.929 17.538 182.596C16.525 183.063 15.5961 183.299 14.7548 183.299ZM11.5542 168.093C11.0628 172.664 10.9147 179.383 13.2975 181.257C14.1591 181.937 15.337 181.909 16.9019 181.182C28.7922 175.662 31.7943 170.913 32.2183 167.902C32.538 165.642 31.4611 164.034 30.8889 163.358L13.7148 171.654C13.5196 171.746 13.2941 171.753 13.0956 171.671C12.897 171.589 12.7388 171.422 12.6682 171.217L11.5542 168.093Z" fill="#212121"/>
<path d="M115.16 133.99C115.16 133.99 148.193 152.802 155.008 158.708C161.823 164.614 169.21 169.097 159.605 182.012C150 194.927 109.049 143.198 109.049 143.198C109.049 143.198 101.183 144.519 98.4372 133.649C98.4372 133.649 85.1536 134.13 84.6724 129.9L103.405 126.5C105.828 126.06 108.305 126.865 110.025 128.651L115.16 133.99Z" fill="white"/>
<path d="M155.355 184.859C141.718 184.863 112.007 148.138 108.709 144.007C106.922 144.096 100.467 143.734 97.8552 134.444C94.5739 134.513 84.4101 134.373 83.912 129.993C83.8649 129.586 84.1408 129.211 84.538 129.139L103.27 125.739C105.942 125.254 108.675 126.142 110.573 128.111L115.632 133.366C117.971 134.7 148.826 152.327 155.506 158.114C156.031 158.568 156.559 159.015 157.081 159.459C163.476 164.867 169.52 169.971 160.218 182.48C159.067 184.026 157.468 184.828 155.469 184.856C155.432 184.859 155.392 184.859 155.355 184.859ZM109.045 142.423C109.278 142.423 109.5 142.529 109.645 142.713C109.968 143.119 141.94 183.306 155.345 183.306C155.378 183.306 155.412 183.306 155.446 183.306C156.97 183.282 158.131 182.705 158.996 181.544C167.42 170.22 162.426 165.997 156.102 160.654C155.573 160.207 155.042 159.756 154.51 159.298C147.829 153.508 115.117 134.858 114.787 134.666C114.723 134.629 114.666 134.584 114.615 134.53L109.48 129.197C107.935 127.593 105.717 126.872 103.54 127.268L85.726 130.501C87.1967 132.396 93.7089 133.038 98.4071 132.874C98.7504 132.864 99.087 133.106 99.1745 133.458C101.702 143.464 108.632 142.481 108.924 142.43C108.965 142.426 109.005 142.423 109.045 142.423Z" fill="#212121"/>
<path d="M68.5487 73.3133C67.9497 74.3614 69.1848 76.3996 69.1983 76.3961C69.2185 76.3893 68.6059 70.4319 65.3313 68.9263C63.4332 68.0523 62.4505 69.5067 59.6234 69.1141C56.6214 68.6941 53.3131 66.4375 52.0746 63.1361C50.577 59.1486 52.7343 55.3522 54.0973 52.9556C55.4502 50.5726 57.1734 47.9199 60.1619 46.7728C64.0592 45.2775 65.6881 47.5717 70.1473 46.1651C73.7753 45.0214 73.5095 43.2461 76.737 42.3141C79.4294 41.5391 87.1835 41.9795 88.9201 46.1651C90.0206 48.8178 87.6479 50.436 88.8292 54.369C89.5393 56.728 90.6567 57.0182 91.4745 58.8413C93.4971 63.3649 90.9629 71.3093 86.1334 73.9688C79.5875 77.5808 69.969 70.8279 68.5487 73.3133Z" fill="#212121"/>
<path d="M71.3558 76.5122L69.8312 89.1987C69.5418 91.6158 67.8254 93.6062 65.5032 94.2207L59.0684 95.9209L78.8978 111.24L101.181 94.091L93.1911 92.2815C90.8958 91.7626 89.1289 89.8951 88.7116 87.5463L85.3899 68.8546L71.3558 76.5122Z" fill="white"/>
<path d="M78.901 112.018C78.7361 112.018 78.5745 111.963 78.4365 111.861L58.6071 96.5422C58.3748 96.3613 58.2638 96.0643 58.321 95.7707C58.3782 95.4771 58.5936 95.2483 58.8797 95.1732L65.3145 93.473C67.3472 92.937 68.8213 91.2232 69.0771 89.1099L70.6017 76.4201C70.632 76.1708 70.78 75.9489 70.9988 75.8294L85.0329 68.1718C85.2483 68.0523 85.5074 68.0489 85.7296 68.1582C85.9517 68.2674 86.1065 68.4757 86.1502 68.7181L89.472 87.4098C89.8355 89.4582 91.3634 91.073 93.3625 91.5271L101.352 93.3365C101.642 93.4013 101.87 93.6335 101.934 93.9271C101.998 94.2207 101.887 94.528 101.648 94.7123L79.3654 111.861C79.2274 111.963 79.0625 112.018 78.901 112.018ZM60.7845 96.2725L78.901 110.267L99.4069 94.487L93.0259 93.0395C90.4211 92.4488 88.4354 90.3492 87.9609 87.6863L84.8276 70.0461L72.069 77.0073L70.5916 89.2943C70.2618 92.046 68.3401 94.2719 65.6981 94.9718L60.7845 96.2725Z" fill="#212121"/>
<path d="M83.7942 71.4322C83.7942 71.4322 88.7314 69.5443 86.877 65.4065C85.0226 61.2687 82.0038 64.3243 82.0038 64.3243C82.0038 64.3243 79.2003 54.13 73.304 58.1483C67.411 62.17 61.8276 63.6312 61.8276 63.6312C61.8276 63.6312 63.9041 73.8937 67.6331 80.7183C69.8813 84.8356 72.7318 87.7034 76.0872 86.3207C85.2784 82.5346 83.7942 71.4322 83.7942 71.4322Z" fill="white"/>
<path d="M74.3509 87.4644C71.7493 87.4644 69.2723 85.3341 66.9602 81.0973C63.2178 74.2454 61.1615 64.2116 61.0774 63.7883C60.9966 63.382 61.2423 62.9826 61.636 62.8801C61.6899 62.8665 67.1723 61.3985 72.8768 57.5031C74.4552 56.4277 75.9999 56.1579 77.4673 56.7076C80.153 57.7113 81.7448 61.2585 82.3978 63.0577C83.0237 62.6821 83.9021 62.3305 84.8546 62.5046C85.9854 62.7128 86.9008 63.58 87.5739 65.0822C88.1595 66.3931 88.2167 67.6461 87.7421 68.8103C87.0623 70.4797 85.4503 71.48 84.6021 71.9102C84.7536 74.3307 84.7536 83.5861 76.3735 87.0376C75.6937 87.321 75.0172 87.4644 74.3509 87.4644ZM62.7298 64.174C63.2683 66.5877 65.2304 74.7131 68.3031 80.3428C70.7733 84.8663 73.2941 86.6348 75.8014 85.6038C84.3228 82.0908 83.0944 71.9648 83.0372 71.5381C82.9901 71.1796 83.192 70.8348 83.5252 70.7084C83.5723 70.6914 85.669 69.8515 86.332 68.2162C86.6416 67.4549 86.5912 66.6424 86.1806 65.7308C85.7262 64.7203 85.1877 64.1501 84.582 64.0375C83.7507 63.8873 82.8117 64.6076 82.5458 64.8739C82.354 65.0685 82.0747 65.147 81.8122 65.0753C81.5496 65.0071 81.3444 64.7988 81.2703 64.5325C81.2568 64.4779 79.7727 59.2203 76.9389 58.162C75.9461 57.7933 74.8994 57.9981 73.735 58.7936C68.9593 62.0505 64.4361 63.6449 62.7298 64.174Z" fill="#212121"/>
</g>
<defs>
<clipPath id="clip0_109_13132">
<rect width="84" height="100" fill="white" transform="translate(214 63)"/>
</clipPath>
<clipPath id="clip1_109_13132">
<rect width="165" height="404" fill="white" transform="translate(0 42)"/>
</clipPath>
</defs>
</svg>
