<svg width="599" height="473" viewBox="0 0 599 473" fill="none" xmlns="http://www.w3.org/2000/svg">
<mask id="path-1-inside-1_109_12873" fill="white">
<path d="M403.731 69.2692C360.101 25.6396 301.148 0.788366 239.451 0.0184142C177.754 -0.751538 118.2 22.6207 73.4947 65.148C28.7898 107.675 2.47511 165.99 0.165713 227.648C-2.14368 289.307 19.7351 349.426 61.1335 395.178L61.7759 394.597C20.5292 349.012 -1.26942 289.113 1.03152 227.681C3.33245 166.248 29.5507 108.147 74.0918 65.7757C118.633 23.4043 177.97 0.117624 239.44 0.884756C300.911 1.65189 359.648 26.4121 403.118 69.8819L403.731 69.2692Z"/>
</mask>
<path d="M403.731 69.2692C360.101 25.6396 301.148 0.788366 239.451 0.0184142C177.754 -0.751538 118.2 22.6207 73.4947 65.148C28.7898 107.675 2.47511 165.99 0.165713 227.648C-2.14368 289.307 19.7351 349.426 61.1335 395.178L61.7759 394.597C20.5292 349.012 -1.26942 289.113 1.03152 227.681C3.33245 166.248 29.5507 108.147 74.0918 65.7757C118.633 23.4043 177.97 0.117624 239.44 0.884756C300.911 1.65189 359.648 26.4121 403.118 69.8819L403.731 69.2692Z" stroke="#212121" stroke-width="2" mask="url(#path-1-inside-1_109_12873)"/>
<mask id="path-2-inside-2_109_12873" fill="white">
<path d="M38.3554 365.616C55.3112 391.637 77.2261 414.063 102.849 431.614C128.472 449.166 157.301 461.498 187.689 467.908L187.868 467.061C157.591 460.674 128.867 448.387 103.338 430.9C77.8096 413.413 55.9749 391.068 39.0813 365.143L38.3554 365.616Z"/>
</mask>
<path d="M38.3554 365.616C55.3112 391.637 77.2261 414.063 102.849 431.614C128.472 449.166 157.301 461.498 187.689 467.908L187.868 467.061C157.591 460.674 128.867 448.387 103.338 430.9C77.8096 413.413 55.9749 391.068 39.0813 365.143L38.3554 365.616Z" stroke="#212121" stroke-width="2" mask="url(#path-2-inside-2_109_12873)"/>
<mask id="path-3-inside-3_109_12873" fill="white">
<path d="M449.546 339.181C471.797 293.016 478.449 240.873 468.503 190.6L467.653 190.768C477.563 240.857 470.935 292.809 448.766 338.805L449.546 339.181Z"/>
</mask>
<path d="M449.546 339.181C471.797 293.016 478.449 240.873 468.503 190.6L467.653 190.768C477.563 240.857 470.935 292.809 448.766 338.805L449.546 339.181Z" stroke="#212121" stroke-width="2" mask="url(#path-3-inside-3_109_12873)"/>
<mask id="path-4-inside-4_109_12873" fill="white">
<path d="M230.612 472.927C265.652 473.799 300.447 466.873 332.481 452.648C364.516 438.423 392.987 417.255 415.837 390.677L415.18 390.112C392.414 416.593 364.047 437.683 332.13 451.856C300.213 466.029 265.545 472.93 230.634 472.061L230.612 472.927Z"/>
</mask>
<path d="M230.612 472.927C265.652 473.799 300.447 466.873 332.481 452.648C364.516 438.423 392.987 417.255 415.837 390.677L415.18 390.112C392.414 416.593 364.047 437.683 332.13 451.856C300.213 466.029 265.545 472.93 230.634 472.061L230.612 472.927Z" stroke="#212121" stroke-width="2" mask="url(#path-4-inside-4_109_12873)"/>
<path d="M78.0895 120.144H394.682C401.15 120.144 406.393 125.405 406.393 131.894V344.517C406.393 351.007 401.15 356.267 394.682 356.267H78.0895C71.6219 356.267 66.3789 351.007 66.3789 344.517V131.894C66.3789 125.405 71.6219 120.144 78.0895 120.144Z" fill="white" stroke="white"/>
<path d="M78.0895 120.144H394.682C401.15 120.144 406.393 125.405 406.393 131.894V344.517C406.393 351.007 401.15 356.267 394.682 356.267H78.0895C71.6219 356.267 66.3789 351.007 66.3789 344.517V131.894C66.3789 125.405 71.6219 120.144 78.0895 120.144Z" stroke="black"/>
<path d="M88.3223 130.411H384.45C390.918 130.411 396.161 135.672 396.161 142.162V321.614C396.161 328.103 390.918 333.364 384.45 333.364H88.3223C81.8547 333.364 76.6116 328.103 76.6116 321.614V142.162C76.6116 135.672 81.8547 130.411 88.3223 130.411Z" stroke="black"/>
<path d="M88.3095 146.355H156.7V315.009H88.3095V146.355Z" stroke="black"/>
<path d="M115.143 219.615L105.768 243.013H103.387L113.617 218.128H115.272L115.143 219.615ZM123.66 243.013L114.268 219.615L114.137 218.128H115.793L126.041 243.013H123.66ZM121.987 234.228V236.039H107.609V234.228H121.987ZM142.613 239.423V216.76H144.845V243.013H142.762L142.613 239.423ZM128.645 233.954V233.595C128.645 232.159 128.825 230.867 129.184 229.716C129.544 228.553 130.059 227.562 130.728 226.742C131.41 225.91 132.229 225.277 133.183 224.844C134.138 224.4 135.216 224.178 136.42 224.178C137.597 224.178 138.638 224.354 139.544 224.708C140.449 225.061 141.224 225.568 141.869 226.229C142.526 226.89 143.053 227.676 143.45 228.587C143.859 229.499 144.156 230.513 144.343 231.63V236.194C144.194 237.241 143.921 238.205 143.524 239.082C143.127 239.948 142.601 240.706 141.944 241.355C141.286 241.993 140.493 242.489 139.563 242.842C138.645 243.184 137.585 243.355 136.382 243.355C135.192 243.355 134.12 243.127 133.165 242.671C132.21 242.215 131.398 241.571 130.728 240.74C130.059 239.897 129.544 238.899 129.184 237.749C128.825 236.598 128.645 235.333 128.645 233.954ZM130.877 233.595V233.954C130.877 235.037 130.994 236.039 131.231 236.963C131.466 237.886 131.825 238.688 132.309 239.373C132.792 240.056 133.406 240.591 134.151 240.979C134.894 241.366 135.775 241.56 136.791 241.56C138.069 241.56 139.141 241.338 140.009 240.894C140.877 240.438 141.571 239.84 142.092 239.099C142.613 238.347 142.991 237.527 143.227 236.637V231.322C143.078 230.719 142.86 230.103 142.576 229.476C142.291 228.85 141.9 228.274 141.404 227.75C140.92 227.214 140.301 226.787 139.544 226.468C138.8 226.138 137.895 225.972 136.828 225.972C135.8 225.972 134.912 226.167 134.169 226.554C133.425 226.941 132.805 227.482 132.309 228.178C131.825 228.861 131.466 229.665 131.231 230.587C130.994 231.51 130.877 232.513 130.877 233.595Z" fill="black"/>
<path d="M279.688 242.613H384.354V315.252H279.688V242.613Z" stroke="black"/>
<path d="M348.58 291.451C346.652 288.697 343.176 288.399 340.811 290.794L335.672 296C333.308 298.392 329.738 298.164 327.695 295.496L306.691 268.032C304.646 265.36 301.764 265.629 300.25 268.633L279.368 310.023C277.854 313.023 279.35 315.46 282.71 315.46H320.124H359.283C362.644 315.46 363.803 313.224 361.883 310.467L348.58 291.451Z" fill="black" fill-opacity="0.06"/>
<path d="M351.432 277.827C346.684 276.706 343.745 271.949 344.866 267.202C345.987 262.454 350.744 259.515 355.491 260.636C360.239 261.757 363.179 266.514 362.058 271.262C360.937 276.009 356.179 278.949 351.432 277.827Z" fill="black" fill-opacity="0.06"/>
<path d="M383.178 229.879H169.549" stroke="black"/>
<path d="M265.925 146.355H169.551" stroke="black"/>
<path d="M265.925 176.873H169.551" stroke="black"/>
<path d="M265.925 207.391H169.551" stroke="black"/>
<path d="M265.925 244.335H169.551" stroke="black"/>
<path d="M265.925 279.672H169.551" stroke="black"/>
<path d="M265.925 313.403H169.551" stroke="black"/>
<path d="M257.245 344.421H215.528" stroke="black"/>
<path d="M279.688 142.258H384.354V214.897H279.688V142.258Z" stroke="black"/>
<path d="M325.865 159.563L312.548 195.857H309.167L323.698 157.257H326.05L325.865 159.563ZM337.966 195.857L324.623 159.563L324.438 157.257H326.79L341.348 195.857H337.966ZM335.588 182.23V185.04H315.164V182.23H335.588ZM364.89 190.29V155.136H368.06V195.857H365.101L364.89 190.29ZM345.047 181.806V181.249C345.047 179.022 345.302 177.016 345.813 175.231C346.324 173.429 347.055 171.891 348.006 170.618C348.975 169.328 350.138 168.347 351.494 167.676C352.85 166.986 354.383 166.642 356.091 166.642C357.764 166.642 359.244 166.916 360.53 167.464C361.816 168.012 362.917 168.798 363.833 169.823C364.766 170.848 365.515 172.068 366.079 173.482C366.66 174.896 367.083 176.469 367.347 178.201V185.279C367.135 186.905 366.748 188.398 366.185 189.759C365.621 191.103 364.872 192.278 363.939 193.285C363.005 194.275 361.878 195.044 360.556 195.592C359.253 196.122 357.747 196.387 356.038 196.387C354.347 196.387 352.824 196.034 351.467 195.327C350.111 194.62 348.957 193.621 348.006 192.331C347.055 191.023 346.324 189.477 345.813 187.692C345.302 185.906 345.047 183.945 345.047 181.806ZM348.218 181.249V181.806C348.218 183.485 348.385 185.04 348.72 186.472C349.054 187.904 349.565 189.15 350.252 190.21C350.939 191.271 351.811 192.101 352.868 192.702C353.925 193.303 355.175 193.603 356.62 193.603C358.434 193.603 359.958 193.259 361.19 192.57C362.424 191.863 363.41 190.935 364.15 189.786C364.89 188.619 365.427 187.347 365.762 185.968V177.723C365.55 176.787 365.242 175.832 364.837 174.86C364.431 173.888 363.876 172.996 363.172 172.183C362.485 171.352 361.605 170.689 360.53 170.194C359.473 169.682 358.188 169.426 356.672 169.426C355.211 169.426 353.951 169.726 352.894 170.327C351.837 170.928 350.957 171.767 350.252 172.845C349.565 173.906 349.054 175.152 348.72 176.583C348.385 178.015 348.218 179.57 348.218 181.249Z" fill="black"/>
<g clip-path="url(#clip0_109_12873)">
<path d="M426.74 364.508L434.043 397.743L446.714 398.402L439.721 362.428L426.74 364.508Z" fill="white"/>
<path d="M446.714 399.007C446.704 399.007 446.693 399.007 446.683 399.007L434.012 398.347C433.739 398.334 433.512 398.138 433.454 397.872L426.151 364.637C426.114 364.476 426.148 364.304 426.241 364.167C426.333 364.03 426.481 363.938 426.645 363.911L439.625 361.832C439.948 361.779 440.252 361.993 440.315 362.312L447.309 398.286C447.346 398.468 447.293 398.656 447.172 398.798C447.055 398.933 446.889 399.007 446.714 399.007ZM434.535 397.165L445.974 397.761L439.24 363.117L427.47 365.004L434.535 397.165Z" fill="#212121"/>
<path d="M429.63 394.914C429.26 397.521 428.665 402.352 428.615 406.688C428.583 409.408 430.631 411.704 433.335 412.052C440.984 413.031 458.331 414.103 473.106 412.765C474.119 412.673 475.908 411.939 476.405 409.416C478.078 400.951 463.321 398.877 447.146 392.737C446.511 392.497 445.795 392.639 445.309 393.109L443.564 394.795C441.82 396.481 439.229 396.961 436.996 396.009L431.691 393.75C430.787 393.365 429.767 393.943 429.63 394.914Z" fill="white"/>
<path d="M457.713 414C447.777 414 438.508 413.322 433.258 412.652C430.232 412.264 427.975 409.696 428.009 406.683C428.059 402.287 428.67 397.371 429.029 394.832C429.122 394.18 429.503 393.624 430.076 393.302C430.65 392.98 431.324 392.943 431.929 393.199L437.234 395.457C439.25 396.318 441.571 395.888 443.146 394.365L444.891 392.679C445.541 392.051 446.511 391.853 447.365 392.175C451.142 393.608 454.771 394.798 458.278 395.946C469.511 399.624 478.384 402.529 476.999 409.535C476.481 412.153 474.61 413.237 473.162 413.369C468.142 413.818 462.838 414 457.713 414ZM430.227 394.998C429.873 397.508 429.267 402.366 429.22 406.696C429.193 409.1 430.996 411.145 433.414 411.454C441.32 412.467 458.4 413.493 473.053 412.163C473.426 412.129 475.313 411.831 475.813 409.3C476.989 403.342 468.983 400.722 457.9 397.091C454.377 395.938 450.735 394.745 446.931 393.302C446.516 393.143 446.043 393.238 445.729 393.544L443.984 395.231C442.06 397.091 439.224 397.616 436.758 396.566L431.453 394.307C431.197 394.199 430.911 394.215 430.671 394.352C430.428 394.486 430.266 394.721 430.227 394.998Z" fill="#212121"/>
<path d="M428.625 406.036C428.625 406.036 428.617 406.477 428.615 406.688C428.583 409.408 430.631 411.704 433.335 412.052C440.984 413.031 458.331 414.103 473.106 412.765C474.119 412.673 475.908 411.939 476.405 409.416C476.558 408.643 476.463 407.25 476.463 407.25L475.414 407.303C460.483 408.039 445.517 407.68 430.637 406.234L428.625 406.036Z" fill="white"/>
<path d="M457.713 414C447.777 414 438.508 413.322 433.258 412.651C430.232 412.264 427.975 409.696 428.009 406.683L428.02 406.026C428.022 405.857 428.096 405.698 428.223 405.588C428.35 405.477 428.514 405.424 428.683 405.437L430.697 405.632C445.499 407.071 460.535 407.432 475.384 406.698L476.434 406.646C476.748 406.625 477.044 406.881 477.066 407.208C477.071 407.268 477.163 408.691 476.997 409.53C476.479 412.147 474.607 413.232 473.159 413.364C468.142 413.818 462.838 414 457.713 414ZM429.22 406.698C429.196 409.1 430.996 411.142 433.414 411.451C441.32 412.464 458.4 413.491 473.053 412.161C473.426 412.126 475.313 411.828 475.813 409.298C475.887 408.928 475.895 408.345 475.884 407.881L475.445 407.902C460.535 408.635 445.441 408.274 430.581 406.83L429.22 406.698Z" fill="#212121"/>
<path d="M450.856 402.479C450.7 402.479 450.547 402.421 450.428 402.302C450.193 402.068 450.193 401.685 450.428 401.45L456.103 395.782C456.338 395.547 456.721 395.547 456.956 395.782C457.192 396.017 457.192 396.4 456.956 396.634L451.282 402.302C451.165 402.421 451.012 402.479 450.856 402.479Z" fill="#212121"/>
<path d="M456.433 403.068C456.283 403.068 456.132 403.012 456.013 402.899C455.773 402.667 455.765 402.287 455.997 402.046L460.533 397.344C460.765 397.104 461.149 397.096 461.387 397.328C461.627 397.561 461.635 397.941 461.402 398.181L456.867 402.883C456.751 403.007 456.592 403.068 456.433 403.068Z" fill="#212121"/>
<path d="M370.307 368.949L367.143 391.125H360.292L359.912 369.316L370.307 368.949Z" fill="white"/>
<path d="M367.143 391.729H360.292C359.962 391.729 359.695 391.465 359.687 391.135L359.306 369.323C359.301 368.994 359.56 368.722 359.89 368.711L370.288 368.344C370.465 368.329 370.64 368.41 370.759 368.542C370.878 368.674 370.933 368.854 370.907 369.031L367.743 391.207C367.698 391.51 367.444 391.729 367.143 391.729ZM360.887 390.523H366.62L369.609 369.577L360.527 369.896L360.887 390.523Z" fill="#212121"/>
<path d="M358.257 412.712C354.189 412.045 351.897 409.129 351.773 406.619C351.4 399.157 353.378 392.064 357.081 387.248C357.485 386.723 358.294 386.768 358.648 387.328L358.746 387.415C359.385 387.995 360.334 387.956 360.992 387.396C361.534 386.934 362.232 386.663 362.977 386.652L364.013 386.636C365.174 386.62 366.321 387.267 366.929 388.233C367.212 388.681 367.862 388.708 368.216 388.312L368.803 387.655C369.202 387.272 369.865 387.541 369.881 388.093L370.516 408.511C370.204 412.512 363.58 413.586 358.257 412.712Z" fill="white"/>
<path d="M361.738 413.594C360.501 413.594 359.277 413.491 358.159 413.306C353.753 412.583 351.308 409.409 351.171 406.648C350.793 399.065 352.772 391.858 356.602 386.879C356.912 386.478 357.401 386.264 357.905 386.277C358.386 386.299 358.83 386.541 359.111 386.929L359.156 386.969C359.552 387.328 360.16 387.314 360.604 386.937C361.265 386.378 362.105 386.061 362.97 386.048L364.003 386.032C364.019 386.032 364.037 386.032 364.056 386.032C365.396 386.032 366.718 386.766 367.439 387.913C367.468 387.958 367.51 387.982 367.569 387.987C367.643 387.99 367.714 387.966 367.762 387.911L368.348 387.254C368.74 386.876 369.247 386.779 369.71 386.966C370.169 387.153 370.468 387.578 370.481 388.074L371.116 408.493C371.116 408.514 371.116 408.538 371.113 408.559C371.021 409.762 370.442 410.791 369.392 411.612C367.587 413.029 364.629 413.594 361.738 413.594ZM358.355 412.116C362.462 412.789 366.696 412.192 368.65 410.665C369.411 410.068 369.834 409.34 369.908 408.498L369.273 388.114L368.663 388.716C368.364 389.051 367.918 389.23 367.466 389.191C367.027 389.154 366.644 388.921 366.414 388.555C365.917 387.766 364.97 387.241 364.053 387.241C364.043 387.241 364.029 387.241 364.019 387.241L362.985 387.256C362.399 387.264 361.83 387.478 361.384 387.858C360.472 388.631 359.19 388.636 358.339 387.863L358.241 387.776C358.201 387.739 358.167 387.7 358.138 387.652C358.048 387.51 357.905 387.489 357.85 387.486C357.786 387.489 357.654 387.496 357.562 387.618C353.904 392.373 352.017 399.289 352.381 406.59C352.49 408.865 354.58 411.496 358.355 412.116Z" fill="#212121"/>
<path d="M370.341 403.052C370.225 403.498 370.037 403.928 369.768 404.303C368.853 405.577 366.353 408.071 361.014 407.638C354.689 407.123 351.792 402.73 351.792 402.73C351.715 404.01 351.707 405.308 351.773 406.622C351.897 409.131 354.189 412.047 358.257 412.715C363.58 413.588 370.204 412.514 370.513 408.517L370.341 403.052Z" fill="white"/>
<path d="M361.738 413.594C360.501 413.594 359.277 413.491 358.159 413.306C353.753 412.583 351.308 409.409 351.171 406.648C351.105 405.329 351.11 403.997 351.189 402.69C351.205 402.432 351.385 402.21 351.636 402.144C351.887 402.076 352.154 402.178 352.297 402.395C352.323 402.434 355.127 406.553 361.064 407.034C366.001 407.443 368.327 405.274 369.279 403.949C369.493 403.651 369.654 403.297 369.757 402.899C369.831 402.609 370.109 402.419 370.41 402.45C370.709 402.485 370.939 402.733 370.946 403.031L371.116 408.493C371.116 408.514 371.116 408.538 371.113 408.559C371.02 409.762 370.442 410.791 369.392 411.612C367.587 413.029 364.629 413.594 361.738 413.594ZM352.336 404.308C352.326 405.068 352.339 405.83 352.376 406.588C352.49 408.865 354.58 411.496 358.355 412.116C362.462 412.789 366.696 412.192 368.65 410.665C369.411 410.068 369.834 409.34 369.908 408.498L369.805 405.221C368.602 406.58 365.927 408.641 360.963 408.237C356.539 407.878 353.732 405.725 352.336 404.308Z" fill="#212121"/>
<path d="M365.983 397.991H358.637C358.304 397.991 358.032 397.722 358.032 397.386C358.032 397.051 358.302 396.782 358.637 396.782H365.983C366.316 396.782 366.588 397.051 366.588 397.386C366.588 397.722 366.318 397.991 365.983 397.991Z" fill="#212121"/>
<path d="M366.746 394.294H359.401C359.068 394.294 358.796 394.025 358.796 393.69C358.796 393.357 359.065 393.085 359.401 393.085H366.746C367.079 393.085 367.352 393.354 367.352 393.69C367.349 394.025 367.079 394.294 366.746 394.294Z" fill="#212121"/>
<path d="M445.966 383.056C445.966 383.056 436.786 322.383 436.369 306.213C435.951 290.043 422.622 223.034 422.622 223.034L411.201 222.232C411.938 220.024 412.345 218.818 412.345 218.818L370.645 216.408C349.799 250.335 357.929 380.694 357.929 380.694C369.21 382.533 371.652 380.929 371.652 380.929C371.953 358.193 382.753 315.828 393.151 280.108C403.853 319.182 430.239 387.399 430.239 387.399C436.863 387.436 445.966 383.056 445.966 383.056Z" fill="white"/>
<path d="M430.321 388.003C430.292 388.003 430.266 388.003 430.24 388.003C429.991 388.003 429.769 387.847 429.679 387.618C429.42 386.948 404.07 321.285 393.141 282.324C383.639 315.158 372.561 358.14 372.26 380.939C372.257 381.14 372.154 381.327 371.988 381.435C371.718 381.612 369.025 383.113 357.836 381.29C357.559 381.245 357.348 381.013 357.332 380.733C357.311 380.406 355.304 347.699 355.87 311.266C356.631 262.278 361.431 230.259 370.135 216.094C370.251 215.904 370.465 215.791 370.685 215.807L412.385 218.216C412.573 218.226 412.747 218.324 412.85 218.482C412.956 218.638 412.983 218.836 412.922 219.013C412.922 219.013 412.605 219.95 412.023 221.686L422.667 222.433C422.939 222.451 423.164 222.649 423.217 222.918C423.349 223.588 436.562 290.161 436.977 306.197C437.389 322.145 446.474 382.359 446.566 382.966C446.606 383.227 446.471 383.486 446.23 383.599C445.855 383.778 436.995 388.003 430.321 388.003ZM393.154 279.506C393.157 279.506 393.157 279.506 393.159 279.506C393.429 279.509 393.667 279.691 393.738 279.949C403.893 317.024 428.495 381.179 430.657 386.792C436.237 386.668 443.527 383.504 445.303 382.697C444.465 377.118 436.163 321.517 435.766 306.226C435.372 290.984 423.288 229.51 422.12 223.604L411.159 222.834C410.974 222.821 410.802 222.723 410.699 222.567C410.596 222.412 410.569 222.219 410.628 222.042C411.024 220.852 411.325 219.952 411.521 219.374L370.975 217.031C351.329 249.836 358 371.474 358.505 380.174C366.961 381.509 370.167 380.823 371.055 380.528C371.486 357.016 382.978 312.902 392.572 279.939C392.649 279.683 392.884 279.506 393.154 279.506Z" fill="#212121"/>
<path d="M441.29 149.933C441.29 149.933 460.477 158.82 460.622 158.332C461.188 156.417 462.546 150.983 462.269 143.964L461.563 135.003C461.336 133.378 460.424 131.958 459.131 130.945C457.012 129.288 455.793 126.781 455.761 124.145L455.677 120.115C455.674 119.485 455.288 117.487 457.054 117.635C458.391 117.746 458.534 118.815 459.779 123.733C460.392 126.158 465.427 121.955 467.753 118.524C469.265 116.295 473.111 112.748 476.058 114.273C478.624 115.603 478.661 121.656 476.555 125.849C476.476 126.005 473.735 130.129 472.778 131.858C471.707 133.795 471.34 136.035 471.734 138.209C472.654 143.286 473.798 150.226 473.798 150.226C476.082 166.225 472.376 176.621 472.376 176.621C472.294 177.294 472.128 177.962 471.821 178.569C471.092 180.01 469.942 180.825 468.417 180.619C468.367 180.611 462.25 180.382 456.285 178.983C449.645 177.426 443.085 174.682 443.027 174.669C443.03 174.669 440.714 153.356 441.29 149.933Z" fill="white"/>
<path d="M468.882 181.255C468.705 181.255 468.522 181.242 468.337 181.218H468.316C466.788 181.144 461.399 180.804 456.15 179.572C450.647 178.281 445.099 176.149 442.969 175.294L442.829 175.239C442.612 175.162 442.453 174.967 442.429 174.735C442.334 173.861 440.114 153.298 440.696 149.836C440.727 149.651 440.844 149.49 441.01 149.403C441.177 149.313 441.375 149.31 441.547 149.39C447.843 152.305 457.879 156.847 460.194 157.638C460.82 155.348 461.92 150.337 461.666 143.993L460.96 135.056C460.767 133.686 459.982 132.383 458.759 131.428C456.504 129.665 455.19 127.016 455.156 124.161L455.072 120.137C455.072 120.057 455.064 119.968 455.058 119.865C455.016 119.224 454.947 118.152 455.613 117.503C455.978 117.147 456.48 116.988 457.104 117.044C458.756 117.181 459.031 118.284 460.062 122.393L460.366 123.596C460.424 123.825 460.506 123.841 460.569 123.852C461.65 124.029 465.163 121.282 467.254 118.194C469.03 115.577 473.063 112.051 476.335 113.745C479.401 115.334 479.259 121.817 477.094 126.126C477.062 126.192 477.002 126.287 476.502 127.053C475.624 128.401 473.994 130.913 473.304 132.159C472.305 133.966 471.956 136.08 472.323 138.112C473.232 143.136 474.38 150.068 474.39 150.136C476.602 165.636 473.304 175.785 472.965 176.767C472.865 177.55 472.661 178.25 472.358 178.849C471.567 180.413 470.343 181.255 468.882 181.255ZM443.59 174.241C445.81 175.128 451.146 177.157 456.425 178.395C461.574 179.603 466.873 179.936 468.374 180.012C468.454 180.015 468.496 180.02 468.501 180.02C469.685 180.178 470.621 179.601 471.284 178.294C471.533 177.806 471.697 177.218 471.779 176.55C471.784 176.505 471.795 176.46 471.81 176.418C471.847 176.315 475.434 165.956 473.203 150.311C473.193 150.255 472.048 143.331 471.142 138.317C470.724 136.014 471.121 133.615 472.252 131.568C472.96 130.285 474.607 127.749 475.492 126.388C475.783 125.939 475.987 125.63 476.029 125.556C478.04 121.548 477.919 115.912 475.783 114.806C473.137 113.437 469.508 117.018 468.258 118.862C466.392 121.614 462.388 125.374 460.363 125.031C459.771 124.928 459.356 124.519 459.195 123.884L458.891 122.68C457.931 118.854 457.744 118.303 457.006 118.239C456.745 118.218 456.562 118.258 456.462 118.358C456.192 118.622 456.242 119.377 456.266 119.783C456.274 119.915 456.282 120.028 456.282 120.118L456.367 124.139C456.396 126.633 457.54 128.939 459.504 130.475C460.976 131.626 461.92 133.206 462.16 134.924L462.871 143.922C463.154 151.015 461.798 156.485 461.201 158.506C461.151 158.675 461.019 158.826 460.857 158.9C460.548 159.034 460.035 159.272 441.814 150.844C441.621 155.472 443.312 171.616 443.59 174.241Z" fill="#212121"/>
<path d="M449.04 151.685C449.005 150.96 448.664 150.284 448.099 149.828C446.061 148.173 440.725 144.007 434.365 140.373C427.348 136.362 418.887 133.496 410.802 133.594L383.617 132.94C370.489 133.834 361.127 134.059 349.862 142.795C343.717 147.561 331.532 156.34 332.008 156.997L350.874 184.21C351.591 185.205 352.899 185.126 353.848 184.35C356.451 182.221 360.841 178.564 363.905 176.745C364.468 176.413 363.955 182.332 363.884 182.978L358.788 229.346C358.365 232.565 430.609 237.75 430.398 234.391C429.724 223.565 425.923 214.569 427.525 180.508C427.583 179.281 428.712 178.387 429.919 178.619C433.393 179.292 440.355 180.616 447.393 181.809C449.008 182.084 450.462 180.793 450.383 179.157L449.04 151.685Z" fill="white"/>
<path d="M447.578 149.928C445.59 148.307 440.261 144.147 433.928 140.528C426.214 136.118 417.96 133.735 410.671 133.831L383.457 133.175L381.661 133.3C369.478 134.111 360.664 134.7 350.083 142.902C348.393 144.215 346.289 145.798 344.049 147.477C339.599 150.825 333.594 155.342 332.551 156.567L351.222 183.501C351.415 183.762 351.676 183.926 351.985 183.965C352.41 184.023 352.902 183.859 353.317 183.521L353.916 183.029C356.57 180.857 360.567 177.567 363.454 175.858C363.676 175.723 363.956 175.723 364.168 175.868C364.873 176.322 364.651 179.825 364.342 182.672L359.264 228.877C360.693 229.949 373.252 231.859 394.327 233.355C415.353 234.851 428.039 234.735 429.641 233.867C429.458 231.02 429.052 228.298 428.589 225.152C427.334 216.641 425.616 204.974 426.784 180.114C426.822 179.352 427.189 178.647 427.788 178.175C428.386 177.702 429.159 177.518 429.902 177.663C433.406 178.339 440.338 179.661 447.366 180.848C447.955 180.944 448.544 180.78 448.988 180.384C449.432 179.989 449.673 179.419 449.644 178.821L448.302 151.347C448.264 150.796 448.003 150.275 447.578 149.928Z" fill="#305DFF"/>
<path d="M420.811 236.033C401.99 236.033 362.552 232.79 358.722 230.233C358.217 229.895 358.151 229.523 358.185 229.267L363.281 182.912C363.408 181.754 363.598 178.962 363.556 177.669C360.818 179.413 357.25 182.337 354.829 184.326L354.231 184.817C353.56 185.369 352.738 185.625 351.979 185.527C351.329 185.443 350.777 185.108 350.385 184.564L331.508 157.343C330.945 156.562 331.252 156.073 343.471 146.883C345.702 145.205 347.808 143.621 349.489 142.318C360.366 133.884 369.326 133.288 381.73 132.462L383.575 132.338L410.815 132.99C418.293 132.908 426.764 135.333 434.664 139.848C441.082 143.516 446.463 147.722 448.48 149.361C449.175 149.925 449.598 150.762 449.643 151.659L450.985 179.131C451.033 180.094 450.644 181.015 449.923 181.653C449.201 182.292 448.242 182.566 447.293 182.405C440.252 181.21 433.313 179.893 429.803 179.213C429.404 179.136 428.989 179.236 428.669 179.487C428.344 179.74 428.149 180.123 428.128 180.537C426.965 205.286 428.675 216.881 429.922 225.346C430.401 228.589 430.813 231.388 430.998 234.354C431.011 234.56 430.956 234.951 430.446 235.244C429.486 235.795 425.902 236.033 420.811 236.033ZM359.406 229.246C360.836 230.32 373.397 232.225 394.47 233.726C415.496 235.225 428.178 235.109 429.785 234.238C429.597 231.391 429.195 228.665 428.73 225.52C427.475 217.005 425.754 205.344 426.922 180.479C426.959 179.717 427.324 179.009 427.924 178.537C428.521 178.067 429.291 177.883 430.036 178.025C433.541 178.703 440.468 180.02 447.496 181.213C448.086 181.313 448.678 181.144 449.122 180.748C449.569 180.353 449.809 179.783 449.78 179.186L448.437 151.714C448.411 151.16 448.149 150.643 447.721 150.295C445.728 148.674 440.405 144.516 434.067 140.893C426.351 136.483 418.1 134.098 410.81 134.196L383.604 133.541L381.812 133.663C369.625 134.475 360.818 135.061 350.232 143.268C348.546 144.576 346.434 146.162 344.201 147.843C339.75 151.192 333.744 155.707 332.698 156.931L351.371 183.862C351.562 184.126 351.821 184.284 352.135 184.324C352.555 184.379 353.055 184.213 353.465 183.875L354.062 183.384C356.713 181.21 360.717 177.925 363.598 176.218C363.823 176.086 364.098 176.086 364.315 176.228C365.023 176.685 364.801 180.184 364.487 183.036L359.406 229.246ZM359.388 229.396L359.385 229.412C359.388 229.407 359.388 229.401 359.388 229.396ZM332.497 156.646L332.507 156.662C332.505 156.657 332.502 156.651 332.497 156.646Z" fill="#212121"/>
<path d="M378.916 214.838C378.916 214.838 377.414 211.305 373.209 210.97L369.07 210.619C367.767 210.627 365.996 211.569 365.068 212.485L361.233 216.102C360.239 217.081 358.64 217.076 357.657 216.089L354.448 212.872L344.426 195.38C342.316 191.702 343.154 187.066 346.376 184.303C347.225 183.574 348.15 182.72 349.144 181.714L334.665 160.831C328.514 166.185 322.662 173.442 320.896 181.574C317.352 197.879 347.629 220.604 347.629 220.604L351.536 223.96C353.217 225.406 355.326 226.261 357.538 226.399L357.829 226.417C361.532 226.647 364.672 225.198 366.768 223.715C368.864 222.235 371.737 221.29 371.737 221.29C371.737 221.29 371.737 221.29 374.454 220.826C376.035 220.554 377.795 219.121 377.795 219.121C379.183 217.997 379.627 216.216 378.916 214.838Z" fill="white"/>
<path d="M358.598 227.045C358.333 227.045 358.064 227.037 357.789 227.019L357.501 227C355.17 226.855 352.91 225.939 351.139 224.417L347.232 221.06C346.016 220.15 316.72 197.94 320.304 181.445C322.279 172.357 328.987 164.971 334.268 160.375C334.397 160.261 334.569 160.211 334.741 160.232C334.913 160.253 335.066 160.346 335.164 160.488L349.643 181.371C349.809 181.609 349.78 181.933 349.577 182.139C348.633 183.092 347.69 183.973 346.772 184.759C343.767 187.335 343.003 191.675 344.954 195.079L354.937 212.503L358.088 215.662C358.836 216.414 360.057 216.416 360.813 215.672L364.658 212.046C365.658 211.06 367.587 210.025 369.07 210.015L373.264 210.368C377.649 210.717 379.315 214.231 379.468 214.58C380.311 216.237 379.782 218.295 378.173 219.591C378.099 219.651 376.275 221.124 374.557 221.419L371.887 221.878C371.536 221.997 368.983 222.892 367.122 224.208C365.573 225.298 362.494 227.042 358.598 227.045ZM334.553 161.734C329.497 166.233 323.328 173.223 321.486 181.704C318.063 197.449 347.692 219.899 347.991 220.124L351.927 223.504C353.499 224.855 355.505 225.668 357.575 225.797L357.863 225.815C361.769 226.058 364.899 224.295 366.413 223.224C368.557 221.707 371.422 220.76 371.541 220.72C371.57 220.709 371.599 220.704 371.628 220.699L374.345 220.234C375.514 220.034 376.952 219.029 377.406 218.659C378.572 217.72 378.968 216.266 378.379 215.121C378.374 215.107 378.366 215.094 378.36 215.081C378.305 214.949 376.933 211.878 373.161 211.577L369.02 211.226C367.952 211.236 366.316 212.11 365.494 212.92L361.648 216.546C360.432 217.749 358.444 217.738 357.229 216.519L354.02 213.305C353.983 213.268 353.951 213.226 353.922 213.178L343.899 195.686C341.663 191.781 342.538 186.804 345.979 183.854C346.757 183.187 347.557 182.448 348.358 181.653L334.553 161.734Z" fill="#212121"/>
<path d="M390.508 113.735L388.288 135.652C387.976 138.336 390.016 140.716 392.72 140.822L399.27 141.075C401.918 141.178 404.115 139.051 404.094 136.404L403.935 115.477L390.508 113.735Z" fill="white"/>
<path d="M399.458 141.682C399.386 141.682 399.318 141.682 399.246 141.677L392.697 141.423C391.24 141.368 389.861 140.7 388.914 139.595C387.966 138.489 387.519 137.027 387.688 135.581L389.906 113.674C389.921 113.513 390.003 113.363 390.13 113.263C390.257 113.16 390.421 113.115 390.585 113.136L404.009 114.875C404.308 114.914 404.533 115.168 404.535 115.469L404.694 136.396C404.707 137.842 404.141 139.194 403.1 140.202C402.114 141.162 400.827 141.682 399.458 141.682ZM391.047 114.413L388.891 135.713C388.758 136.85 389.091 137.948 389.834 138.811C390.574 139.674 391.608 140.175 392.747 140.217L399.297 140.471C400.415 140.513 401.467 140.112 402.265 139.336C403.066 138.56 403.502 137.521 403.491 136.41L403.335 116.007L391.047 114.413Z" fill="#212121"/>
<path d="M401.07 86.7538C395.808 87.4636 395.089 93.3955 388.801 94.0895C385.92 94.4088 384.471 93.3401 381.918 94.5618C380.227 95.3719 377.766 97.3219 377.515 99.9079C377.192 103.198 380.805 103.911 384.495 110.244C387.085 114.693 387.241 117.672 389.303 117.994C391.388 118.321 392.321 115.447 394.624 115.632C397.605 115.872 397.994 120.841 401.139 122.324C403.121 123.258 407.276 123.065 413.141 118.683C414.093 117.973 414.399 116.685 413.871 115.624C413.194 114.265 412.33 112.55 411.365 110.983C406.771 103.51 403.526 102.248 404.168 99.9554C405.151 96.4459 411.603 97.0976 412.1 94.2742C412.621 91.3452 406.475 86.0255 401.07 86.7538Z" fill="#212121"/>
<path d="M403.489 123.377C402.17 123.377 401.305 123.071 400.885 122.873C399.23 122.094 398.284 120.485 397.446 119.065C396.585 117.601 395.839 116.337 394.579 116.236C393.664 116.157 393.016 116.709 392.261 117.342C391.444 118.026 390.524 118.796 389.213 118.596C387.587 118.34 386.937 116.843 386.041 114.769C385.542 113.611 384.918 112.17 383.974 110.553C382.333 107.734 380.729 106.075 379.439 104.742C377.856 103.106 376.711 101.924 376.915 99.8525C377.184 97.0977 379.637 94.9893 381.659 94.0209C383.372 93.2003 384.648 93.3217 386.002 93.451C386.826 93.5301 387.677 93.6119 388.737 93.4932C391.827 93.1528 393.437 91.5009 395.139 89.7541C396.688 88.1656 398.289 86.5243 400.991 86.1575C404.665 85.6588 408.537 87.7486 410.741 90.0391C412.206 91.559 412.919 93.1449 412.7 94.3824C412.401 96.0791 410.548 96.723 408.759 97.3457C407.001 97.9579 405.183 98.5886 404.755 100.119C404.503 101.014 405.045 101.705 406.642 103.573C407.963 105.117 409.774 107.23 411.883 110.666C412.843 112.226 413.694 113.904 414.415 115.355C415.073 116.677 414.69 118.282 413.506 119.165C408.957 122.567 405.627 123.377 403.489 123.377ZM394.407 115.02C394.494 115.02 394.584 115.023 394.674 115.031C396.561 115.184 397.539 116.843 398.488 118.45C399.273 119.78 400.082 121.158 401.4 121.778C403.354 122.701 407.371 122.242 412.782 118.2C413.501 117.664 413.733 116.693 413.334 115.891C412.623 114.463 411.788 112.814 410.855 111.297C408.793 107.943 407.02 105.869 405.725 104.357C404.123 102.483 403.155 101.354 403.592 99.7945C404.189 97.6571 406.407 96.8866 408.362 96.2058C409.89 95.6728 411.333 95.1714 411.51 94.1713C411.658 93.3269 411.045 92.0947 409.869 90.8729C407.876 88.8041 404.414 86.9095 401.155 87.3502C398.866 87.6589 397.475 89.0838 396.006 90.5932C394.312 92.3295 392.393 94.3006 388.869 94.6885C387.688 94.8178 386.731 94.7281 385.888 94.649C384.606 94.5276 383.594 94.4299 382.182 95.1055C380.784 95.7757 378.352 97.5542 378.117 99.966C377.969 101.483 378.799 102.341 380.308 103.9C381.572 105.207 383.306 106.998 385.021 109.943C385.999 111.624 386.639 113.102 387.151 114.286C388.016 116.287 388.473 117.255 389.401 117.4C390.13 117.516 390.667 117.102 391.486 116.416C392.266 115.759 393.149 115.02 394.407 115.02Z" fill="white"/>
<path d="M393.833 101.043C393.833 101.043 398.456 110.743 400.229 113.165C402.006 115.59 409.94 110.669 409.94 110.669L410.136 108.922L411.085 108.304C411.378 108.114 411.571 107.8 411.605 107.45C411.642 107.101 411.515 106.756 411.267 106.507C409.353 104.613 405.294 100.312 403.322 96.1267C403.324 96.1319 397.959 94.7704 393.833 101.043Z" fill="white"/>
<path d="M401.916 114.437C400.999 114.437 400.224 114.178 399.746 113.524C397.959 111.083 393.479 101.702 393.291 101.304C393.201 101.114 393.215 100.89 393.331 100.713C397.642 94.1555 403.24 95.488 403.475 95.5487C403.65 95.5936 403.795 95.7123 403.874 95.8759C405.835 100.037 410.001 104.402 411.698 106.085C412.078 106.463 412.266 106.985 412.211 107.515C412.155 108.048 411.867 108.521 411.418 108.814L410.707 109.275L410.543 110.74C410.522 110.925 410.419 111.088 410.26 111.186C409.192 111.846 404.826 114.437 401.916 114.437ZM394.528 101.095C395.332 102.768 399.175 110.703 400.718 112.811C401.688 114.133 406.272 112.186 409.372 110.312L409.533 108.859C409.554 108.679 409.652 108.518 409.805 108.421L410.754 107.803C410.897 107.711 410.987 107.56 411.005 107.394C411.021 107.225 410.963 107.062 410.842 106.943C408.722 104.842 404.918 100.758 402.907 96.6702C401.85 96.5066 397.853 96.2717 394.528 101.095Z" fill="#212121"/>
<path d="M395.506 108.93C395.506 108.93 391.859 104.468 390.175 106.555C388.491 108.642 392.633 113.453 395.506 108.93Z" fill="white"/>
<path d="M456.145 105.892L469.109 158.936C470.201 163.251 473.251 166.153 475.918 165.42L480.311 164.211C482.98 163.478 484.257 159.385 483.165 155.071L470.201 102.027L456.145 105.892Z" fill="white"/>
<path d="M475.074 166.135C474.313 166.135 473.534 165.911 472.772 165.467C470.84 164.343 469.252 161.958 468.522 159.082L455.558 106.035C455.481 105.718 455.669 105.396 455.983 105.309L470.039 101.446C470.198 101.401 470.364 101.425 470.507 101.507C470.647 101.589 470.75 101.726 470.787 101.884L483.752 154.928C484.941 159.625 483.501 163.961 480.472 164.792L476.079 166C475.751 166.09 475.415 166.135 475.074 166.135ZM456.871 106.317L469.696 158.791C470.335 161.317 471.747 163.475 473.38 164.425C474.194 164.897 475.016 165.037 475.756 164.837L480.149 163.628C482.459 162.992 483.572 159.142 482.578 155.218L469.762 102.773L456.871 106.317Z" fill="#212121"/>
<path d="M423.949 95.9418L431.231 110.143C432.351 112.331 436.057 112.674 439.503 110.909L428.159 88.7855C424.715 90.5535 422.828 93.7543 423.949 95.9418Z" fill="#212121"/>
<path d="M500.311 17.6002L494.147 20.7535L426.927 87.7353L439.575 112.405L533.268 97.0527L539.432 93.8994L500.311 17.6002Z" fill="white"/>
<path d="M439.575 113.009C439.35 113.009 439.141 112.885 439.038 112.682L426.388 88.0124C426.269 87.7802 426.314 87.4952 426.499 87.3105L493.719 20.3287C493.764 20.2838 493.814 20.2469 493.87 20.2179L500.034 17.0646C500.176 16.9907 500.343 16.9775 500.496 17.0276C500.649 17.0778 500.776 17.1859 500.848 17.3258L539.971 93.625C540.122 93.9232 540.005 94.2847 539.709 94.4377L533.546 97.591C533.49 97.62 533.429 97.6385 533.369 97.6491L439.675 113.001C439.641 113.007 439.606 113.009 439.575 113.009ZM427.665 87.8514L439.913 111.737L533.078 96.4722L538.62 93.6355L500.047 18.413L494.507 21.247L427.665 87.8514Z" fill="#212121"/>
<path d="M533.425 68.5306C538.929 65.72 539.655 56.1504 535.047 47.1563C530.439 38.1623 522.241 33.1497 516.737 35.9603C511.233 38.771 510.507 48.3405 515.115 57.3346C519.724 66.3286 527.921 71.3412 533.425 68.5306Z" fill="#212121"/>
<path d="M542.461 96.7308L537.315 99.3643C535.092 100.502 532.383 99.4276 531.532 97.0817C521.998 70.8263 509.219 45.8348 493.096 22.1441C491.695 20.0833 492.406 17.2651 494.626 16.1305L499.767 13.4996C501.609 12.5576 503.866 13.117 505.05 14.8111C521.927 38.9503 535.082 64.5751 544.486 91.6934C545.162 93.6435 544.298 95.7914 542.461 96.7308Z" fill="white"/>
<path d="M535.431 100.42C534.844 100.42 534.257 100.312 533.697 100.093C532.425 99.5938 531.429 98.57 530.964 97.2849C521.446 71.0743 508.537 45.906 492.596 22.4819C491.83 21.3551 491.581 19.9513 491.919 18.632C492.255 17.3179 493.141 16.2096 494.349 15.5921L499.489 12.9613C501.591 11.8873 504.194 12.5312 505.545 14.4654C522.395 38.565 535.687 64.4827 545.057 91.4955C545.826 93.7147 544.827 96.1951 542.733 97.2664L537.587 99.8999C536.916 100.246 536.173 100.42 535.431 100.42ZM501.646 13.65C501.102 13.65 500.552 13.774 500.042 14.0353L494.901 16.6661C494.002 17.1279 493.341 17.9512 493.09 18.9301C492.839 19.9144 493.022 20.962 493.595 21.8037C509.594 45.3123 522.548 70.5703 532.1 96.8733C532.449 97.8338 533.192 98.5964 534.138 98.9684C535.079 99.3379 536.136 99.2851 537.038 98.8259L542.184 96.1925C543.743 95.3929 544.489 93.5458 543.915 91.8913C534.582 64.9814 521.34 39.164 504.556 15.1567C503.877 14.1857 502.772 13.65 501.646 13.65Z" fill="#212121"/>
<path d="M442.136 87.3818C441.975 87.3818 441.814 87.3158 441.695 87.1892C441.467 86.9464 441.481 86.5638 441.726 86.3368L455.656 73.3885C455.899 73.1616 456.282 73.1748 456.509 73.4176C456.737 73.6603 456.723 74.0429 456.48 74.2699L442.551 87.2182C442.432 87.3264 442.284 87.3818 442.136 87.3818Z" fill="#212121"/>
<path d="M461.296 69.5754C461.135 69.5754 460.974 69.5095 460.855 69.3828C460.628 69.1401 460.641 68.7574 460.887 68.5305L486.239 44.9665C486.483 44.7396 486.866 44.7528 487.093 44.9956C487.32 45.2383 487.307 45.621 487.061 45.8479L461.709 69.4118C461.592 69.52 461.444 69.5754 461.296 69.5754Z" fill="#212121"/>
<path d="M529.311 16.1199C529.166 16.1199 529.021 16.0672 528.904 15.9616C528.659 15.7373 528.64 15.3547 528.865 15.1093L542.493 0.197769C542.717 -0.0502722 543.101 -0.0661046 543.346 0.158188C543.592 0.382481 543.611 0.765099 543.386 1.0105L529.758 15.922C529.639 16.054 529.475 16.1199 529.311 16.1199Z" fill="#212121"/>
<path d="M589.712 70.3487C589.707 70.3487 589.699 70.3487 589.694 70.3487L556.15 69.3011C555.817 69.2906 555.555 69.0135 555.563 68.6784C555.574 68.3459 555.854 68.0847 556.187 68.0926L589.731 69.1402C590.064 69.1507 590.326 69.4278 590.318 69.7629C590.307 70.0901 590.037 70.3487 589.712 70.3487Z" fill="#212121"/>
</g>
<defs>
<clipPath id="clip0_109_12873">
<rect width="279" height="414" fill="white" transform="translate(320)"/>
</clipPath>
</defs>
</svg>
