<svg width="551" height="473" viewBox="0 0 551 473" fill="none" xmlns="http://www.w3.org/2000/svg">
<mask id="path-1-inside-1_109_13030" fill="white">
<path d="M428.519 98.4379C401.212 60.4603 363.258 31.4326 319.454 15.0258C275.651 -1.38102 227.966 -4.43017 182.43 6.26394C136.893 16.9581 95.5506 40.9151 63.6298 75.1056C31.709 109.296 10.6437 152.184 3.09777 198.347L3.95283 198.487C11.4711 152.493 32.4593 109.762 64.2631 75.6969C96.067 41.6316 137.258 17.7623 182.628 7.1074C227.997 -3.54753 275.508 -0.509552 319.151 15.8372C362.793 32.1839 400.609 61.1052 427.815 98.9437L428.519 98.4379Z"/>
</mask>
<path d="M428.519 98.4379C401.212 60.4603 363.258 31.4326 319.454 15.0258C275.651 -1.38102 227.966 -4.43017 182.43 6.26394C136.893 16.9581 95.5506 40.9151 63.6298 75.1056C31.709 109.296 10.6437 152.184 3.09777 198.347L3.95283 198.487C11.4711 152.493 32.4593 109.762 64.2631 75.6969C96.067 41.6316 137.258 17.7623 182.628 7.1074C227.997 -3.54753 275.508 -0.509552 319.151 15.8372C362.793 32.1839 400.609 61.1052 427.815 98.9437L428.519 98.4379Z" stroke="#212121" stroke-width="2" mask="url(#path-1-inside-1_109_13030)"/>
<mask id="path-2-inside-2_109_13030" fill="white">
<path d="M2.45462 202.515C-2.00841 233.25 -0.373979 264.563 7.2646 294.667C14.9032 324.77 28.3963 353.075 46.9736 377.964C65.5509 402.853 88.8485 423.839 115.536 439.724C142.224 455.609 171.779 466.082 202.515 470.545L202.639 469.688C172.016 465.241 142.569 454.807 115.979 438.98C89.3894 423.153 66.1771 402.243 47.6679 377.445C29.1587 352.648 15.715 324.447 8.10439 294.454C0.4938 264.46 -1.13464 233.262 3.31204 202.639L2.45462 202.515Z"/>
</mask>
<path d="M2.45462 202.515C-2.00841 233.25 -0.373979 264.563 7.2646 294.667C14.9032 324.77 28.3963 353.075 46.9736 377.964C65.5509 402.853 88.8485 423.839 115.536 439.724C142.224 455.609 171.779 466.082 202.515 470.545L202.639 469.688C172.016 465.241 142.569 454.807 115.979 438.98C89.3894 423.153 66.1771 402.243 47.6679 377.445C29.1587 352.648 15.715 324.447 8.10439 294.454C0.4938 264.46 -1.13464 233.262 3.31204 202.639L2.45462 202.515Z" stroke="#212121" stroke-width="2" mask="url(#path-2-inside-2_109_13030)"/>
<mask id="path-3-inside-3_109_13030" fill="white">
<path d="M468.812 280.812C478.791 228.494 470.818 174.339 446.184 127.116L445.416 127.517C469.96 174.566 477.903 228.523 467.961 280.649L468.812 280.812Z"/>
</mask>
<path d="M468.812 280.812C478.791 228.494 470.818 174.339 446.184 127.116L445.416 127.517C469.96 174.566 477.903 228.523 467.961 280.649L468.812 280.812Z" stroke="#212121" stroke-width="2" mask="url(#path-3-inside-3_109_13030)"/>
<mask id="path-4-inside-4_109_13030" fill="white">
<path d="M261.964 471.625C313.683 466.024 362.113 443.526 399.753 407.616L399.155 406.989C361.653 442.768 313.4 465.183 261.87 470.764L261.964 471.625Z"/>
</mask>
<path d="M261.964 471.625C313.683 466.024 362.113 443.526 399.753 407.616L399.155 406.989C361.653 442.768 313.4 465.183 261.87 470.764L261.964 471.625Z" stroke="#212121" stroke-width="2" mask="url(#path-4-inside-4_109_13030)"/>
<path d="M78.0895 120.144H394.682C401.15 120.144 406.393 125.405 406.393 131.894V344.517C406.393 351.007 401.15 356.267 394.682 356.267H78.0895C71.6219 356.267 66.3789 351.007 66.3789 344.517V131.894C66.3789 125.405 71.6219 120.144 78.0895 120.144Z" fill="white" stroke="white"/>
<path d="M78.0895 120.144H394.682C401.15 120.144 406.393 125.405 406.393 131.894V344.517C406.393 351.007 401.15 356.267 394.682 356.267H78.0895C71.6219 356.267 66.3789 351.007 66.3789 344.517V131.894C66.3789 125.405 71.6219 120.144 78.0895 120.144Z" stroke="black"/>
<path d="M88.3223 130.411H384.45C390.918 130.411 396.161 135.672 396.161 142.162V321.614C396.161 328.103 390.918 333.364 384.45 333.364H88.3223C81.8547 333.364 76.6116 328.103 76.6116 321.614V142.162C76.6116 135.672 81.8547 130.411 88.3223 130.411Z" stroke="black"/>
<path d="M88.309 247H156.699V315.009H88.309V247Z" stroke="black"/>
<path d="M279.688 242.613H384.354V315.252H279.688V242.613Z" stroke="black"/>
<path d="M348.58 291.451C346.652 288.697 343.176 288.399 340.811 290.794L335.672 296C333.308 298.392 329.738 298.164 327.695 295.496L306.691 268.032C304.646 265.36 301.764 265.629 300.25 268.633L279.368 310.023C277.854 313.023 279.35 315.46 282.71 315.46H320.124H359.283C362.644 315.46 363.803 313.224 361.883 310.467L348.58 291.451Z" fill="black" fill-opacity="0.06"/>
<path d="M351.432 277.827C346.684 276.706 343.745 271.949 344.866 267.202C345.987 262.454 350.744 259.515 355.491 260.636C360.239 261.757 363.179 266.514 362.058 271.261C360.937 276.009 356.179 278.948 351.432 277.827Z" fill="black" fill-opacity="0.06"/>
<path d="M157 146H89" stroke="black"/>
<path d="M157 177H89" stroke="black"/>
<path d="M157 208H89" stroke="black"/>
<path d="M265.925 244.335H169.551" stroke="black"/>
<path d="M265.925 279.672H169.551" stroke="black"/>
<path d="M265.925 313.403H169.551" stroke="black"/>
<path d="M257.245 344.421H215.528" stroke="black"/>
<path d="M176 142H384V215H176V142Z" stroke="black"/>
<path d="M267.698 159.563L254.382 195.857H251L265.532 157.257H267.883L267.698 159.563ZM279.8 195.857L266.457 159.563L266.272 157.257H268.623L283.182 195.857H279.8ZM277.422 182.23V185.041H256.998V182.23H277.422ZM306.724 190.29V155.136H309.894V195.857H306.934L306.724 190.29ZM286.881 181.806V181.25C286.881 179.023 287.136 177.017 287.647 175.231C288.158 173.429 288.889 171.891 289.84 170.619C290.809 169.328 291.971 168.348 293.327 167.676C294.683 166.987 296.216 166.642 297.924 166.642C299.598 166.642 301.077 166.916 302.364 167.464C303.65 168.012 304.751 168.798 305.666 169.823C306.6 170.848 307.349 172.068 307.912 173.482C308.493 174.896 308.916 176.469 309.18 178.201V185.279C308.969 186.905 308.581 188.399 308.018 189.759C307.454 191.103 306.706 192.278 305.772 193.285C304.839 194.275 303.711 195.044 302.39 195.592C301.086 196.122 299.581 196.387 297.872 196.387C296.181 196.387 294.658 196.034 293.301 195.327C291.945 194.62 290.791 193.621 289.84 192.331C288.889 191.023 288.158 189.477 287.647 187.692C287.136 185.907 286.881 183.945 286.881 181.806ZM290.051 181.25V181.806C290.051 183.485 290.218 185.041 290.553 186.472C290.888 187.904 291.399 189.15 292.086 190.21C292.773 191.271 293.645 192.101 294.701 192.702C295.758 193.303 297.009 193.604 298.453 193.604C300.267 193.604 301.791 193.259 303.024 192.57C304.257 191.863 305.243 190.935 305.984 189.786C306.724 188.62 307.261 187.347 307.595 185.968V177.724C307.383 176.787 307.076 175.832 306.67 174.86C306.265 173.888 305.71 172.996 305.006 172.183C304.318 171.352 303.438 170.689 302.364 170.194C301.307 169.682 300.021 169.426 298.506 169.426C297.044 169.426 295.785 169.726 294.728 170.327C293.671 170.928 292.79 171.767 292.086 172.846C291.399 173.906 290.888 175.152 290.553 176.584C290.218 178.015 290.051 179.57 290.051 181.25Z" fill="black"/>
<g clip-path="url(#clip0_109_13030)">
<path d="M419.297 406.755C419.297 406.755 420.881 417.98 417.237 422.726L416.136 424.733L434.525 422.573L433.504 420.616C431.687 417.133 430.776 413.342 430.843 409.554L419.297 406.755Z" fill="white"/>
<path d="M416.136 425.321C416.157 425.321 416.181 425.321 416.206 425.316L434.595 423.156C434.788 423.135 434.956 423.017 435.048 422.846C435.139 422.675 435.139 422.472 435.05 422.298L434.029 420.341C432.266 416.959 431.369 413.233 431.433 409.562C431.438 409.287 431.251 409.044 430.983 408.98L419.44 406.178C419.249 406.133 419.048 406.183 418.904 406.314C418.759 406.445 418.689 406.64 418.716 406.833C418.732 406.943 420.225 417.871 416.774 422.362C416.755 422.386 416.739 422.41 416.725 422.437L415.624 424.444C415.52 424.637 415.53 424.875 415.654 425.057C415.758 425.225 415.943 425.321 416.136 425.321ZM433.609 422.089L417.205 424.014L417.736 423.044C420.897 418.871 420.281 410.279 419.986 407.525L430.249 410.017C430.262 413.73 431.203 417.478 432.979 420.886L433.609 422.089Z" fill="#212121"/>
<path d="M416.897 416.513L415.062 418.657C411.428 422.902 406.817 426.201 401.621 428.27L397.629 429.861C397.249 430.013 396.97 430.342 396.881 430.74L396.836 430.943C396.338 433.197 399.03 438.257 407.27 439.832C412.366 440.808 424.244 441.246 438.445 435.48C439.343 435.116 439.9 434.213 439.815 433.25C439.506 429.74 438.445 421.378 435.174 417.293C434.809 416.839 434.139 416.786 433.724 417.192L429.724 421.111C427.928 422.87 425.043 422.838 423.288 421.041L418.805 416.449C418.274 415.906 417.39 415.935 416.897 416.513Z" fill="white"/>
<path d="M414.472 441C420.193 441 428.705 440.07 438.668 436.025C439.812 435.56 440.511 434.424 440.401 433.199C440.093 429.713 439.016 421.148 435.635 416.927C435.353 416.577 434.935 416.36 434.49 416.331C434.054 416.307 433.622 416.465 433.309 416.772L429.311 420.691C428.555 421.432 427.559 421.827 426.498 421.822C425.439 421.811 424.45 421.386 423.711 420.63L419.228 416.037C418.861 415.66 418.352 415.452 417.819 415.47C417.291 415.486 416.792 415.727 416.45 416.128L414.614 418.272C411.058 422.426 406.49 425.696 401.404 427.722L397.412 429.312C396.849 429.537 396.437 430.024 396.305 430.612L396.26 430.815C396.013 431.927 396.396 433.357 397.313 434.742C398.379 436.359 401.077 439.244 407.16 440.409C408.098 440.588 410.667 441 414.472 441ZM434.397 417.507C434.405 417.507 434.413 417.507 434.418 417.507C434.533 417.515 434.638 417.569 434.71 417.662C437.891 421.632 438.925 429.922 439.225 433.301C439.287 434.007 438.885 434.664 438.22 434.932C421.94 441.543 409.67 439.69 407.38 439.252C401.723 438.169 399.261 435.557 398.296 434.095C397.439 432.793 397.275 431.678 397.412 431.069L397.457 430.866C397.503 430.657 397.65 430.486 397.849 430.406L401.841 428.815C407.104 426.717 411.83 423.338 415.512 419.036L417.347 416.892C417.476 416.74 417.658 416.655 417.859 416.647C418.06 416.639 418.245 416.716 418.384 416.858L422.867 421.45C423.826 422.434 425.112 422.982 426.487 422.998C427.867 423.017 429.158 422.493 430.139 421.531L434.137 417.612C434.228 417.523 434.332 417.507 434.397 417.507Z" fill="#212121"/>
<path d="M418.414 433.648C418.419 433.648 418.424 433.648 418.43 433.648C424.536 433.598 430.458 432.304 436.028 429.804L439.147 428.404C439.445 428.27 439.576 427.922 439.445 427.626C439.311 427.329 438.962 427.198 438.665 427.329L435.546 428.73C430.126 431.162 424.365 432.419 418.422 432.47C418.419 432.47 418.419 432.47 418.416 432.47C418.21 432.47 418.022 432.373 417.899 432.208C417.776 432.039 417.741 431.831 417.808 431.633L418.333 430.029C418.54 429.398 418.357 428.73 417.862 428.289C417.363 427.847 416.68 427.746 416.074 428.027L414.515 428.746C410.046 430.809 404.853 430.959 400.271 429.157L399.371 428.805C399.068 428.684 398.725 428.834 398.604 429.136C398.484 429.438 398.634 429.78 398.937 429.901L399.837 430.253C404.716 432.176 410.249 432.015 415.011 429.815L416.57 429.096C416.83 428.976 417.026 429.123 417.077 429.171C417.13 429.219 417.299 429.395 417.211 429.665L416.685 431.269C416.5 431.831 416.597 432.429 416.948 432.905C417.294 433.378 417.827 433.648 418.414 433.648Z" fill="#212121"/>
<path d="M500.378 384.859C500.378 384.859 508.119 393.435 508.154 399.519L508.5 401.842L521.828 387.433L519.735 386.791C516.337 384.885 512.841 383.88 510.681 380.646L500.378 384.859Z" fill="white"/>
<path d="M508.497 402.43C508.661 402.43 508.816 402.363 508.931 402.24L522.259 387.831C522.396 387.682 522.449 387.473 522.396 387.278C522.342 387.083 522.192 386.928 521.999 386.869L519.965 386.246C519.127 385.778 518.285 385.364 517.471 384.963C515.019 383.757 512.704 382.619 511.169 380.317C511.013 380.084 510.713 379.993 510.453 380.098L500.153 384.311C499.976 384.383 499.845 384.538 499.802 384.725C499.759 384.912 499.81 385.107 499.939 385.249C500.014 385.332 507.53 393.731 507.562 399.516C507.562 399.543 507.565 399.572 507.567 399.599L507.913 401.922C507.945 402.147 508.106 402.331 508.323 402.398C508.382 402.422 508.441 402.43 508.497 402.43ZM520.756 387.722L508.902 400.537L508.744 399.471C508.685 394.14 503.16 387.206 501.364 385.091L510.467 381.367C512.163 383.664 514.491 384.811 516.951 386.022C517.771 386.425 518.615 386.84 519.443 387.305C519.48 387.326 519.518 387.342 519.558 387.356L520.756 387.722Z" fill="#212121"/>
<path d="M505.402 396.72L505.877 399.546C506.814 405.143 506.375 410.886 504.593 416.275L503.224 420.416C503.093 420.811 503.168 421.245 503.422 421.573L503.551 421.742C504.984 423.602 510.694 424.819 517.312 419.445C521.407 416.123 529.517 407.178 534.3 392.373C534.603 391.438 534.263 390.416 533.456 389.852C530.514 387.797 523.293 383.153 517.966 383.025C517.374 383.012 516.892 383.495 516.937 384.086L517.382 389.756C517.583 392.301 515.67 394.523 513.119 394.712L506.603 395.194C505.828 395.255 505.274 395.961 505.402 396.72Z" fill="white"/>
<path d="M507.935 423.912C510.108 423.912 513.591 423.228 517.682 419.905C519.571 418.373 529.271 409.851 534.858 392.558C535.244 391.368 534.812 390.088 533.789 389.374C530.865 387.334 523.475 382.573 517.974 382.439C517.514 382.429 517.08 382.611 516.769 382.937C516.463 383.257 516.311 383.693 516.345 384.134L516.79 389.804C516.873 390.879 516.533 391.919 515.831 392.737C515.129 393.555 514.148 394.047 513.071 394.127L506.555 394.608C506.021 394.648 505.528 394.91 505.196 395.33C504.867 395.75 504.727 396.292 504.816 396.816L505.29 399.642C506.209 405.125 505.772 410.813 504.028 416.09L502.659 420.231C502.466 420.811 502.576 421.448 502.948 421.932L503.077 422.1C503.781 423.014 505.148 423.65 506.823 423.846C507.147 423.888 507.517 423.912 507.935 423.912ZM517.937 383.618C517.94 383.618 517.945 383.618 517.948 383.618C523.127 383.741 530.279 388.358 533.113 390.339C533.708 390.756 533.96 391.502 533.735 392.197C528.25 409.175 518.781 417.497 516.938 418.994C512.393 422.683 508.738 422.889 506.965 422.683C505.384 422.498 504.406 421.894 504.017 421.389L503.889 421.221C503.755 421.047 503.714 420.817 503.784 420.606L505.153 416.465C506.957 411.006 507.409 405.122 506.458 399.452L505.984 396.626C505.949 396.423 506.003 396.223 506.129 396.06C506.255 395.899 506.439 395.8 506.643 395.784L513.159 395.303C514.553 395.202 515.818 394.563 516.729 393.507C517.637 392.451 518.079 391.103 517.969 389.716L517.524 384.046C517.514 383.896 517.586 383.797 517.629 383.749C517.709 383.664 517.819 383.618 517.937 383.618Z" fill="#212121"/>
<path d="M503.824 419.496C503.918 419.496 504.014 419.472 504.105 419.424L504.971 418.956C509.66 416.419 513.149 412.022 514.545 406.886L515.003 405.202C515.081 404.919 515.327 404.86 515.402 404.849C515.477 404.839 515.729 404.823 515.884 405.074L516.793 406.531C517.109 407.039 517.634 407.352 518.234 407.392C518.832 407.432 519.395 407.189 519.778 406.729C523.73 401.949 526.592 396.503 528.282 390.542L529.228 387.203C529.317 386.89 529.134 386.564 528.821 386.476C528.505 386.388 528.18 386.57 528.092 386.882L527.146 390.221C525.501 396.025 522.714 401.326 518.867 405.978C518.73 406.143 518.529 406.231 518.312 406.215C518.098 406.202 517.907 406.087 517.795 405.905L516.887 404.448C516.53 403.879 515.895 403.585 515.231 403.684C514.563 403.783 514.041 404.245 513.864 404.892L513.406 406.576C512.093 411.402 508.816 415.537 504.408 417.922L503.543 418.39C503.256 418.545 503.149 418.903 503.304 419.189C503.412 419.384 503.615 419.496 503.824 419.496Z" fill="#212121"/>
<path d="M435.145 254.41L434.17 254.676L434.163 254.709L433.841 254.778C425.956 256.449 417.72 256.16 411.47 255.459C408.342 255.108 405.704 254.654 403.848 254.286C402.919 254.102 402.186 253.94 401.684 253.824C401.574 253.799 401.476 253.776 401.389 253.755C401.387 253.761 401.386 253.767 401.384 253.773C401.299 254.096 401.174 254.575 401.016 255.195C400.7 256.437 400.25 258.246 399.717 260.515C398.652 265.055 397.254 271.436 395.924 278.8C393.263 293.537 390.883 312.174 391.973 327.862L391.474 327.897L391.973 327.862C393.061 343.535 399.68 363.981 406.05 380.547C409.231 388.822 412.345 396.114 414.663 401.337C415.823 403.948 416.783 406.042 417.453 407.483C417.788 408.203 418.05 408.76 418.229 409.137C418.304 409.296 418.365 409.422 418.41 409.516C422.67 410.864 426.554 410.721 429.388 410.233C430.828 409.985 431.994 409.648 432.798 409.375C433.2 409.239 433.511 409.118 433.719 409.032C433.749 409.02 433.777 409.009 433.802 408.998C440.021 377.935 433.733 349.471 431.279 339.974C429.788 334.209 428.564 324.968 430.194 314.348L430.463 312.593L431.149 314.23C434.973 323.352 442.755 341.217 449.08 351.297C456.625 363.323 470.078 373.246 481.696 380.176C487.497 383.636 492.825 386.341 496.702 388.18C498.64 389.1 500.215 389.803 501.305 390.276C501.85 390.512 502.273 390.691 502.56 390.811C502.653 390.849 502.731 390.882 502.795 390.908C507.501 388.691 510.851 384.353 511.804 379.252C505.301 362.235 493.915 347.443 483.3 333.652C482.142 332.149 480.994 330.657 479.862 329.175C474.103 321.636 468.769 314.361 464.868 307.166C460.966 299.969 458.479 292.819 458.443 285.528C458.382 272.901 455.931 262.91 453.498 256.081C452.282 252.667 451.071 250.043 450.166 248.276C449.729 247.424 449.364 246.772 449.104 246.326C448.019 248.086 446.484 249.536 444.647 250.512L444.646 250.512C441.622 252.113 438.495 253.491 435.145 254.41L435.145 254.41Z" fill="#305DFF" stroke="#212121"/>
<path d="M425.369 411.682C430.626 411.682 434.281 409.99 434.496 409.889C434.664 409.808 434.785 409.656 434.82 409.474C440.977 379.028 435.133 350.542 432.333 339.71C431.251 335.521 429.713 327.156 430.98 316.642C435.165 326.517 442.261 342.485 448.155 351.881C463.302 376.021 502.198 391.847 502.589 392.004C502.742 392.066 502.91 392.061 503.058 391.991L503.194 391.927C508.291 389.55 511.919 384.835 512.902 379.312C512.921 379.207 512.91 379.101 512.873 378.999C506.319 361.772 495.057 347.142 484.167 332.992C471.539 316.586 459.61 301.092 459.535 285.523C459.412 260.258 449.68 245.165 449.584 245.015C449.468 244.841 449.273 244.737 449.058 244.75C448.849 244.761 448.662 244.881 448.565 245.068C447.569 246.993 446.036 248.544 444.136 249.551C440.76 251.34 437.81 252.551 434.855 253.361L433.582 253.708C433.555 253.716 433.528 253.724 433.504 253.735C418.223 256.935 401.35 252.626 401.182 252.583C400.868 252.5 400.547 252.687 400.464 252.997C400.346 253.43 388.717 296.697 390.887 327.94C393.058 359.195 417.277 409.677 417.521 410.183C417.591 410.327 417.717 410.437 417.869 410.487C420.565 411.37 423.116 411.68 425.369 411.682ZM433.724 408.937C432.368 409.493 425.977 411.803 418.475 409.447C416.698 405.721 394.143 357.819 392.063 327.862C390.04 298.731 400.11 259.012 401.455 253.863C404.574 254.593 419.879 257.83 433.86 254.866C433.911 254.855 433.96 254.839 434.005 254.815L435.168 254.497C438.209 253.663 441.234 252.422 444.688 250.591C446.497 249.632 448.005 248.231 449.099 246.507C451.084 249.976 458.249 263.982 458.353 285.531C458.431 301.496 470.478 317.142 483.23 333.711C494.036 347.748 505.209 362.264 511.71 379.264C510.759 384.305 507.439 388.609 502.792 390.815C499.518 389.457 463.485 374.091 449.155 351.256C442.89 341.271 435.235 323.756 431.229 314.202C431.127 313.958 430.878 313.811 430.613 313.843C430.35 313.875 430.141 314.079 430.101 314.338C428.303 326.052 430.01 335.443 431.186 340.001C433.96 350.718 439.734 378.847 433.724 408.937Z" fill="white"/>
<path d="M353.61 173.641C352.169 174.27 350.497 173.604 349.878 172.155L341.063 151.507L346.287 149.232L355.103 169.88C355.722 171.329 355.055 173.013 353.61 173.641Z" fill="#212121"/>
<path d="M352.48 174.467C352.943 174.467 353.407 174.371 353.846 174.181C355.583 173.425 356.389 171.393 355.644 169.65L346.826 149.002C346.765 148.857 346.647 148.742 346.502 148.686C346.357 148.628 346.191 148.63 346.049 148.694L340.824 150.969C340.527 151.098 340.39 151.442 340.519 151.739L349.334 172.388C349.696 173.235 350.366 173.89 351.221 174.227C351.628 174.387 352.054 174.467 352.48 174.467ZM345.977 150.007L354.559 170.11C355.05 171.259 354.519 172.601 353.375 173.101C352.823 173.342 352.215 173.353 351.657 173.131C351.097 172.909 350.658 172.481 350.422 171.925L341.834 151.811L345.977 150.007Z" fill="white"/>
<path d="M377.868 113.618C371.488 141.412 343.943 158.834 316.344 152.528C288.746 146.222 271.546 118.577 277.929 90.7834C284.309 62.9868 311.853 45.5678 339.452 51.874C367.048 58.1802 384.247 85.8245 377.868 113.618ZM371.281 112.113C376.823 87.9818 361.89 63.9812 337.927 58.5064C313.968 53.0315 290.053 68.1569 284.512 92.2858C278.974 116.417 293.906 140.418 317.866 145.893C341.829 151.37 365.743 136.245 371.281 112.113Z" fill="#212121"/>
<path d="M327.695 154.402C351.378 154.402 372.889 137.945 378.444 113.749C384.885 85.6828 367.453 57.6696 339.583 51.2992C311.712 44.9315 283.797 62.5831 277.353 90.6497C274.231 104.246 276.554 118.227 283.893 130.022C291.232 141.819 302.711 150.015 316.213 153.1C320.058 153.979 323.903 154.402 327.695 154.402ZM328.102 51.1789C331.805 51.1789 335.562 51.5906 339.318 52.4487C366.555 58.6721 383.591 86.0544 377.292 113.487C371.863 137.138 350.837 153.223 327.692 153.223C323.989 153.223 320.232 152.811 316.476 151.953C303.282 148.938 292.068 140.931 284.895 129.401C277.723 117.872 275.453 104.203 278.502 90.9117C283.934 67.264 304.957 51.1789 328.102 51.1789ZM327.721 147.598C348.318 147.598 367.027 133.286 371.858 112.244C377.46 87.8348 362.3 63.4706 338.059 57.9316C313.82 52.3926 289.542 67.7452 283.939 92.1548C278.336 116.564 293.497 140.929 317.735 146.468C321.079 147.232 324.423 147.598 327.721 147.598ZM370.708 111.982C365.25 135.758 341.604 150.713 318 145.321C294.397 139.926 279.633 116.195 285.091 92.4194C290.546 68.6434 314.19 53.6865 337.796 59.0811C361.402 64.4731 376.164 88.2064 370.708 111.982Z" fill="white"/>
<path d="M352.879 182.835C352.228 183.059 350.156 180.359 349.671 179.883C347.764 178.012 343.332 175.807 342.434 171.896C341.271 166.822 343.485 161.376 344.781 161.545C346.076 161.713 347.721 171.342 352.796 171.692C352.796 171.692 353.937 171.559 353.814 166.803C353.795 166.137 354.513 165.675 355.103 165.982C355.917 166.405 356.954 167.311 357.806 169.244C358.894 171.711 358.685 174.558 358.514 176.264C358.399 177.392 358.811 180.779 357.946 181.078L352.879 182.835Z" fill="white"/>
<path d="M352.793 183.439C352.89 183.439 352.981 183.423 353.072 183.391L358.139 181.634C359.092 181.303 359.135 179.835 359.092 177.632C359.082 177.106 359.071 176.606 359.101 176.323C359.315 174.197 359.422 171.447 358.348 169.006C357.402 166.859 356.209 165.891 355.376 165.458C354.915 165.22 354.374 165.242 353.926 165.523C353.471 165.806 353.208 166.29 353.224 166.819C353.308 169.966 352.817 170.869 352.648 171.086C349.736 170.719 348.002 166.648 346.847 163.932C346.06 162.079 345.625 161.058 344.859 160.959C344.43 160.903 344.004 161.104 343.597 161.553C342.247 163.034 340.853 167.616 341.861 172.024C342.568 175.106 345.234 177.135 347.378 178.763C348.099 179.311 348.779 179.83 349.259 180.3C349.363 180.405 349.548 180.618 349.776 180.886C351.244 182.597 352.096 183.439 352.793 183.439ZM357.702 180.538L352.782 182.244C352.313 182.033 351.126 180.653 350.668 180.119C350.411 179.819 350.202 179.579 350.081 179.461C349.548 178.937 348.838 178.397 348.088 177.828C346.097 176.315 343.619 174.43 343.008 171.762C341.936 167.086 343.884 162.574 344.669 162.154C344.934 162.454 345.387 163.52 345.759 164.392C347.054 167.429 349.007 172.019 352.753 172.278C352.79 172.281 352.828 172.281 352.863 172.275C353.49 172.203 354.521 171.39 354.401 166.787C354.395 166.632 354.503 166.549 354.548 166.52C354.602 166.488 354.709 166.439 354.827 166.504C355.491 166.848 356.456 167.645 357.262 169.482C358.35 171.952 358.05 174.932 357.922 176.205C357.887 176.56 357.895 177.068 357.908 177.657C357.927 178.483 357.959 180.177 357.702 180.538Z" fill="#212121"/>
<path d="M349.586 181.808L359.789 178.068C363.798 185.214 368.101 191.352 372.895 195.199C375.713 197.46 378.768 199.299 381.973 200.732C383.414 201.376 385.102 200.711 385.681 199.243C387.273 195.204 389.917 188.839 394.604 181.335C398.124 175.697 403.971 171.072 408.826 168.672C416.366 164.94 425.136 163.138 433.488 164.801C449.608 168.009 460.634 177.384 460.634 177.384C469.406 184.369 485.606 208.731 479.829 220.461C472.745 234.846 453.648 226.43 453.648 226.43C453.648 226.43 453.257 233.073 457.242 242.256C462.081 253.412 457.325 256.299 457.325 256.299C437.676 277.003 394.121 257.454 397.806 248.576C401.747 239.072 401.814 227.024 401.814 227.024C396.367 232.4 388.931 231.555 388.931 231.555C388.931 231.555 384.631 231.231 381.665 230.015C355.867 221.469 349.586 181.808 349.586 181.808Z" fill="white"/>
<path d="M433.322 266.064C442.263 266.064 451.183 263.589 457.71 256.748C458.362 256.293 462.499 252.874 457.785 242.018C454.709 234.926 454.281 229.328 454.238 227.288C458.04 228.708 473.967 233.699 480.363 220.715C486.399 208.455 469.484 183.671 461.006 176.919C460.91 176.836 449.693 167.421 433.609 164.218C425.736 162.652 416.843 164.044 408.569 168.14C404.081 170.361 397.926 174.911 394.108 181.02C389.609 188.221 386.951 194.426 385.137 199.024C384.92 199.575 384.499 200 383.95 200.224C383.39 200.451 382.776 200.441 382.219 200.192C379.004 198.757 375.992 196.923 373.27 194.739C369.05 191.357 364.811 185.81 360.309 177.782C360.167 177.528 359.862 177.419 359.591 177.518L349.388 181.257C349.122 181.354 348.964 181.624 349.007 181.902C349.023 182.001 350.644 192.017 355.414 202.943C361.756 217.47 370.77 227.024 381.48 230.569C384.459 231.793 388.709 232.124 388.888 232.138C389.164 232.17 395.758 232.854 401.184 228.384C401.032 231.79 400.346 240.917 397.264 248.348C396.174 250.979 398.494 254.395 403.633 257.718C410.107 261.905 421.731 266.064 433.322 266.064ZM453.651 225.834C453.544 225.834 453.437 225.864 453.343 225.92C453.177 226.021 453.072 226.195 453.062 226.388C453.045 226.666 452.708 233.277 456.703 242.483C461.242 252.944 457.057 255.767 457.014 255.793C456.974 255.82 456.931 255.852 456.899 255.887C442.405 271.159 415.471 263.968 404.271 256.726C399.724 253.786 397.511 250.821 398.352 248.795C402.294 239.294 402.404 227.141 402.406 227.018C402.409 226.78 402.264 226.564 402.044 226.473C401.825 226.382 401.57 226.43 401.401 226.596C396.214 231.715 389.071 230.97 388.998 230.961C388.934 230.956 384.732 230.627 381.89 229.462C358.208 221.624 351.076 186.69 350.253 182.19L359.524 178.793C364.009 186.719 368.267 192.239 372.527 195.656C375.328 197.901 378.428 199.789 381.737 201.267C382.592 201.649 383.535 201.665 384.395 201.315C385.244 200.97 385.898 200.31 386.233 199.457C388.028 194.904 390.657 188.767 395.107 181.645C398.794 175.745 404.748 171.348 409.091 169.198C417.135 165.218 425.758 163.86 433.376 165.376C449.163 168.519 460.146 177.737 460.253 177.83C468.814 184.65 484.859 208.912 479.302 220.199C472.547 233.918 454.074 225.971 453.89 225.89C453.814 225.85 453.731 225.834 453.651 225.834Z" fill="#212121"/>
<path d="M453.407 219.592C453.651 219.592 453.882 219.44 453.965 219.196C459.377 203.571 456.861 190.935 456.834 190.809C456.767 190.491 456.454 190.285 456.138 190.352C455.819 190.419 455.612 190.729 455.679 191.047C455.704 191.17 458.15 203.507 452.85 218.811C452.743 219.119 452.906 219.453 453.214 219.56C453.279 219.581 453.343 219.592 453.407 219.592Z" fill="#212121"/>
<path d="M402.136 227.692C402.283 227.692 402.433 227.636 402.548 227.524C411.018 219.271 416.905 200.133 417.151 199.323C417.245 199.013 417.071 198.684 416.758 198.588C416.444 198.495 416.117 198.668 416.021 198.981C415.962 199.176 409.976 218.64 401.723 226.682C401.49 226.909 401.485 227.28 401.712 227.513C401.828 227.631 401.98 227.692 402.136 227.692Z" fill="#212121"/>
<path d="M424.284 128.869C421.025 128.885 418.024 130.642 416.387 133.454C415.629 134.756 414.94 135.97 414.801 136.312C414.485 137.092 413.785 139.715 411.224 142.244C410.972 142.492 410.934 142.888 411.154 143.169L412.794 145.262C412.907 145.406 412.955 145.591 412.923 145.77C412.727 146.887 411.749 150.937 412.038 151.67C412.652 153.22 416.366 153.64 417.464 153.731C417.671 153.747 417.856 153.864 417.955 154.044C418.311 154.685 419.252 156.527 420.026 161.117C421.202 168.113 414.52 169.201 415.881 169.888C425.377 174.671 442.866 173.583 441.853 171.594C441.02 169.958 431.422 165.723 430.529 154.215C429.972 147.04 440.044 146.449 432.788 132.788C431.106 129.615 427.453 128.853 424.284 128.869Z" fill="white"/>
<path d="M433.732 173.874C437.949 173.874 441.298 173.347 442.172 172.473C442.501 172.142 442.582 171.714 442.384 171.326C442.132 170.832 441.462 170.308 440.446 169.514C437.421 167.151 431.789 162.75 431.124 154.169C430.937 151.758 432.033 150.186 433.303 148.366C435.546 145.147 438.091 141.501 433.316 132.516C431.834 129.725 428.705 128.255 424.284 128.281C420.841 128.297 417.62 130.166 415.881 133.157C414.455 135.609 414.308 135.972 414.26 136.09C414.217 136.197 414.166 136.336 414.107 136.504C413.732 137.547 412.952 139.718 410.817 141.827C410.348 142.289 410.297 143.022 410.699 143.532L412.339 145.625C412.307 145.92 412.223 146.321 412.124 146.796C411.505 149.753 411.256 151.269 411.5 151.889C412.191 153.635 415.508 154.161 417.427 154.322C418.453 156.142 419.094 159.077 419.455 161.219C420.203 165.654 417.572 167.487 416.157 168.474C415.508 168.926 415.082 169.222 415.12 169.736C415.133 169.936 415.235 170.217 415.626 170.415C420.511 172.877 427.941 173.874 433.732 173.874ZM441.239 171.733C439.578 172.965 425.179 173.62 416.612 169.589C416.685 169.538 416.757 169.487 416.827 169.439C418.338 168.386 421.481 166.191 420.613 161.023C420.066 157.773 419.348 155.329 418.477 153.76C418.282 153.41 417.923 153.18 417.518 153.145C414.884 152.926 412.904 152.247 412.591 151.456C412.451 150.956 413.027 148.211 413.271 147.037C413.373 146.545 413.461 146.133 413.504 145.874C413.563 145.532 413.475 145.176 413.258 144.901L411.618 142.808C411.583 142.762 411.602 142.701 411.637 142.666C413.962 140.37 414.804 138.031 415.208 136.905C415.262 136.756 415.308 136.633 415.345 136.536C415.407 136.384 415.691 135.823 416.894 133.753C418.426 131.12 421.256 129.476 424.284 129.463C428.282 129.439 430.985 130.658 432.266 133.072C436.703 141.423 434.479 144.615 432.328 147.7C431.047 149.536 429.72 151.437 429.94 154.268C430.645 163.365 436.545 167.974 439.712 170.449C440.369 170.952 440.99 171.439 441.239 171.733Z" fill="#212121"/>
<path d="M418.746 139.931L414.946 135.186C412.995 132.751 413.679 129.166 416.377 127.597C417.124 127.161 418.003 126.707 418.984 126.287C428.743 122.095 439.921 129.014 439.932 139.611C439.937 143.949 437.03 148.978 430.851 153.447C430.851 153.447 426.511 150.031 426.564 146.337C426.564 146.337 429.715 142.607 425.275 140.72C424.426 140.359 423.456 140.389 422.628 140.795C421.291 141.453 419.675 141.092 418.746 139.931Z" fill="#212121"/>
<path d="M424.544 148.625C425.859 148.625 427.531 148.066 428.772 145.727C428.925 145.438 428.815 145.083 428.525 144.93C428.236 144.778 427.88 144.888 427.727 145.176C425.956 148.518 423.29 147.27 422.99 147.117C422.7 146.97 422.344 147.08 422.194 147.368C422.044 147.657 422.154 148.01 422.44 148.16C422.465 148.17 423.357 148.625 424.544 148.625Z" fill="#212121"/>
<path d="M434.846 129.548C434.846 129.548 438.142 118.176 450.162 120.318C457.667 121.654 464.221 126.685 467.823 134.898C474.789 150.79 468.482 165.91 479.835 179.704C482.399 182.819 480.309 187.556 476.271 187.695C468.643 187.957 458.345 186.117 451.197 176.317C445.339 168.287 449.021 131.369 436.133 131.925L434.846 129.548Z" fill="#212121"/>
</g>
<defs>
<clipPath id="clip0_109_13030">
<rect width="259" height="391" fill="white" transform="matrix(-1 0 0 1 535 50)"/>
</clipPath>
</defs>
</svg>
