 <svg width="677" height="408" viewBox="0 0 677 408" fill="none" class="svg-stroke--animation"
                            xmlns="http://www.w3.org/2000/svg">
                            <g clip-path="url(#clip0_109_12234)">
                                <path
                                    d="M660.329 0.557617H224.67C215.77 0.557617 208.555 7.79694 208.555 16.7271V309.315C208.555 318.245 215.77 325.485 224.67 325.485H660.329C669.229 325.485 676.444 318.245 676.444 309.315V16.7271C676.444 7.79694 669.229 0.557617 660.329 0.557617Z"
                                    fill="white" stroke="black" />
                                <path
                                    d="M660.329 0.557617H224.67C215.77 0.557617 208.555 7.79694 208.555 16.7271V309.315C208.555 318.245 215.77 325.485 224.67 325.485H660.329C669.229 325.485 676.444 318.245 676.444 309.315V16.7271C676.444 7.79694 669.229 0.557617 660.329 0.557617Z"
                                    stroke="black" />
                                <path
                                    d="M646.249 14.686H238.751C229.851 14.686 222.636 21.9254 222.636 30.8555V277.798C222.636 286.728 229.851 293.967 238.751 293.967H646.249C655.149 293.967 662.364 286.728 662.364 277.798V30.8555C662.364 21.9254 655.149 14.686 646.249 14.686Z"
                                    stroke="black" />
                                <path d="M382.913 164.666H238.883V264.623H382.913V164.666Z" stroke="black" />
                                <path d="M240.493 148.335H634.758" stroke="black" />
                                <path d="M400.798 36.3936H640.856" stroke="black" />
                                <path d="M400.798 78.769H640.856" stroke="black" />
                                <path d="M400.798 121.144H640.856" stroke="black" />
                                <path d="M400.798 172.245H640.856" stroke="black" />
                                <path d="M400.798 214.62H640.856" stroke="black" />
                                <path d="M400.798 256.995H640.856" stroke="black" />
                                <path d="M413.796 309.183H471.203" stroke="black" />
                                <path d="M409.331 324.955V386.08" stroke="black" />
                                <path d="M474.056 324.955V386.08" stroke="black" />
                                <path d="M380.219 387.433H503.96" stroke="black" />
                                <path d="M382.913 30.9883H238.883V130.946H382.913V30.9883Z" stroke="black" />
                                <path
                                    d="M284.281 54.8023L265.957 104.746H261.303L281.3 51.6285H284.536L284.281 54.8023ZM300.934 104.746L282.572 54.8023L282.318 51.6285H285.554L305.587 104.746H300.934ZM297.661 85.994V89.861H269.556V85.994H297.661ZM337.983 97.0843V48.71H342.346V104.746H338.273L337.983 97.0843ZM310.678 85.4103V84.6442C310.678 81.5797 311.029 78.8193 311.732 76.3629C312.435 73.8821 313.441 71.7662 314.75 70.0151C316.083 68.2397 317.683 66.8899 319.549 65.9657C321.415 65.0172 323.524 64.5429 325.875 64.5429C328.178 64.5429 330.214 64.9199 331.984 65.6739C333.754 66.4278 335.268 67.51 336.529 68.9207C337.813 70.3313 338.844 72.0094 339.619 73.9551C340.418 75.9008 341.001 78.0654 341.364 80.4488V90.1893C341.073 92.427 340.54 94.482 339.765 96.3547C338.989 98.2031 337.959 99.8205 336.674 101.207C335.389 102.569 333.838 103.627 332.02 104.381C330.226 105.11 328.154 105.475 325.803 105.475C323.476 105.475 321.379 104.989 319.512 104.016C317.646 103.043 316.059 101.669 314.75 99.8935C313.441 98.0938 312.435 95.9656 311.732 93.5092C311.029 91.0528 310.678 88.3531 310.678 85.4103ZM315.041 84.6442V85.4103C315.041 87.7208 315.271 89.861 315.731 91.831C316.192 93.801 316.895 95.5157 317.84 96.9749C318.786 98.4342 319.986 99.5773 321.439 100.404C322.894 101.231 324.615 101.645 326.603 101.645C329.099 101.645 331.196 101.17 332.892 100.222C334.589 99.2489 335.946 97.9721 336.965 96.3913C337.983 94.786 338.722 93.0349 339.183 91.1379V79.7921C338.891 78.5032 338.468 77.1899 337.91 75.8521C337.352 74.5145 336.589 73.2863 335.62 72.1675C334.674 71.0244 333.462 70.1124 331.984 69.4314C330.529 68.7261 328.76 68.3735 326.675 68.3735C324.664 68.3735 322.931 68.7869 321.476 69.6139C320.021 70.4407 318.81 71.596 317.84 73.0796C316.895 74.5389 316.192 76.2535 315.731 78.2235C315.271 80.1935 315.041 82.3336 315.041 84.6442Z"
                                    fill="black" />
                                <rect x="234.24" y="305.183" width="8.2673" height="97.3704" fill="white" />
                            </g>
                            <g clip-path="url(#clip1_109_12234)">
                                <path
                                    d="M613.937 93.8315H499.707C493.173 93.8315 487.876 99.1913 487.876 105.803V350.181C487.876 356.793 493.173 362.153 499.707 362.153H613.937C620.471 362.153 625.767 356.793 625.767 350.181V105.803C625.767 99.1913 620.471 93.8315 613.937 93.8315Z"
                                    fill="white" stroke="black" />
                                <path
                                    d="M613.937 93.8315H499.707C493.173 93.8315 487.876 99.1913 487.876 105.803V350.181C487.876 356.793 493.173 362.153 499.707 362.153H613.937C620.471 362.153 625.767 356.793 625.767 350.181V105.803C625.767 99.1913 620.471 93.8315 613.937 93.8315Z"
                                    stroke="black" />
                                <path d="M569.061 107.454H544.583V108.28H569.061V107.454Z" fill="black" />
                                <path d="M563.757 126.03H497.667V172.264H563.757V126.03Z" stroke="black" />
                                <path
                                    d="M519.917 138.487L511.082 162.77H508.838L518.48 136.944H520.04L519.917 138.487ZM527.946 162.77L519.093 138.487L518.971 136.944H520.531L530.189 162.77H527.946ZM526.368 153.653V155.533H512.818V153.653H526.368ZM545.808 159.045V135.525H547.912V162.77H545.949L545.808 159.045ZM532.644 153.369V152.996C532.644 151.506 532.813 150.164 533.152 148.97C533.491 147.764 533.976 146.735 534.607 145.884C535.25 145.02 536.021 144.364 536.921 143.915C537.821 143.454 538.837 143.223 539.971 143.223C541.081 143.223 542.063 143.406 542.916 143.773C543.769 144.139 544.499 144.666 545.107 145.351C545.727 146.037 546.223 146.853 546.597 147.799C546.983 148.745 547.263 149.798 547.439 150.957V155.692C547.298 156.78 547.041 157.78 546.667 158.69C546.293 159.589 545.797 160.375 545.177 161.049C544.558 161.711 543.81 162.226 542.933 162.592C542.069 162.947 541.069 163.125 539.936 163.125C538.814 163.125 537.803 162.888 536.903 162.415C536.003 161.942 535.238 161.274 534.607 160.411C533.976 159.536 533.491 158.501 533.152 157.307C532.813 156.112 532.644 154.8 532.644 153.369ZM534.747 152.996V153.369C534.747 154.492 534.858 155.533 535.08 156.491C535.302 157.449 535.641 158.282 536.097 158.992C536.553 159.701 537.131 160.257 537.832 160.659C538.533 161.061 539.363 161.262 540.322 161.262C541.525 161.262 542.536 161.031 543.354 160.57C544.172 160.097 544.827 159.477 545.317 158.708C545.808 157.927 546.165 157.076 546.387 156.154V150.637C546.247 150.011 546.042 149.372 545.773 148.722C545.504 148.071 545.136 147.474 544.669 146.93C544.213 146.374 543.629 145.931 542.916 145.6C542.215 145.257 541.362 145.085 540.357 145.085C539.387 145.085 538.551 145.287 537.85 145.688C537.149 146.091 536.564 146.652 536.097 147.374C535.641 148.083 535.302 148.917 535.08 149.875C534.858 150.832 534.747 151.873 534.747 152.996Z"
                                    fill="black" />
                                <path d="M572.324 126.856H616.384" stroke="black" />
                                <path d="M572.324 147.496H616.384" stroke="black" />
                                <path d="M572.324 168.136H616.384" stroke="black" />
                                <path d="M615.976 183.822H497.667V269.685H615.976V183.822Z" stroke="black" />
                                <path
                                    d="M526.922 239.328C529.393 235.799 533.848 235.416 536.878 238.487L543.465 245.158C546.495 248.224 551.069 247.932 553.689 244.513L580.608 209.314C583.228 205.89 586.922 206.235 588.862 210.084L615.625 263.13C617.565 266.975 615.648 270.098 611.342 270.098H563.392H513.204C508.898 270.098 507.411 267.233 509.873 263.699L526.922 239.328Z"
                                    fill="black" fill-opacity="0.06" />
                                <path
                                    d="M523.102 221.599C528.818 220.238 532.357 214.465 531.008 208.703C529.658 202.941 523.931 199.374 518.215 200.734C512.5 202.095 508.96 207.868 510.31 213.63C511.659 219.392 517.387 222.959 523.102 221.599Z"
                                    fill="black" fill-opacity="0.06" />
                                <path d="M497.259 283.72H616.384" stroke="black" />
                                <path d="M497.259 304.36H616.384" stroke="black" />
                                <path d="M497.259 325H542.951" stroke="black" />
                                <path d="M487.468 339.861H626.175" stroke="black" />
                                <path
                                    d="M556.414 356.374C559.117 356.374 561.309 354.156 561.309 351.42C561.309 348.684 559.117 346.466 556.414 346.466C553.71 346.466 551.518 348.684 551.518 351.42C551.518 354.156 553.71 356.374 556.414 356.374Z"
                                    stroke="black" />
                            </g>
                            <path
                                d="M234.909 402.564H242.733C242.941 402.564 243.107 402.395 243.107 402.189V317.673C243.107 317.466 242.939 317.299 242.733 317.299C242.525 317.299 242.359 317.467 242.359 317.673V401.813H235.285V317.796C235.285 317.588 235.116 317.421 234.91 317.421C234.703 317.421 234.536 317.59 234.536 317.796V402.189C234.533 402.395 234.701 402.564 234.909 402.564Z"
                                fill="black" />
                            <path
                                d="M202.148 407.479H275.303C275.51 407.479 275.677 407.311 275.677 407.105V405.008C275.677 404.814 275.527 404.65 275.335 404.633L242.765 401.817L234.909 401.815L202.118 404.633C201.924 404.65 201.774 404.812 201.774 405.008V407.105C201.774 407.311 201.942 407.479 202.148 407.479ZM274.927 406.729H202.524V405.35L234.941 402.562L242.733 402.564L274.927 405.35V406.729Z"
                                fill="black" />
                            <path
                                d="M145.132 318.13H239.164C267.838 318.13 291.166 294.185 291.166 264.754V221.73C291.166 221.523 290.997 221.356 290.791 221.356H214.008C213.8 221.356 213.633 221.524 213.633 221.73V243.895C213.633 263.183 198.353 278.874 179.571 278.874C179.46 278.874 179.36 278.923 179.29 279C160.575 280.566 144.758 296.532 144.758 314.603V317.754C144.758 317.961 144.925 318.13 145.132 318.13ZM290.415 222.107V264.754C290.415 293.773 267.424 317.381 239.164 317.381H145.507V314.605C145.507 295.972 162.697 279.626 182.294 279.626C182.408 279.626 182.512 279.575 182.58 279.493C200.371 277.921 214.381 262.557 214.381 243.897V222.107H290.415Z"
                                fill="#F91414" />
                            <path
                                d="M214.532 243.772C214.532 262.433 200.526 277.8 182.734 279.366C182.666 279.451 182.564 279.502 182.445 279.502C162.848 279.502 145.66 295.848 145.66 314.483V317.257H239.319C267.578 317.257 290.57 293.653 290.57 264.628V221.98H214.532V243.772Z"
                                fill="white" />
                            <path
                                d="M145.132 318.13H239.164C267.838 318.13 291.166 294.185 291.166 264.754V221.73C291.166 221.523 290.997 221.356 290.791 221.356H214.008C213.8 221.356 213.633 221.524 213.633 221.73V243.895C213.633 263.183 198.353 278.874 179.571 278.874C179.46 278.874 179.36 278.923 179.29 279C160.575 280.566 144.758 296.532 144.758 314.603V317.754C144.758 317.961 144.925 318.13 145.132 318.13ZM290.415 222.107V264.754C290.415 293.773 267.424 317.381 239.164 317.381H145.507V314.605C145.507 295.972 162.697 279.626 182.294 279.626C182.408 279.626 182.512 279.575 182.58 279.493C200.371 277.921 214.381 262.557 214.381 243.897V222.107H290.415Z"
                                fill="black" />
                            <path d="M215.4 202.071H207.649V212.383H215.4V202.071Z" fill="white" stroke="black" />
                            <path
                                d="M215.9 204.89V201.573H207.149V208.897C207.938 209.053 209.513 209.253 211.32 208.657C214.151 207.722 215.54 205.51 215.9 204.89Z"
                                fill="black" />
                            <path
                                d="M212.141 189.928C212.156 189.928 212.171 189.928 212.187 189.926C212.704 189.901 213.104 189.462 213.079 188.944C212.764 182.428 219.967 181.839 220.273 181.818C220.789 181.781 221.178 181.333 221.143 180.818C221.107 180.302 220.658 179.91 220.145 179.946C216.912 180.164 210.88 182.344 211.203 189.036C211.228 189.538 211.644 189.928 212.141 189.928Z"
                                fill="black" />
                            <path
                                d="M211.162 189.889C211.521 189.889 211.865 189.681 212.02 189.332C212.159 189.016 215.436 181.544 213.305 177.284C211.443 173.559 211.019 171.875 211.014 171.86C210.891 171.358 210.386 171.05 209.882 171.171C209.38 171.292 209.07 171.795 209.189 172.299C209.206 172.374 209.645 174.161 211.627 178.125C213.066 181.003 211.16 186.642 210.304 188.572C210.095 189.045 210.308 189.6 210.781 189.809C210.905 189.863 211.034 189.889 211.162 189.889Z"
                                fill="black" />
                            <path
                                d="M211.739 189.351C212.146 189.351 212.52 189.084 212.639 188.674C212.713 188.418 214.41 182.388 210.343 179.505C207.785 177.691 207.123 176.205 206.955 175.482C206.837 174.976 206.332 174.663 205.83 174.779C205.324 174.896 205.011 175.4 205.127 175.904C205.404 177.106 206.347 178.971 209.258 181.035C212.246 183.154 210.852 188.1 210.837 188.15C210.692 188.647 210.978 189.167 211.477 189.312C211.564 189.339 211.652 189.351 211.739 189.351Z"
                                fill="black" />
                            <path
                                d="M211.406 189.44C211.431 189.44 211.455 189.438 211.481 189.437C211.996 189.396 212.381 188.948 212.342 188.432C212.323 188.187 211.814 182.39 205.537 180.491C201.468 179.259 200.578 176.314 200.542 176.19C200.399 175.695 199.883 175.402 199.386 175.543C198.889 175.683 198.598 176.192 198.733 176.69C198.777 176.856 199.89 180.743 204.994 182.288C210.015 183.808 210.456 188.386 210.473 188.58C210.514 189.067 210.924 189.44 211.406 189.44Z"
                                fill="black" />
                            <path
                                d="M209.678 189.053C209.722 189.053 209.768 189.05 209.814 189.043C210.322 188.968 210.676 188.507 210.609 187.998C210.434 186.682 209.026 184.136 204.943 183.92C201.187 183.721 200.072 181.871 200.062 181.852C199.813 181.398 199.243 181.231 198.789 181.479C198.334 181.728 198.167 182.298 198.416 182.753C198.477 182.867 199.995 185.537 204.844 185.794C208.283 185.976 208.713 188.025 208.752 188.258C208.825 188.718 209.225 189.053 209.678 189.053Z"
                                fill="black" />
                            <path
                                d="M217.378 199.178L210.386 197.452L203.3 199.081L202.821 197.573C201.2 192.479 205.001 187.28 210.349 187.28C215.671 187.28 219.47 192.437 217.894 197.519L217.378 199.178Z"
                                fill="black" />
                            <path
                                d="M203.802 198.988C203.802 203.056 206.775 206.267 210.34 206.267C213.905 206.267 216.878 203.056 216.878 198.988C216.878 194.919 213.905 191.708 210.34 191.708C206.775 191.708 203.802 194.919 203.802 198.988Z"
                                fill="white" stroke="black" />
                            <path
                                d="M213.398 202.402C212.718 203.025 211.843 203.445 210.854 203.547C208.65 203.772 206.664 202.341 206.117 200.263L213.398 202.402Z"
                                fill="white" />
                            <path
                                d="M219.181 201.406C220.195 201.406 221.021 200.581 221.021 199.565C221.021 198.551 220.195 197.725 219.181 197.725C218.166 197.725 217.339 198.551 217.339 199.565C217.341 200.581 218.166 201.406 219.181 201.406ZM219.181 198.476C219.781 198.476 220.27 198.964 220.27 199.565C220.27 200.166 219.781 200.656 219.181 200.656C218.58 200.656 218.09 200.167 218.09 199.565C218.091 198.964 218.58 198.476 219.181 198.476Z"
                                fill="#FED101" />
                            <path
                                d="M178.723 263.307H227.964L215.425 211.497H198.696C193.255 211.497 188.562 215.325 187.469 220.655L178.723 263.307Z"
                                class="svg-fill--base" />
                            <path
                                d="M120.771 208.512L113.777 205.867C113.777 205.867 114.731 201.685 110.67 199.324C109.728 198.776 107.693 197.822 105.967 197.034C104.003 196.138 102.166 194.988 100.505 193.611L98.5988 192.033C97.6405 191.24 96.2296 191.344 95.3973 192.268L95.2203 192.466C94.3778 193.402 94.4356 194.84 95.353 195.704L101.259 201.275L97.792 203.145C96.0151 204.104 94.0067 204.55 91.9898 204.43L83.8406 204.11C82.4857 204.058 81.2994 205.011 81.0629 206.347L81.022 206.575L76.6699 205.971C75.3832 205.835 74.2173 206.733 74.0216 208.013C73.8293 209.269 74.6411 210.46 75.8819 210.74L106.397 217.602L116.046 220.904L120.771 208.512Z"
                                fill="white" />
                            <path
                                d="M116.043 221.276C116.194 221.276 116.337 221.184 116.393 221.035L121.12 208.646C121.156 208.553 121.152 208.449 121.111 208.358C121.071 208.267 120.996 208.197 120.902 208.161L114.193 205.623C114.324 204.549 114.433 201.079 110.855 198.999C109.878 198.431 107.74 197.43 106.118 196.692C104.188 195.812 102.379 194.678 100.74 193.322L98.8336 191.744C97.7171 190.82 96.0832 190.941 95.113 192.018L94.936 192.215C93.9642 193.294 94.0339 194.981 95.0892 195.978L100.617 201.193L97.6082 202.817C95.8908 203.743 93.9539 204.17 92.0068 204.058L83.8491 203.738C82.3717 203.671 81.0322 204.709 80.7122 206.154L76.7159 205.6C75.2164 205.44 73.8701 206.476 73.6454 207.957C73.4242 209.402 74.3688 210.784 75.7951 211.105L106.29 217.963L115.92 221.258C115.963 221.27 116.004 221.276 116.043 221.276ZM120.286 208.73L115.822 220.427L106.517 217.244C106.503 217.239 106.491 217.236 106.477 217.234L75.9636 210.372C74.9202 210.137 74.2309 209.126 74.3926 208.069C74.5577 206.987 75.5415 206.229 76.6308 206.343L80.9709 206.946C81.1718 206.975 81.3573 206.839 81.3913 206.639L81.4322 206.411C81.6364 205.268 82.6593 204.441 83.8269 204.485L91.9745 204.806C94.0527 204.931 96.1291 204.469 97.969 203.477L101.436 201.607C101.542 201.549 101.615 201.445 101.63 201.326C101.645 201.207 101.603 201.086 101.516 201.004L95.61 195.434C94.8475 194.716 94.7982 193.497 95.4994 192.719L95.6764 192.522C96.3759 191.744 97.5554 191.659 98.3605 192.324L100.267 193.902C101.957 195.301 103.822 196.47 105.814 197.377C108.116 198.428 109.732 199.214 110.484 199.651C114.262 201.848 113.423 205.748 113.415 205.787C113.374 205.969 113.473 206.154 113.648 206.221L120.286 208.73Z"
                                fill="black" />
                            <path
                                d="M100.393 210.397L98.1306 209.742C96.6924 209.327 95.4056 208.501 94.427 207.368L89.0673 201.162C88.2963 200.27 86.9517 200.161 86.0479 200.919C85.1884 201.64 85.025 202.902 85.6735 203.817L90.9753 211.314C91.4042 211.92 91.9488 212.434 92.5803 212.826L95.9758 214.933L100.393 210.397Z"
                                fill="white" />
                            <path
                                d="M94.4624 208.462L92.1221 208.19C90.6346 208.018 89.2287 207.417 88.0764 206.461L81.7653 201.227C80.8582 200.475 79.5136 200.591 78.7476 201.486C78.0192 202.34 78.0651 203.61 78.8566 204.407L85.3243 210.923C85.8468 211.449 86.4697 211.866 87.1556 212.149L90.8541 213.665L94.4624 208.462Z"
                                fill="white" />
                            <path
                                d="M87.1576 212.525C87.3056 212.525 87.4452 212.437 87.5048 212.292C87.5831 212.1 87.4911 211.882 87.3005 211.802C86.6572 211.538 86.0819 211.154 85.5934 210.66L79.1257 204.143C78.4773 203.49 78.4381 202.431 79.0355 201.73C79.6653 200.993 80.7835 200.898 81.5273 201.515L86.3559 205.554C86.5142 205.687 86.7508 205.667 86.8852 205.507C87.018 205.348 86.9976 205.112 86.8376 204.977L82.0072 200.937C80.9469 200.057 79.3572 200.195 78.4636 201.24C77.6143 202.234 77.6705 203.74 78.5913 204.669L85.059 211.186C85.6206 211.751 86.2776 212.192 87.0146 212.493C87.0622 212.517 87.1099 212.525 87.1576 212.525Z"
                                fill="black" />
                            <path
                                d="M94.2912 213.96C94.4375 213.96 94.5771 213.873 94.6384 213.728C94.7184 213.538 94.6282 213.318 94.4358 213.238C92.4445 212.408 91.282 211.548 90.4242 210.272L85.9853 203.612C85.4475 202.853 85.5836 201.801 86.29 201.209C87.032 200.588 88.1503 200.676 88.7834 201.41L94.1431 207.615C95.1711 208.806 96.514 209.666 98.0271 210.103L102.783 211.101C102.985 211.143 103.184 211.014 103.227 210.81C103.269 210.607 103.14 210.408 102.936 210.365L98.2075 209.375C96.8629 208.985 95.6443 208.204 94.7116 207.123L89.3519 200.918C88.4532 199.876 86.8618 199.749 85.8083 200.634C84.8058 201.474 84.6135 202.969 85.3675 204.036L89.8012 210.689C90.7356 212.081 92.036 213.049 94.1482 213.931C94.1942 213.951 94.2435 213.96 94.2912 213.96Z"
                                fill="black" />
                            <path
                                d="M103.975 204.153C104.076 204.153 104.178 204.112 104.251 204.032C104.392 203.881 104.382 203.642 104.231 203.501L101.445 200.929C101.291 200.788 101.055 200.798 100.914 200.95C100.772 201.101 100.782 201.34 100.934 201.481L103.72 204.053C103.793 204.121 103.884 204.153 103.975 204.153Z"
                                fill="black" />
                            <path
                                d="M117.592 203.947L165.029 218.931L186.544 213.23C190.551 212.154 194.678 211.594 198.826 211.564L203.845 211.528L204.049 233.371L178.362 240.38C173.491 241.709 168.338 241.586 163.534 240.024L109.603 223.018L117.592 203.947Z"
                                class="svg-fill--base" />
                            <path
                                d="M187.465 182.39C187.533 182.39 187.601 182.372 187.664 182.334C187.84 182.224 187.894 181.992 187.783 181.817L140.91 106.815C140.799 106.639 140.568 106.585 140.392 106.696C140.217 106.806 140.163 107.038 140.273 107.213L187.147 182.213C187.218 182.327 187.341 182.39 187.465 182.39Z"
                                fill="black" />
                            <path
                                d="M187.679 202.434C189.971 202.434 192.157 201.34 193.532 199.413C195.232 197.032 195.329 193.888 193.779 191.407L190.407 186.013C190.297 185.838 190.065 185.784 189.89 185.894C189.714 186.005 189.66 186.236 189.771 186.412L193.142 191.805C194.531 194.028 194.446 196.845 192.921 198.977C191.398 201.112 188.763 202.106 186.208 201.515L89.2799 179.025C89.0773 178.979 88.8765 179.103 88.8288 179.306C88.7812 179.509 88.9071 179.709 89.1097 179.757L186.038 202.245C186.584 202.371 187.134 202.434 187.679 202.434Z"
                                fill="black" />
                            <path
                                d="M170.417 204.348L180.851 207.812L176.795 203.246L174.167 202.32C172.695 201.801 171.079 202.558 170.538 204.022L170.417 204.348Z"
                                fill="white" />
                            <path
                                d="M166.687 221.217L176.701 227.487L189.038 219.134L183.302 208.947C181.76 206.207 179.273 204.12 176.308 203.075L174.494 202.436L166.687 221.217Z"
                                fill="white" />
                            <path
                                d="M168.615 230.892C168.775 230.892 168.923 230.79 168.973 230.628L178.507 200.204C178.538 200.105 178.528 199.996 178.475 199.906C178.424 199.816 178.335 199.751 178.233 199.728L171.136 198.08C170.945 198.036 170.751 198.146 170.693 198.334L161.324 228.234C161.293 228.329 161.303 228.431 161.349 228.52C161.395 228.608 161.475 228.675 161.57 228.703L168.503 230.875C168.54 230.885 168.578 230.892 168.615 230.892ZM177.67 200.366L168.368 230.046L162.153 228.099L171.306 198.888L177.67 200.366Z"
                                fill="black" />
                            <path
                                d="M165.706 206.966L177.704 211.194L179.101 207.23L167.104 203.002C166.053 202.633 164.903 203.183 164.532 204.233L164.476 204.394C164.106 205.446 164.656 206.597 165.706 206.966Z"
                                fill="white" />
                            <path
                                d="M162.506 210.295L175.133 214.746L176.531 210.782L163.903 206.331C162.847 205.959 161.689 206.513 161.316 207.57L161.269 207.708C160.894 208.763 161.449 209.923 162.506 210.295Z"
                                fill="white" />
                            <path
                                d="M159.731 218.228L172.155 222.607L173.553 218.643L161.128 214.264C160.063 213.888 158.893 214.448 158.517 215.513L158.481 215.617C158.105 216.683 158.663 217.852 159.731 218.228Z"
                                fill="white" />
                            <path
                                d="M166.746 224.029L176.603 227.461L178.007 223.479L161.324 217.641L163.271 221.108C164.037 222.471 165.272 223.509 166.746 224.029Z"
                                fill="white" />
                            <path
                                d="M160.837 211.812L160.76 212.028C160.396 213.063 161.085 214.249 162.302 214.678L174.441 218.957L175.838 214.993L163.7 210.714C162.483 210.287 161.201 210.777 160.837 211.812Z"
                                fill="white" />
                            <path
                                d="M166.767 212.172C166.921 212.172 167.066 212.075 167.121 211.922C167.189 211.726 167.087 211.512 166.891 211.444L162.631 209.943C162.214 209.796 161.88 209.495 161.689 209.097C161.499 208.698 161.475 208.249 161.621 207.834L161.671 207.696C161.817 207.279 162.118 206.945 162.517 206.755C162.915 206.564 163.364 206.54 163.779 206.687L168.618 208.392C168.814 208.46 169.029 208.358 169.097 208.162C169.165 207.967 169.063 207.752 168.867 207.684L164.028 205.979C162.779 205.538 161.402 206.197 160.963 207.448L160.915 207.585C160.702 208.191 160.736 208.843 161.014 209.422C161.291 210 161.778 210.438 162.382 210.651L166.642 212.152C166.683 212.164 166.726 212.172 166.767 212.172Z"
                                fill="black" />
                            <path
                                d="M165.996 216.356C166.151 216.356 166.295 216.259 166.35 216.105C166.418 215.91 166.316 215.695 166.12 215.627L162.098 214.209C161.691 214.066 161.366 213.774 161.181 213.386C160.995 212.998 160.971 212.56 161.114 212.153L161.191 211.937C161.487 211.1 162.41 210.657 163.247 210.954L167.128 212.322C167.323 212.39 167.538 212.288 167.606 212.092C167.674 211.896 167.572 211.682 167.376 211.614L163.495 210.246C162.267 209.813 160.915 210.46 160.483 211.689L160.406 211.905C160.197 212.501 160.231 213.141 160.503 213.711C160.776 214.279 161.254 214.708 161.848 214.919L165.87 216.337C165.912 216.349 165.953 216.356 165.996 216.356Z"
                                fill="black" />
                            <path d="M175.794 226.966L189.706 237.923L195.675 223.06L181.223 211.56L175.794 226.966Z"
                                fill="white" />
                            <path
                                d="M169.602 208.714C169.757 208.714 169.901 208.617 169.956 208.463C170.024 208.268 169.922 208.053 169.726 207.985L165.832 206.613C164.979 206.312 164.53 205.374 164.829 204.522L164.886 204.36C165.187 203.507 166.125 203.058 166.979 203.358L177.87 207.195C178.064 207.264 178.28 207.161 178.349 206.966C178.417 206.77 178.315 206.556 178.119 206.487L167.228 202.65C165.983 202.212 164.615 202.866 164.178 204.11L164.121 204.272C163.684 205.516 164.338 206.884 165.582 207.321L169.476 208.695C169.518 208.707 169.559 208.714 169.602 208.714Z"
                                fill="black" />
                            <path
                                d="M189.706 238.299C189.739 238.299 189.771 238.296 189.803 238.287C189.917 238.257 190.011 238.175 190.055 238.064L196.026 223.201C196.087 223.048 196.041 222.871 195.912 222.767L187.95 216.432L183.63 208.762C182.2 206.222 179.938 204.192 177.259 203.043C177.069 202.961 176.849 203.05 176.768 203.241C176.686 203.431 176.774 203.651 176.965 203.734C179.492 204.818 181.627 206.735 182.977 209.133L187.332 216.866C187.356 216.909 187.388 216.946 187.426 216.975L195.226 223.182L189.546 237.321L176.573 227.102C176.541 227.077 176.505 227.056 176.466 227.043L166.87 223.674C165.481 223.184 164.319 222.207 163.597 220.924L162.488 218.948C162.443 218.87 162.374 218.812 162.292 218.779L159.861 217.874C159.434 217.723 159.097 217.42 158.903 217.018C158.711 216.615 158.685 216.162 158.835 215.741L158.871 215.638C159.177 214.77 160.134 214.31 161.002 214.618L166.489 216.552C166.685 216.62 166.899 216.518 166.967 216.322C167.035 216.126 166.933 215.912 166.738 215.844L161.25 213.91C159.991 213.466 158.605 214.13 158.161 215.389L158.125 215.493C157.911 216.102 157.945 216.759 158.226 217.343C158.505 217.927 158.995 218.366 159.604 218.58L161.9 219.435L162.944 221.29C163.754 222.733 165.061 223.831 166.622 224.381L176.158 227.728L189.473 238.216C189.541 238.27 189.623 238.299 189.706 238.299Z"
                                fill="black" />
                            <path
                                d="M89.5457 179.562C90.0375 179.562 90.555 179.519 91.0928 179.436C99.5552 178.117 113.061 166.399 124.701 150.276C131.815 140.421 137.229 130.23 139.944 121.581C142.701 112.802 142.342 106.612 138.935 104.151C135.527 101.692 129.538 103.3 122.073 108.68C114.717 113.981 106.748 122.328 99.6352 132.182C84.9706 152.495 78.7446 173.237 85.7587 178.419C86.7884 179.179 88.0581 179.562 89.5457 179.562ZM135.139 103.792C136.467 103.792 137.599 104.11 138.496 104.758C141.575 106.981 141.842 113.03 139.229 121.354C136.537 129.931 131.16 140.044 124.093 149.835C112.564 165.808 99.2557 177.405 90.9788 178.695C89.0146 179 87.4096 178.705 86.2046 177.815C79.6348 172.961 86.0633 152.265 100.245 132.621C107.313 122.83 115.221 114.545 122.514 109.289C127.528 105.674 131.914 103.792 135.139 103.792Z"
                                fill="black" />
                            <path
                                d="M114.581 111.03C114.673 111.03 114.767 110.996 114.84 110.926C114.99 110.783 114.996 110.547 114.853 110.395L102.815 97.6987C102.672 97.549 102.435 97.5422 102.284 97.6851C102.134 97.8281 102.127 98.0647 102.27 98.2161L114.309 110.913C114.382 110.991 114.482 111.03 114.581 111.03Z"
                                class="left_image_bounce-1" fill="black" />
                            <path
                                d="M130.978 128.329C131.07 128.329 131.164 128.295 131.237 128.227C131.387 128.084 131.393 127.847 131.25 127.696L117.316 113.001C117.173 112.85 116.936 112.845 116.785 112.988C116.635 113.13 116.628 113.367 116.771 113.519L130.706 128.213C130.779 128.29 130.879 128.329 130.978 128.329Z"
                                class="left_image_bounce-1" fill="black" />
                            <path
                                d="M104.58 121.608C104.683 121.608 104.786 121.565 104.86 121.482C104.998 121.327 104.985 121.09 104.83 120.952L90.0103 107.779C89.8555 107.641 89.6189 107.655 89.481 107.81C89.3431 107.965 89.3568 108.201 89.5117 108.339L104.331 121.512C104.403 121.575 104.491 121.608 104.58 121.608Z"
                                class="left_image_bounce-2" fill="black" />
                            <path
                                d="M125.811 140.477C125.914 140.477 126.017 140.435 126.091 140.351C126.229 140.197 126.216 139.96 126.061 139.822L107.303 123.143C107.148 123.005 106.91 123.019 106.774 123.174C106.636 123.328 106.649 123.565 106.804 123.703L125.562 140.382C125.634 140.447 125.722 140.477 125.811 140.477Z"
                                class="left_image_bounce-2" fill="black" />
                            <path
                                d="M98.9532 113.1C99.057 113.1 99.1591 113.057 99.234 112.974C99.3719 112.819 99.3583 112.582 99.2034 112.444L88.9419 103.324C88.787 103.186 88.5504 103.199 88.4126 103.354C88.2747 103.509 88.2883 103.746 88.4432 103.884L98.7047 113.004C98.7745 113.069 98.8647 113.1 98.9532 113.1Z"
                                fill="black" />
                            <path
                                d="M185.527 236.142L195.983 221.232L221.055 239.779L215.061 211.497H222.72C229.062 211.497 234.537 215.934 235.851 222.138L242.705 254.477C244.004 260.607 239.328 266.377 233.063 266.377H232.008C228.553 266.377 225.19 265.274 222.405 263.23L185.527 236.142Z"
                                class="svg-fill--base" />
                            <path
                                d="M232.008 266.751H233.064C236.165 266.751 239.062 265.369 241.014 262.961C242.966 260.552 243.717 257.431 243.073 254.398L236.219 222.057C234.876 215.719 229.198 211.121 222.72 211.121H215.97C215.763 211.121 215.596 211.289 215.596 211.495C215.596 211.703 215.764 211.869 215.97 211.869H222.72C228.846 211.869 234.214 216.22 235.486 222.212L242.34 254.555C242.935 257.365 242.239 260.256 240.432 262.489C238.622 264.721 235.938 266.002 233.065 266.002H232.01C228.613 266.002 225.369 264.938 222.63 262.927L186.047 236.058L196.07 221.765L225.163 243.414C225.33 243.538 225.565 243.502 225.689 243.337C225.813 243.17 225.777 242.935 225.612 242.811L196.21 220.932C196.128 220.871 196.028 220.847 195.926 220.863C195.825 220.878 195.737 220.934 195.679 221.018L185.223 235.928C185.106 236.095 185.143 236.325 185.308 236.446L222.184 263.531C225.052 265.638 228.449 266.751 232.008 266.751Z"
                                fill="black" />
                            <path
                                d="M221.054 240.153C221.079 240.153 221.105 240.15 221.132 240.144C221.335 240.102 221.464 239.903 221.422 239.7L217.713 222.18C217.67 221.978 217.471 221.847 217.269 221.891C217.066 221.933 216.937 222.133 216.979 222.335L220.688 239.857C220.725 240.032 220.882 240.153 221.054 240.153Z"
                                fill="black" />
                            <path d="M194.016 221.627L181.903 231.777L186.234 235.229L195.167 222.371L194.016 221.627Z"
                                fill="#020202" />
                            <path d="M116.971 349.868H139.666V374.729H116.971V349.868Z" fill="#020202" />
                            <path
                                d="M142.275 366.009L142.275 366.009C141.157 364.597 138.919 364.993 138.352 366.698L138.352 366.699L137.188 370.189C136.562 372.068 135.249 372.925 134.1 373.299C133.533 373.485 133.006 373.553 132.619 373.576C132.425 373.588 132.265 373.589 132.152 373.587C132.095 373.586 132.051 373.584 132.021 373.583L132.021 373.583L132.008 373.583H131.99C130.801 373.583 129.984 373.229 128.95 372.578C128.575 372.343 128.185 372.079 127.742 371.778C126.939 371.234 125.959 370.57 124.573 369.74L124.33 369.595V369.311V365.132L120.858 361.892H116.825L113.627 366.666L113.569 366.753L113.479 366.81L97.2642 377.069L97.2121 377.102L97.1537 377.122L73.7897 384.842L71.5787 390.273L78.3703 394.264L120.787 393.734L148.774 383.565C148.275 381.81 147.899 380.216 147.561 378.739C147.507 378.504 147.454 378.273 147.402 378.045C147.098 376.709 146.817 375.476 146.49 374.295C145.73 371.544 144.729 369.103 142.648 366.479C142.648 366.479 142.648 366.478 142.648 366.478L142.275 366.009ZM131.994 373.582C131.994 373.582 131.994 373.582 131.994 373.582L131.994 373.582Z"
                                fill="white" stroke="black" />
                            <path
                                d="M70.9513 390.487L84.2543 393.035L119.507 392.326L149.384 383.877L153.681 387.774L155.48 397.568L143.988 402.609C143.988 402.609 135.722 402.573 125.229 402.609L122.691 400.103H118.756L116.191 402.609C99.7921 402.653 82.0332 402.609 82.0332 402.609L72.4899 397.717L70.9496 394.744V390.487H70.9513Z"
                                fill="#020202" />
                            <path
                                d="M145.957 371.442C146.052 371.442 146.146 371.407 146.218 371.339C146.476 371.09 152.564 365.232 153.322 363.317C153.715 362.323 153.696 361.237 153.272 360.257C152.847 359.277 152.067 358.521 151.073 358.128C149.022 357.318 146.696 358.327 145.884 360.376C145.127 362.291 145.564 370.729 145.583 371.087C145.591 371.233 145.683 371.362 145.819 371.415C145.864 371.434 145.909 371.442 145.957 371.442ZM149.606 358.598C150.003 358.598 150.406 358.671 150.796 358.826C151.603 359.144 152.238 359.758 152.581 360.555C152.927 361.351 152.941 362.233 152.622 363.042C152.101 364.361 148.306 368.246 146.291 370.22C146.172 367.404 146.059 361.973 146.58 360.654C147.086 359.377 148.311 358.598 149.606 358.598Z"
                                fill="black" />
                            <path
                                d="M114.009 372.367C114.128 372.367 114.246 372.31 114.319 372.205C114.436 372.035 114.394 371.8 114.224 371.682L109.523 368.432C109.352 368.314 109.119 368.357 109 368.527C108.883 368.697 108.925 368.932 109.095 369.049L113.796 372.3C113.861 372.344 113.934 372.367 114.009 372.367Z"
                                fill="black" />
                            <path
                                d="M109.945 375.095C110.064 375.095 110.181 375.039 110.254 374.933C110.372 374.763 110.329 374.528 110.159 374.411L105.458 371.16C105.286 371.043 105.053 371.085 104.936 371.255C104.818 371.426 104.861 371.66 105.031 371.778L109.732 375.029C109.798 375.073 109.871 375.095 109.945 375.095Z"
                                fill="black" />
                            <path
                                d="M105.882 377.821C106.001 377.821 106.118 377.765 106.191 377.659C106.309 377.489 106.266 377.256 106.096 377.137L101.395 373.886C101.225 373.769 100.992 373.811 100.873 373.981C100.755 374.152 100.798 374.385 100.968 374.504L105.669 377.755C105.734 377.801 105.809 377.821 105.882 377.821Z"
                                fill="black" />
                            <path d="M62.6266 268.703L72.458 289.157L50.0504 299.927L40.2191 279.473L62.6266 268.703Z"
                                fill="#020202" />
                            <path
                                d="M59.4915 298.726L59.2294 299.266C56.2271 305.444 51.9652 307.312 46.0183 312.655L24.3329 291.452L5.3792 253.251L6.08043 244.832L12.5958 244.432L29.8372 262.309L46.1085 272.478L52.0605 273.329L54.0093 277.382L52.469 282.309L48.5067 284.213C48.054 289.166 47.2914 290.391 48.2088 292.301C48.2412 292.337 49.4581 295.686 53.0051 295.237L56.656 294.774C58.8346 294.495 60.4515 296.748 59.4915 298.726Z"
                                fill="white" />
                            <path
                                d="M46.0165 313.029C46.1067 313.029 46.1952 312.997 46.2667 312.934C47.9619 311.411 49.5533 310.146 50.9557 309.03C54.5487 306.172 57.386 303.915 59.5646 299.431L59.8267 298.891C60.339 297.838 60.2368 296.639 59.5526 295.686C58.8684 294.733 57.7672 294.253 56.6047 294.401L52.9539 294.864C50.2034 295.215 48.9712 293.113 48.5695 292.194C48.5593 292.17 48.5491 292.148 48.5389 292.129C47.9755 290.95 48.1083 290.048 48.401 288.075C48.5406 287.137 48.7125 285.978 48.8571 284.458L52.6288 282.646C52.7224 282.602 52.7939 282.518 52.8246 282.419L54.3649 277.492C54.3938 277.402 54.3853 277.303 54.3444 277.218L52.3956 273.166C52.3412 273.054 52.2339 272.975 52.1097 272.957L46.236 272.117L30.0719 262.015L12.8628 244.171C12.7862 244.093 12.679 244.049 12.5701 244.057L6.05473 244.457C5.86921 244.469 5.71942 244.615 5.7041 244.801L5.00287 253.221C4.99776 253.289 5.00969 253.357 5.04033 253.418L23.994 291.619C24.0127 291.656 24.0383 291.69 24.0672 291.721L45.7544 312.922C45.8275 312.994 45.9229 313.029 46.0165 313.029ZM59.1544 298.561L58.8922 299.1C56.7868 303.432 54.0091 305.643 50.4911 308.441C49.1516 309.506 47.6436 310.706 46.0301 312.139L24.6408 291.225L5.76199 253.176L6.42746 245.184L12.4458 244.815L29.5664 262.568C29.5869 262.59 29.6124 262.609 29.6379 262.626L45.9092 272.795C45.9535 272.822 46.0029 272.841 46.0556 272.848L51.8101 273.67L53.6075 277.409L52.1608 282.04L48.3448 283.873C48.2257 283.931 48.1457 284.045 48.1338 284.178C47.9874 285.781 47.807 286.991 47.664 287.964C47.3577 290.032 47.2028 291.071 47.8717 292.463C47.8734 292.466 47.8751 292.47 47.8768 292.473C48.2597 293.343 49.715 296.032 53.0526 295.608L56.7034 295.145C57.5868 295.033 58.4276 295.399 58.9484 296.124C59.4658 296.847 59.5441 297.759 59.1544 298.561Z"
                                fill="black" />
                            <path
                                d="M6.08015 244.83L9.54717 257.923L26.101 289.322L46.0181 312.653L44.3671 318.213L36.3199 324.076L26.838 315.883C26.838 315.883 23.2195 308.449 18.6428 299.008L19.8308 295.623L18.1271 292.076L14.7043 290.876C7.5609 276.117 -0.0743484 260.26 0.000541687 260.047C0.140106 259.647 0.233715 249.347 0.233715 249.347L2.24549 246.671L6.08015 244.83Z"
                                fill="#020202" />
                            <path
                                d="M65.1575 305.321C65.8094 305.321 66.3438 305.282 66.6877 305.185C68.8118 304.593 70.0577 302.382 69.4654 300.26C69.1777 299.23 68.5071 298.376 67.5778 297.851C66.6468 297.327 65.5677 297.196 64.5397 297.484C62.5569 298.037 56.0943 303.481 55.8203 303.713C55.7079 303.808 55.662 303.96 55.7011 304.101C55.7402 304.242 55.8594 304.348 56.0041 304.372C56.2951 304.416 62.0496 305.321 65.1575 305.321ZM65.612 298.086C67.0332 298.086 68.342 299.027 68.742 300.462C69.2237 302.188 68.211 303.982 66.4868 304.463C65.1201 304.845 59.7298 304.167 56.9419 303.754C59.1137 301.956 63.3755 298.587 64.7406 298.205C65.0299 298.125 65.3243 298.086 65.612 298.086Z"
                                fill="black" />
                            <path
                                d="M41.4043 275.998C41.5864 275.998 41.7447 275.867 41.7737 275.681L42.6672 270.036C42.6996 269.831 42.56 269.639 42.3558 269.607C42.1515 269.574 41.9592 269.714 41.9268 269.918L41.0333 275.564C41.0009 275.768 41.1405 275.96 41.3447 275.992C41.3652 275.996 41.3839 275.998 41.4043 275.998Z"
                                fill="black" />
                            <path
                                d="M37.1851 273.518C37.3672 273.518 37.5255 273.387 37.5544 273.202L38.448 267.556C38.4803 267.352 38.3408 267.16 38.1365 267.127C37.934 267.095 37.7399 267.234 37.7076 267.439L36.814 273.084C36.7817 273.288 36.9213 273.481 37.1255 273.513C37.146 273.516 37.1664 273.518 37.1851 273.518Z"
                                fill="black" />
                            <path
                                d="M32.9673 271.038C33.1494 271.038 33.3077 270.907 33.3366 270.722L34.2302 265.076C34.2625 264.872 34.123 264.68 33.9187 264.647C33.7145 264.617 33.5222 264.755 33.4898 264.959L32.5963 270.604C32.5639 270.808 32.7035 271.001 32.9077 271.033C32.9265 271.037 32.9469 271.038 32.9673 271.038Z"
                                fill="black" />
                            <path
                                d="M224.264 263.281V272.051C224.264 286.324 212.694 297.895 198.419 297.895H143.57V358.946H108.92V287.318C108.92 274.042 119.682 263.281 132.958 263.281H224.264Z"
                                fill="white" />
                            <path
                                d="M148.955 232.921L187.228 263.084H224.203V272.705C224.203 286.678 212.876 298.004 198.902 298.004H195.547C184.197 298.004 173.232 293.877 164.702 286.39L135.645 260.895L69.2643 296.479L53.1155 265.863L122.84 230.35C131.303 226.04 141.498 227.044 148.955 232.921Z"
                                fill="white" />
                            <path
                                d="M224.203 263.083V272.705C224.203 274.791 223.946 276.817 223.469 278.755C217.892 278.304 212.583 276.393 211.199 271.934C209.642 266.913 206.11 262.939 187.184 263.39L224.203 263.083Z"
                                fill="black" />
                            <path
                                d="M195.548 298.379H198.902C213.06 298.379 224.579 286.862 224.579 272.703V263.082C224.579 262.874 224.411 262.707 224.205 262.707H187.359L149.19 232.625C141.643 226.679 131.235 225.652 122.672 230.014L52.9457 265.528C52.8555 265.574 52.7891 265.654 52.7585 265.749C52.7278 265.844 52.738 265.948 52.784 266.036L68.9328 296.653C68.9787 296.742 69.0587 296.808 69.154 296.837C69.2493 296.866 69.3531 296.856 69.4417 296.808L114.057 272.892C114.239 272.795 114.309 272.567 114.21 272.383C114.113 272.201 113.885 272.131 113.701 272.23L69.4195 295.967L53.6248 266.021L123.011 230.683C131.313 226.456 141.405 227.449 148.722 233.216L186.995 263.378C187.061 263.431 187.143 263.458 187.228 263.458H223.829V272.703C223.829 286.446 212.646 297.628 198.902 297.628H195.548C184.284 297.628 173.416 293.537 164.949 286.108L135.892 260.612C135.774 260.508 135.604 260.49 135.466 260.563L131.15 262.878C130.968 262.975 130.898 263.203 130.997 263.386C131.094 263.569 131.322 263.638 131.506 263.54L135.592 261.349L164.454 286.671C173.057 294.221 184.1 298.379 195.548 298.379Z"
                                fill="black" />
                            <path
                                d="M135.814 261.397C135.917 261.397 136.021 261.354 136.096 261.269C136.232 261.112 136.217 260.876 136.062 260.74L130.027 255.443C129.87 255.305 129.633 255.322 129.497 255.477C129.361 255.634 129.376 255.87 129.531 256.007L135.567 261.303C135.637 261.368 135.725 261.397 135.814 261.397Z"
                                fill="black" />
                            <path
                                d="M108.92 359.323H143.569C143.777 359.323 143.944 359.154 143.944 358.948V298.272H192.314C192.521 298.272 192.688 298.103 192.688 297.897C192.688 297.69 192.519 297.523 192.314 297.523H143.569C143.362 297.523 143.195 297.691 143.195 297.897V358.574H109.296V287.318C109.296 274.271 119.91 263.657 132.957 263.657H138.297C138.504 263.657 138.671 263.489 138.671 263.283C138.671 263.075 138.502 262.908 138.297 262.908H132.957C119.496 262.908 108.545 273.859 108.545 287.319V358.948C108.543 359.154 108.712 359.323 108.92 359.323Z"
                                fill="black" />
                            <path
                                d="M143.57 298.269C143.778 298.269 143.944 298.101 143.944 297.895V290.878C143.944 290.67 143.776 290.503 143.57 290.503C143.362 290.503 143.195 290.672 143.195 290.878V297.895C143.194 298.103 143.362 298.269 143.57 298.269Z"
                                fill="black" />
                            <defs>
                                <clipPath id="clip0_109_12234">
                                    <rect width="469.001" height="388.067" fill="white"
                                        transform="translate(207.999)" />
                                </clipPath>
                                <clipPath id="clip1_109_12234">
                                    <rect width="138.707" height="269.147" fill="white"
                                        transform="translate(487.468 93.4189)" />
                                </clipPath>
                            </defs>
                        </svg>